<?xml version="1.0" encoding="UTF-8" standalone="no"?><!DOCTYPE svg PUBLIC "-//W3C//DTD SVG 1.1//EN" "http://www.w3.org/Graphics/SVG/1.1/DTD/svg11.dtd"><svg width="100%" height="100%" viewBox="0 0 298 168" version="1.1" xmlns="http://www.w3.org/2000/svg" xmlns:xlink="http://www.w3.org/1999/xlink" xml:space="preserve" style="fill-rule:evenodd;clip-rule:evenodd;stroke-linejoin:round;stroke-miterlimit:1.41421;"><g><circle id="Uhr" cx="240.381" cy="110.461" r="54.71" style="fill:#eee;"/><clipPath id="_clip1"><circle cx="240.381" cy="110.461" r="54.71"/></clipPath><g clip-path="url(#_clip1)"><g><path d="M264.924,68.809l-0.743,-0.429l-6.382,11.053l0.743,0.429l6.382,-11.053Z" style="fill:#856b55;"/><path d="M282.462,86.661l-0.429,-0.743l-11.054,6.381l0.43,0.744l11.053,-6.382Z" style="fill:#856b55;"/><path d="M282.033,135.004l0.429,-0.743l-11.053,-6.382l-0.43,0.744l11.054,6.381Z" style="fill:#856b55;"/><path d="M264.181,152.542l0.743,-0.429l-6.382,-11.053l-0.743,0.429l6.382,11.053Z" style="fill:#856b55;"/><path d="M215.837,152.113l0.744,0.429l6.382,-11.053l-0.744,-0.429l-6.382,11.053Z" style="fill:#856b55;"/><path d="M198.3,134.261l0.429,0.743l11.053,-6.381l-0.429,-0.744l-11.053,6.382Z" style="fill:#856b55;"/><path d="M198.729,85.918l-0.429,0.743l11.053,6.382l0.429,-0.744l-11.053,-6.381Z" style="fill:#856b55;"/><path d="M216.581,68.38l-0.744,0.429l6.382,11.053l0.744,-0.429l-6.382,-11.053Z" style="fill:#856b55;"/><rect x="239.952" y="62.118" width="0.858" height="12.764" style="fill:#856b55;"/><path d="M288.724,110.89l0,-0.858l-12.763,0l0,0.858l12.763,0Z" style="fill:#856b55;"/><rect x="239.952" y="146.041" width="0.858" height="12.764" style="fill:#856b55;"/><path d="M192.037,110.032l0,0.858l12.764,0l0,-0.858l-12.764,0Z" style="fill:#856b55;"/></g><g><g><path d="M245.455,62.314c0.739,0.077 1.276,0.74 1.198,1.479c-0.077,0.739 -0.74,1.276 -1.479,1.198c-0.739,-0.078 -1.275,-0.74 -1.198,-1.479c0.078,-0.739 0.741,-1.276 1.479,-1.198Z" style="fill:#008bba;"/><path d="M288.569,115.561c-0.077,0.739 -0.74,1.276 -1.479,1.198c-0.739,-0.077 -1.276,-0.74 -1.198,-1.479c0.078,-0.739 0.74,-1.276 1.479,-1.198c0.739,0.078 1.276,0.74 1.198,1.479Z" style="fill:#008bba;"/><path d="M235.281,158.649c-0.739,-0.077 -1.276,-0.74 -1.198,-1.479c0.077,-0.739 0.74,-1.276 1.479,-1.198c0.739,0.078 1.276,0.741 1.198,1.479c-0.078,0.739 -0.741,1.276 -1.479,1.198Z" style="fill:#008bba;"/><path d="M192.193,105.361c0.077,-0.739 0.74,-1.276 1.479,-1.198c0.739,0.078 1.275,0.74 1.198,1.479c-0.078,0.739 -0.741,1.276 -1.48,1.198c-0.738,-0.078 -1.275,-0.74 -1.197,-1.479Z" style="fill:#008bba;"/><path d="M288.584,105.415c0.077,0.739 -0.459,1.402 -1.198,1.479c-0.739,0.078 -1.402,-0.459 -1.48,-1.198c-0.077,-0.739 0.46,-1.401 1.198,-1.479c0.739,-0.078 1.402,0.459 1.48,1.198Z" style="fill:#008bba;"/><path d="M245.427,158.664c-0.739,0.078 -1.402,-0.459 -1.479,-1.198c-0.078,-0.739 0.459,-1.402 1.198,-1.479c0.738,-0.078 1.401,0.459 1.479,1.198c0.078,0.738 -0.459,1.401 -1.198,1.479Z" style="fill:#008bba;"/><path d="M192.178,115.507c-0.078,-0.739 0.459,-1.402 1.198,-1.479c0.739,-0.078 1.402,0.459 1.479,1.198c0.078,0.739 -0.459,1.401 -1.198,1.479c-0.738,0.078 -1.401,-0.459 -1.479,-1.198Z" style="fill:#008bba;"/><path d="M235.335,62.258c0.739,-0.077 1.401,0.459 1.479,1.198c0.078,0.739 -0.459,1.402 -1.198,1.479c-0.739,0.078 -1.402,-0.459 -1.479,-1.197c-0.078,-0.739 0.459,-1.402 1.198,-1.48Z" style="fill:#008bba;"/></g><path d="M250.474,63.109c0.727,0.155 1.192,0.87 1.037,1.597c-0.154,0.727 -0.87,1.191 -1.596,1.037c-0.727,-0.155 -1.191,-0.87 -1.037,-1.597c0.154,-0.726 0.87,-1.191 1.596,-1.037Z" style="fill:#008bba;"/><path d="M255.383,64.425c0.706,0.23 1.094,0.99 0.864,1.696c-0.23,0.707 -0.99,1.094 -1.696,0.865c-0.707,-0.23 -1.094,-0.99 -0.864,-1.696c0.229,-0.707 0.989,-1.094 1.696,-0.865Z" style="fill:#008bba;"/><path d="M260.127,66.247c0.678,0.302 0.984,1.099 0.682,1.777c-0.302,0.679 -1.099,0.985 -1.777,0.682c-0.679,-0.302 -0.985,-1.098 -0.682,-1.777c0.302,-0.678 1.098,-0.984 1.777,-0.682Z" style="fill:#008bba;"/><path d="M268.892,71.308c0.601,0.436 0.734,1.279 0.298,1.88c-0.437,0.601 -1.279,0.734 -1.88,0.298c-0.601,-0.437 -0.735,-1.279 -0.298,-1.88c0.436,-0.601 1.279,-0.735 1.88,-0.298Z" style="fill:#008bba;"/><path d="M272.83,74.497c0.552,0.497 0.597,1.349 0.1,1.901c-0.497,0.552 -1.349,0.597 -1.901,0.1c-0.552,-0.498 -0.597,-1.349 -0.1,-1.901c0.497,-0.552 1.349,-0.597 1.901,-0.1Z" style="fill:#008bba;"/><path d="M276.413,78.08c0.498,0.552 0.453,1.404 -0.099,1.901c-0.552,0.497 -1.404,0.453 -1.901,-0.099c-0.497,-0.552 -0.452,-1.404 0.1,-1.901c0.552,-0.497 1.403,-0.453 1.9,0.099Z" style="fill:#008bba;"/><path d="M279.617,82.039c0.436,0.601 0.303,1.443 -0.299,1.879c-0.601,0.437 -1.443,0.303 -1.88,-0.298c-0.436,-0.601 -0.302,-1.444 0.299,-1.88c0.601,-0.437 1.444,-0.303 1.88,0.299Z" style="fill:#008bba;"/><path d="M284.663,90.784c0.302,0.678 -0.003,1.475 -0.682,1.777c-0.679,0.302 -1.475,-0.004 -1.777,-0.682c-0.302,-0.679 0.004,-1.475 0.682,-1.777c0.679,-0.303 1.475,0.003 1.777,0.682Z" style="fill:#008bba;"/><path d="M279.563,138.972c-0.437,0.601 -1.279,0.735 -1.88,0.298c-0.601,-0.437 -0.735,-1.279 -0.298,-1.88c0.437,-0.601 1.279,-0.735 1.88,-0.298c0.601,0.437 0.735,1.279 0.298,1.88Z" style="fill:#008bba;"/><path d="M260.058,154.743c-0.679,0.303 -1.475,-0.003 -1.777,-0.682c-0.302,-0.678 0.003,-1.475 0.682,-1.777c0.679,-0.302 1.475,0.004 1.777,0.682c0.302,0.679 -0.003,1.475 -0.682,1.777Z" style="fill:#008bba;"/><path d="M211.87,149.643c-0.601,-0.436 -0.735,-1.279 -0.298,-1.88c0.437,-0.601 1.279,-0.734 1.88,-0.298c0.601,0.437 0.734,1.279 0.298,1.88c-0.437,0.601 -1.279,0.735 -1.88,0.298Z" style="fill:#008bba;"/><path d="M196.098,130.138c-0.302,-0.678 0.004,-1.475 0.683,-1.777c0.678,-0.302 1.475,0.004 1.777,0.682c0.302,0.679 -0.004,1.475 -0.683,1.777c-0.678,0.303 -1.474,-0.003 -1.777,-0.682Z" style="fill:#008bba;"/><path d="M201.199,81.95c0.436,-0.601 1.279,-0.734 1.88,-0.298c0.601,0.437 0.734,1.279 0.298,1.88c-0.437,0.601 -1.28,0.735 -1.881,0.298c-0.601,-0.437 -0.734,-1.279 -0.297,-1.88Z" style="fill:#008bba;"/><path d="M220.704,66.179c0.678,-0.303 1.475,0.003 1.777,0.682c0.302,0.678 -0.004,1.475 -0.682,1.777c-0.679,0.302 -1.475,-0.004 -1.778,-0.682c-0.302,-0.679 0.004,-1.475 0.683,-1.777Z" style="fill:#008bba;"/><path d="M286.479,95.515c0.23,0.706 -0.157,1.466 -0.864,1.696c-0.706,0.229 -1.466,-0.158 -1.696,-0.864c-0.229,-0.707 0.158,-1.467 0.864,-1.696c0.707,-0.23 1.467,0.157 1.696,0.864Z" style="fill:#008bba;"/><path d="M287.776,120.566c-0.154,0.727 -0.869,1.192 -1.596,1.037c-0.727,-0.154 -1.191,-0.87 -1.037,-1.596c0.155,-0.727 0.87,-1.191 1.597,-1.037c0.726,0.154 1.191,0.87 1.036,1.596Z" style="fill:#008bba;"/><path d="M276.374,142.91c-0.497,0.552 -1.349,0.597 -1.901,0.1c-0.552,-0.497 -0.597,-1.349 -0.1,-1.901c0.497,-0.552 1.349,-0.597 1.901,-0.1c0.552,0.498 0.597,1.349 0.1,1.901Z" style="fill:#008bba;"/><path d="M255.327,156.56c-0.706,0.229 -1.466,-0.158 -1.696,-0.865c-0.23,-0.706 0.158,-1.466 0.864,-1.696c0.707,-0.229 1.467,0.158 1.696,0.864c0.23,0.707 -0.157,1.467 -0.864,1.697Z" style="fill:#008bba;"/><path d="M230.275,157.857c-0.726,-0.155 -1.191,-0.87 -1.036,-1.597c0.154,-0.726 0.869,-1.191 1.596,-1.037c0.727,0.155 1.191,0.87 1.037,1.597c-0.155,0.727 -0.87,1.191 -1.597,1.037Z" style="fill:#008bba;"/><path d="M207.931,146.454c-0.552,-0.497 -0.596,-1.349 -0.099,-1.901c0.497,-0.552 1.349,-0.597 1.901,-0.099c0.552,0.497 0.596,1.348 0.099,1.9c-0.497,0.553 -1.348,0.597 -1.901,0.1Z" style="fill:#008bba;"/><path d="M194.282,125.407c-0.229,-0.706 0.158,-1.466 0.865,-1.696c0.706,-0.229 1.466,0.158 1.696,0.864c0.229,0.707 -0.158,1.467 -0.865,1.696c-0.706,0.23 -1.466,-0.157 -1.696,-0.864Z" style="fill:#008bba;"/><path d="M192.985,100.356c0.155,-0.727 0.87,-1.192 1.597,-1.037c0.726,0.154 1.191,0.87 1.036,1.596c-0.154,0.727 -0.869,1.191 -1.596,1.037c-0.727,-0.154 -1.191,-0.87 -1.037,-1.596Z" style="fill:#008bba;"/><path d="M204.388,78.012c0.497,-0.552 1.349,-0.597 1.901,-0.1c0.552,0.497 0.596,1.349 0.099,1.901c-0.497,0.552 -1.349,0.597 -1.901,0.1c-0.552,-0.497 -0.596,-1.349 -0.099,-1.901Z" style="fill:#008bba;"/><path d="M225.435,64.363c0.706,-0.23 1.466,0.157 1.696,0.864c0.229,0.706 -0.158,1.466 -0.865,1.696c-0.706,0.229 -1.466,-0.158 -1.696,-0.864c-0.229,-0.707 0.158,-1.467 0.865,-1.696Z" style="fill:#008bba;"/><path d="M287.791,100.41c0.154,0.726 -0.31,1.442 -1.037,1.596c-0.726,0.155 -1.442,-0.31 -1.596,-1.037c-0.155,-0.726 0.31,-1.442 1.036,-1.596c0.727,-0.154 1.442,0.31 1.597,1.037Z" style="fill:#008bba;"/><path d="M286.465,125.461c-0.23,0.707 -0.99,1.094 -1.696,0.865c-0.707,-0.23 -1.094,-0.99 -0.864,-1.697c0.229,-0.706 0.989,-1.093 1.696,-0.864c0.706,0.23 1.093,0.99 0.864,1.696Z" style="fill:#008bba;"/><path d="M272.791,146.494c-0.552,0.497 -1.404,0.452 -1.901,-0.1c-0.497,-0.552 -0.453,-1.404 0.099,-1.901c0.552,-0.497 1.404,-0.452 1.901,0.1c0.497,0.552 0.453,1.404 -0.099,1.901Z" style="fill:#008bba;"/><path d="M250.432,157.871c-0.726,0.155 -1.442,-0.31 -1.596,-1.037c-0.155,-0.726 0.31,-1.442 1.036,-1.596c0.727,-0.155 1.442,0.31 1.597,1.037c0.154,0.726 -0.31,1.442 -1.037,1.596Z" style="fill:#008bba;"/><path d="M225.38,156.545c-0.706,-0.23 -1.093,-0.99 -0.864,-1.696c0.23,-0.707 0.99,-1.094 1.696,-0.864c0.707,0.229 1.094,0.989 0.865,1.696c-0.23,0.706 -0.99,1.094 -1.697,0.864Z" style="fill:#008bba;"/><path d="M204.348,142.871c-0.497,-0.552 -0.452,-1.404 0.1,-1.901c0.552,-0.497 1.404,-0.453 1.901,0.099c0.497,0.553 0.452,1.404 -0.1,1.901c-0.552,0.497 -1.404,0.453 -1.901,-0.099Z" style="fill:#008bba;"/><path d="M192.971,120.512c-0.155,-0.726 0.31,-1.442 1.036,-1.596c0.727,-0.155 1.442,0.31 1.597,1.037c0.154,0.726 -0.31,1.442 -1.037,1.596c-0.726,0.155 -1.442,-0.31 -1.596,-1.037Z" style="fill:#008bba;"/><path d="M194.297,95.461c0.229,-0.707 0.989,-1.094 1.696,-0.864c0.706,0.229 1.094,0.989 0.864,1.696c-0.229,0.706 -0.989,1.093 -1.696,0.864c-0.706,-0.23 -1.094,-0.99 -0.864,-1.696Z" style="fill:#008bba;"/><path d="M207.971,74.428c0.552,-0.497 1.404,-0.452 1.901,0.1c0.497,0.552 0.452,1.404 -0.1,1.901c-0.552,0.497 -1.403,0.452 -1.901,-0.1c-0.497,-0.552 -0.452,-1.404 0.1,-1.901Z" style="fill:#008bba;"/><path d="M230.33,63.051c0.726,-0.154 1.441,0.31 1.596,1.037c0.154,0.726 -0.31,1.442 -1.037,1.596c-0.726,0.155 -1.442,-0.31 -1.596,-1.037c-0.155,-0.726 0.31,-1.442 1.037,-1.596Z" style="fill:#008bba;"/><path d="M284.649,130.192c-0.302,0.679 -1.099,0.985 -1.777,0.683c-0.679,-0.303 -0.985,-1.099 -0.683,-1.778c0.303,-0.678 1.099,-0.984 1.778,-0.682c0.678,0.302 0.984,1.099 0.682,1.777Z" style="fill:#008bba;"/><path d="M268.852,149.683c-0.601,0.436 -1.443,0.303 -1.88,-0.298c-0.436,-0.601 -0.303,-1.443 0.298,-1.88c0.601,-0.437 1.443,-0.303 1.88,0.298c0.437,0.601 0.303,1.443 -0.298,1.88Z" style="fill:#008bba;"/><path d="M220.649,154.729c-0.678,-0.302 -0.984,-1.098 -0.682,-1.777c0.302,-0.679 1.099,-0.984 1.777,-0.682c0.679,0.302 0.985,1.098 0.683,1.777c-0.303,0.678 -1.099,0.984 -1.778,0.682Z" style="fill:#008bba;"/><path d="M201.159,138.933c-0.437,-0.601 -0.303,-1.444 0.298,-1.881c0.601,-0.436 1.443,-0.303 1.88,0.298c0.437,0.601 0.303,1.444 -0.298,1.88c-0.601,0.437 -1.443,0.304 -1.88,-0.297Z" style="fill:#008bba;"/><path d="M196.113,90.73c0.302,-0.679 1.098,-0.985 1.777,-0.682c0.679,0.302 0.984,1.098 0.682,1.777c-0.302,0.678 -1.098,0.984 -1.777,0.682c-0.679,-0.302 -0.984,-1.099 -0.682,-1.777Z" style="fill:#008bba;"/><path d="M211.909,71.239c0.601,-0.436 1.444,-0.303 1.88,0.298c0.437,0.601 0.304,1.443 -0.297,1.88c-0.601,0.437 -1.444,0.303 -1.88,-0.298c-0.437,-0.601 -0.304,-1.443 0.297,-1.88Z" style="fill:#008bba;"/></g><rect id="stundenzeiger" x="239.314" y="82.755" width="2.134" height="39.753" style="fill:#381b00;"/><rect id="minutenzeiger" x="239.694" y="75.066" width="1.373" height="50.819" style="fill:#381b00;"/><path id="sekundenzeiger" d="M241.104,130.056l-1.446,0l0.361,-64.585l0.723,0l0.362,64.585Z" style="fill:#c2151b;"/><circle id="mittelkreis" cx="240.381" cy="110.461" r="1.523" style="fill:#c2151b;"/></g><circle cx="240.381" cy="110.461" r="54.71" style="fill:none;stroke:#008bba;stroke-width:5px;"/><path id="Hinterrad" d="M57.982,53.949c30.193,0.193 54.55,24.863 54.357,55.056c-0.193,30.194 -24.863,54.55 -55.057,54.357c-30.193,-0.193 -54.55,-24.863 -54.357,-55.056c0.193,-30.194 24.863,-54.55 55.057,-54.357Z" style="fill:#eee;"/><clipPath id="_clip2"><path d="M57.982,53.949c30.193,0.193 54.55,24.863 54.357,55.056c-0.193,30.194 -24.863,54.55 -55.057,54.357c-30.193,-0.193 -54.55,-24.863 -54.357,-55.056c0.193,-30.194 24.863,-54.55 55.057,-54.357Z"/></clipPath><g clip-path="url(#_clip2)"><g transform="matrix(0.5,4.33681e-19,0,0.5,-285.118,-161.193)"><text x="660.201px" y="599.309px" style="font-family:'OpenSans', 'Open Sans', sans-serif;font-size:48px;fill:none;">-uhr</text><text x="660.201px" y="599.309px" style="font-family:'OpenSans', 'Open Sans', sans-serif;font-size:48px;fill:#856b55;stroke:#856b55;stroke-width:1px;">-uhr</text></g><g transform="matrix(0.5,4.33681e-19,0,0.5,24.2241,140.278)"><text x="0px" y="0px" style="font-family:'OpenSans', 'Open Sans', sans-serif;font-size:144px;fill:none;">f</text><text x="0px" y="0px" style="font-family:'OpenSans', 'Open Sans', sans-serif;font-size:144px;fill:#856b55;stroke:#eee;stroke-width:4px;stroke-linecap:round;stroke-linejoin:miter;">f</text></g></g><path d="M57.982,53.949c30.193,0.193 54.55,24.863 54.357,55.056c-0.193,30.194 -24.863,54.55 -55.057,54.357c-30.193,-0.193 -54.55,-24.863 -54.357,-55.056c0.193,-30.194 24.863,-54.55 55.057,-54.357Z" style="fill:none;stroke:#008bba;stroke-width:5px;"/><g><path d="M239.17,43.118l0.297,0.001l0.297,0.003l0.297,0.005l0.297,0.005l0.298,0.007l0.298,0.008l0.297,0.009l0.298,0.011l0.298,0.011l0.298,0.013l0.298,0.014l0.298,0.016l0.298,0.016l0.298,0.018l0.298,0.019l0.299,0.02l0.298,0.022l0.299,0.022l0.298,0.024l0.299,0.025l0.298,0.027l0.299,0.028l0.298,0.028l0.299,0.03l0.299,0.032l0.298,0.032l0.299,0.034l0.299,0.035l0.299,0.036l0.298,0.038l0.299,0.038l0.299,0.04l0.299,0.041l0.298,0.043l0.299,0.043l0.299,0.045l0.191,0.03l0.107,0.017l0.299,0.048l0.298,0.049l0.299,0.051l0.298,0.052l0.298,0.053l0.299,0.054l0.298,0.056l0.298,0.056l0.298,0.058l0.298,0.06l0.298,0.06l0.298,0.062l0.298,0.063l0.298,0.064l0.297,0.065l0.298,0.067l0.297,0.067l0.298,0.069l0.297,0.071l0.297,0.071l0.297,0.073l0.297,0.074l0.297,0.075l0.297,0.076l0.296,0.078l0.297,0.079l0.296,0.08l0.297,0.081l0.296,0.083l0.296,0.084l0.295,0.085l0.296,0.086l0.295,0.087l0.296,0.089l0.295,0.09l0.295,0.091l0.295,0.092l0.294,0.094l0.295,0.095l0.294,0.096l0.294,0.097l0.294,0.098l0.294,0.1l0.294,0.101l0.284,0.099l0.009,0.003l0.293,0.104l0.293,0.106l0.292,0.107l0.292,0.108l0.292,0.109l0.292,0.11l0.292,0.112l0.291,0.113l0.291,0.114l0.291,0.115l0.291,0.117l0.29,0.117l0.29,0.119l0.29,0.121l0.289,0.121l0.29,0.123l0.289,0.124l0.289,0.125l0.288,0.126l0.288,0.128l0.288,0.128l0.288,0.13l0.287,0.132l0.287,0.132l0.287,0.134l0.287,0.134l0.286,0.137l0.286,0.137l0.285,0.138l0.286,0.14l0.285,0.141l0.284,0.142l0.284,0.144l0.167,0.085l0.116,0.063l0.28,0.153l0.28,0.154l0.279,0.155l0.279,0.157l0.279,0.158l0.278,0.159l0.278,0.16l0.277,0.161l0.277,0.163l0.277,0.164l0.276,0.165l0.275,0.166l0.276,0.167l0.274,0.169l0.275,0.17l0.273,0.171l0.274,0.172l0.273,0.174l0.272,0.174l0.273,0.176l0.271,0.177l0.271,0.178l0.271,0.18l0.27,0.18l0.27,0.182l0.269,0.183l0.269,0.184l0.029,0.02l0.238,0.167l0.267,0.188l0.266,0.19l0.266,0.191l0.265,0.191l0.264,0.193l0.264,0.195l0.264,0.195l0.263,0.197l0.263,0.198l0.261,0.199l0.262,0.2l0.261,0.201l0.26,0.203l0.26,0.203l0.259,0.205l0.259,0.206l0.258,0.207l0.257,0.209l0.257,0.209l0.257,0.211l-0.28,-0.178l-0.28,-0.177l-0.28,-0.176l-0.281,-0.174l-0.281,-0.174l-0.281,-0.171l-0.282,-0.171l-0.282,-0.169l-0.282,-0.168l-0.282,-0.167l-0.283,-0.165l-0.283,-0.164l-0.283,-0.162l-0.283,-0.162l-0.284,-0.16l-0.283,-0.158l-0.284,-0.158l-0.285,-0.156l-0.284,-0.155l-0.285,-0.153l-0.254,-0.136l-0.031,-0.017l-0.284,-0.152l-0.284,-0.152l-0.285,-0.15l-0.285,-0.149l-0.285,-0.147l-0.285,-0.146l-0.285,-0.145l-0.286,-0.144l-0.286,-0.142l-0.286,-0.141l-0.286,-0.14l-0.287,-0.139l-0.286,-0.137l-0.287,-0.136l-0.287,-0.135l-0.287,-0.133l-0.287,-0.132l-0.288,-0.131l-0.287,-0.13l-0.288,-0.128l-0.288,-0.127l-0.288,-0.126l-0.288,-0.124l-0.289,-0.124l-0.288,-0.122l-0.289,-0.12l-0.289,-0.12l-0.119,-0.049l-0.167,-0.073l-0.286,-0.124l-0.286,-0.123l-0.286,-0.122l-0.286,-0.12l-0.287,-0.119l-0.286,-0.118l-0.287,-0.117l-0.287,-0.115l-0.287,-0.114l-0.287,-0.113l-0.287,-0.112l-0.287,-0.11l-0.288,-0.109l-0.288,-0.108l-0.288,-0.107l-0.287,-0.106l-0.289,-0.104l-0.288,-0.103l-0.288,-0.102l-0.288,-0.1l-0.289,-0.1l-0.289,-0.098l-0.288,-0.097l-0.289,-0.095l-0.289,-0.095l-0.289,-0.093l-0.289,-0.092l-0.289,-0.091l-0.289,-0.089l-0.29,-0.088l-0.289,-0.088l-0.289,-0.085l-0.29,-0.085l-0.009,-0.003l-0.28,-0.081l-0.289,-0.084l-0.29,-0.081l-0.289,-0.081l-0.29,-0.08l-0.289,-0.078l-0.29,-0.077l-0.289,-0.076l-0.29,-0.074l-0.289,-0.074l-0.29,-0.072l-0.29,-0.071l-0.29,-0.07l-0.289,-0.068l-0.29,-0.068l-0.29,-0.066l-0.29,-0.065l-0.289,-0.064l-0.29,-0.062l-0.29,-0.061l-0.29,-0.061l-0.289,-0.058l-0.29,-0.058l-0.29,-0.057l-0.289,-0.055l-0.29,-0.054l-0.289,-0.053l-0.29,-0.052l-0.29,-0.05l-0.289,-0.05l-0.289,-0.048l-0.29,-0.047l-0.289,-0.045l-0.289,-0.045l-0.29,-0.043l-0.289,-0.043l-0.289,-0.04l-0.289,-0.04l-0.289,-0.039l-0.288,-0.037l-0.289,-0.036l-0.289,-0.035l-0.288,-0.034l-0.289,-0.033l-0.288,-0.031l-0.103,-0.011l-0.185,-0.02l-0.288,-0.03l-0.288,-0.029l-0.288,-0.028l-0.288,-0.026l-0.287,-0.025l-0.288,-0.024l-0.287,-0.023l-0.287,-0.022l-0.288,-0.02l-0.286,-0.02l-0.287,-0.018l-0.287,-0.017l-0.287,-0.016l-0.286,-0.014l-0.286,-0.014l-0.286,-0.012l-0.286,-0.011l-0.286,-0.01l-0.285,-0.009l-0.286,-0.007l-0.285,-0.007l-0.285,-0.005l-0.285,-0.004l-0.285,-0.003l-0.284,-0.002l-0.285,0l-0.284,0l-0.284,0.002l-0.283,0.003l-0.284,0.004l-0.283,0.005l-0.283,0.007l-0.283,0.007l-0.283,0.009l-0.282,0.01l-0.282,0.011l-0.282,0.012l-0.282,0.013l-0.282,0.015l-0.281,0.016l-0.281,0.016l-0.281,0.018l-0.28,0.02l-0.28,0.02l-0.28,0.021l-0.28,0.023l-0.279,0.024l-0.279,0.025l-0.084,0.007l-0.195,0.018l-0.279,0.026l-0.279,0.027l-0.278,0.028l-0.278,0.029l-0.277,0.03l-0.277,0.032l-0.277,0.033l-0.277,0.034l-0.277,0.035l-0.276,0.036l-0.276,0.037l-0.275,0.039l-0.275,0.039l-0.275,0.041l-0.275,0.042l-0.274,0.043l-0.274,0.044l-0.273,0.045l-0.274,0.047l-0.273,0.047l-0.272,0.049l-0.272,0.05l-0.272,0.051l-0.272,0.052l-0.271,0.053l-0.271,0.055l-0.27,0.055l-0.27,0.057l-0.27,0.058l-0.269,0.058l-0.269,0.06l-0.269,0.062l-0.268,0.062l-0.268,0.063l-0.267,0.065l-0.267,0.066l-0.267,0.067l-0.266,0.067l-0.266,0.07l-0.265,0.07l-0.265,0.071l-0.265,0.073l-0.166,0.046l-0.098,0.026l-0.265,0.071l-0.264,0.073l-0.264,0.074l-0.263,0.075l-0.263,0.076l-0.263,0.077l-0.262,0.078l-0.262,0.08l-0.261,0.08l-0.261,0.082l-0.26,0.083l-0.26,0.084l-0.26,0.085l-0.259,0.086l-0.259,0.087l-0.258,0.088l-0.258,0.09l-0.257,0.091l-0.257,0.091l-0.256,0.093l-0.256,0.094l-0.256,0.096l-0.255,0.096l-0.254,0.097l-0.254,0.099l-0.254,0.099l-0.043,0.017l-0.21,0.083l-0.253,0.1l-0.253,0.102l-0.252,0.103l-0.252,0.103l-0.251,0.105l-0.251,0.106l-0.25,0.108l-0.25,0.108l-0.249,0.109l-0.248,0.111l-0.249,0.112l-0.247,0.112l-0.247,0.114l-0.247,0.115l-0.246,0.116l-0.245,0.118l-0.245,0.118l-0.245,0.12l-0.244,0.12l-0.243,0.122l-0.243,0.123l-0.242,0.124l-0.242,0.125l-0.241,0.126l-0.241,0.127l-0.24,0.129l-0.239,0.129l-0.239,0.131l-0.239,0.132l-0.238,0.132l-0.237,0.134l-0.236,0.135l-0.236,0.137l-0.236,0.137l-0.235,0.138l-0.234,0.14l-0.213,0.128l-0.02,0.012l-0.234,0.141l-0.233,0.143l-0.232,0.143l-0.231,0.144l-0.231,0.146l-0.231,0.146l-0.23,0.148l-0.229,0.149l-0.228,0.15l-0.228,0.151l-0.227,0.152l-0.227,0.153l-0.226,0.155l-0.225,0.155l-0.225,0.157l-0.224,0.158l-0.223,0.159l-0.223,0.16l-0.222,0.161l-0.221,0.162l-0.221,0.163l-0.22,0.164l-0.219,0.166l-0.219,0.166l-0.218,0.168l-0.217,0.169l-0.217,0.17l-0.216,0.171l-0.215,0.172l-0.215,0.173l-0.214,0.175l-0.213,0.175l-0.212,0.177l-0.212,0.177l-0.211,0.179l-0.21,0.18l-0.21,0.181l-0.19,0.166l-0.019,0.016l-0.208,0.182l-0.208,0.184l-0.208,0.185l-0.206,0.185l-0.206,0.187l-0.205,0.188l-0.205,0.189l-0.203,0.191l-0.203,0.191l-0.202,0.192l-0.202,0.194l-0.2,0.195l-0.2,0.195l-0.199,0.197l-0.198,0.198l-0.198,0.199l-0.197,0.201l-0.196,0.201l-0.195,0.202l-0.194,0.204l-0.194,0.205l-0.193,0.205l-0.192,0.207l-0.191,0.208l-0.19,0.209l-0.19,0.211l-0.189,0.211l-0.09,0.102l-0.098,0.11l-0.189,0.212l-0.188,0.213l-0.187,0.215l-0.186,0.215l-0.186,0.217l-0.184,0.218l-0.184,0.219l-0.183,0.22l-0.182,0.221l-0.181,0.223l-0.181,0.223l-0.179,0.225l-0.179,0.225l-0.178,0.227l-0.177,0.228l-0.176,0.229l-0.175,0.231l-0.175,0.231l-0.173,0.233l-0.173,0.233l-0.172,0.235l-0.171,0.236l-0.17,0.237l-0.169,0.238l-0.168,0.239l-0.167,0.241l-0.167,0.241l-0.165,0.243l-0.165,0.244l-0.164,0.244l-0.162,0.246l-0.162,0.248l-0.161,0.248l-0.16,0.249l-0.159,0.251l-0.159,0.252l-0.157,0.252l-0.156,0.254l-0.155,0.255l-0.155,0.257l-0.153,0.257l-0.153,0.258l-0.151,0.26l-0.151,0.261l-0.091,0.159l-0.059,0.102l-0.149,0.263l-0.149,0.263l-0.147,0.265l-0.147,0.266l-0.145,0.267l-0.145,0.269l-0.144,0.269l-0.142,0.27l-0.142,0.272l-0.14,0.273l-0.14,0.274l-0.138,0.275l-0.138,0.276l-0.137,0.277l-0.135,0.279l-0.135,0.279l-0.133,0.281l-0.132,0.282l-0.132,0.283l-0.13,0.284l-0.13,0.286l-0.128,0.286l-0.127,0.288l-0.126,0.288l-0.125,0.29l-0.124,0.291l-0.123,0.292l-0.122,0.294l-0.121,0.294l-0.12,0.296l-0.118,0.297l-0.118,0.297l-0.116,0.299l-0.116,0.301l-0.114,0.301l-0.113,0.302l-0.112,0.304l-0.111,0.305l-0.11,0.306l-0.109,0.307l-0.108,0.308l-0.106,0.309l-0.105,0.31l-0.105,0.312l-0.103,0.313l-0.102,0.314l-0.1,0.315l-0.1,0.316l-0.027,0.087l-0.072,0.23l-0.098,0.318l-0.096,0.32l-0.096,0.32l-0.094,0.322l-0.094,0.323l-0.092,0.324l-0.091,0.325l-0.089,0.326l-0.089,0.328l-0.087,0.329l-0.086,0.329l-0.085,0.331l-0.084,0.332l-0.082,0.333l-0.081,0.335l-0.08,0.335l-0.079,0.337l-0.078,0.338l-0.076,0.339l-0.075,0.34l-0.074,0.341l-0.073,0.342l-0.071,0.344l-0.07,0.345l-0.069,0.345l-0.068,0.347l-0.066,0.349l-0.066,0.349l-0.063,0.35l-0.063,0.352l-0.061,0.352l-0.06,0.354l-0.059,0.355l-0.057,0.356l-0.056,0.358l-0.055,0.358l-0.054,0.36l-0.052,0.361l-0.051,0.361l-0.049,0.363l-0.049,0.365l-0.047,0.365l-0.045,0.366l-0.045,0.368l-0.043,0.369l-0.041,0.37l-0.04,0.371l-0.039,0.372l-0.038,0.373l-0.036,0.375l-0.035,0.375l-0.033,0.377l-0.032,0.378l-0.031,0.379l-0.03,0.38l-0.027,0.381l-0.027,0.383l-0.025,0.383l-0.024,0.385l-0.022,0.386l-0.021,0.387l-0.02,0.388l-0.018,0.389l-0.017,0.391l-0.015,0.391l-0.014,0.393l-0.009,0.269l-0.004,0.125l-0.011,0.397l-2.467,-0.026l-0.003,-0.402l0,-0.128l-0.001,-0.276l0.001,-0.402l0.002,-0.401l0.003,-0.4l0.006,-0.4l0.006,-0.398l0.008,-0.397l0.009,-0.396l0.011,-0.395l0.013,-0.395l0.014,-0.393l0.015,-0.392l0.017,-0.391l0.018,-0.39l0.02,-0.389l0.021,-0.388l0.023,-0.387l0.024,-0.386l0.025,-0.385l0.027,-0.384l0.028,-0.383l0.03,-0.382l0.031,-0.381l0.033,-0.38l0.034,-0.378l0.036,-0.378l0.037,-0.377l0.038,-0.376l0.04,-0.375l0.041,-0.373l0.042,-0.373l0.044,-0.372l0.046,-0.37l0.046,-0.37l0.048,-0.368l0.05,-0.368l0.051,-0.367l0.052,-0.365l0.054,-0.364l0.055,-0.364l0.056,-0.362l0.058,-0.362l0.059,-0.36l0.06,-0.359l0.062,-0.358l0.063,-0.358l0.065,-0.356l0.065,-0.355l0.068,-0.354l0.068,-0.353l0.07,-0.352l0.071,-0.351l0.073,-0.35l0.073,-0.349l0.076,-0.348l0.076,-0.347l0.078,-0.345l0.079,-0.345l0.08,-0.344l0.082,-0.343l0.083,-0.341l0.084,-0.341l0.086,-0.339l0.087,-0.339l0.088,-0.337l0.089,-0.336l0.091,-0.336l0.067,-0.242l0.025,-0.092l0.094,-0.333l0.095,-0.332l0.097,-0.331l0.097,-0.33l0.099,-0.329l0.1,-0.327l0.102,-0.327l0.102,-0.326l0.104,-0.324l0.105,-0.324l0.107,-0.322l0.107,-0.322l0.109,-0.32l0.11,-0.319l0.112,-0.318l0.112,-0.318l0.114,-0.316l0.115,-0.315l0.116,-0.314l0.117,-0.312l0.119,-0.312l0.119,-0.311l0.121,-0.31l0.122,-0.308l0.124,-0.308l0.124,-0.306l0.126,-0.305l0.127,-0.305l0.128,-0.303l0.129,-0.302l0.13,-0.301l0.132,-0.3l0.133,-0.299l0.133,-0.298l0.135,-0.296l0.137,-0.296l0.137,-0.295l0.138,-0.293l0.14,-0.292l0.14,-0.292l0.142,-0.29l0.143,-0.289l0.144,-0.288l0.145,-0.287l0.147,-0.286l0.147,-0.285l0.149,-0.283l0.149,-0.283l0.059,-0.11l0.093,-0.171l0.152,-0.28l0.154,-0.279l0.155,-0.278l0.156,-0.276l0.157,-0.276l0.158,-0.274l0.159,-0.274l0.16,-0.272l0.161,-0.271l0.163,-0.27l0.163,-0.269l0.165,-0.268l0.165,-0.266l0.167,-0.266l0.167,-0.264l0.169,-0.263l0.169,-0.263l0.171,-0.261l0.172,-0.26l0.173,-0.259l0.173,-0.257l0.175,-0.257l0.176,-0.255l0.177,-0.255l0.177,-0.253l0.179,-0.252l0.18,-0.251l0.181,-0.25l0.181,-0.249l0.183,-0.247l0.184,-0.247l0.185,-0.245l0.185,-0.245l0.187,-0.243l0.187,-0.242l0.189,-0.241l0.19,-0.239l0.19,-0.239l0.191,-0.237l0.193,-0.237l0.193,-0.235l0.194,-0.234l0.196,-0.233l0.196,-0.232l0.102,-0.119l0.096,-0.111l0.199,-0.228l0.2,-0.227l0.202,-0.226l0.202,-0.225l0.203,-0.223l0.204,-0.223l0.205,-0.221l0.205,-0.22l0.207,-0.219l0.208,-0.218l0.208,-0.216l0.209,-0.216l0.21,-0.214l0.211,-0.213l0.212,-0.212l0.213,-0.211l0.213,-0.21l0.214,-0.208l0.216,-0.208l0.216,-0.206l0.216,-0.205l0.218,-0.204l0.219,-0.202l0.219,-0.202l0.22,-0.2l0.221,-0.199l0.222,-0.198l0.02,-0.018l0.203,-0.179l0.224,-0.194l0.224,-0.194l0.226,-0.193l0.226,-0.191l0.227,-0.19l0.228,-0.189l0.229,-0.188l0.229,-0.187l0.231,-0.185l0.23,-0.185l0.232,-0.183l0.232,-0.182l0.234,-0.18l0.234,-0.18l0.234,-0.178l0.236,-0.178l0.236,-0.176l0.236,-0.174l0.238,-0.174l0.238,-0.173l0.239,-0.171l0.24,-0.17l0.24,-0.169l0.241,-0.168l0.242,-0.166l0.242,-0.165l0.244,-0.165l0.243,-0.162l0.245,-0.162l0.245,-0.161l0.246,-0.159l0.246,-0.158l0.247,-0.157l0.248,-0.156l0.249,-0.155l0.249,-0.153l0.25,-0.152l0.021,-0.013l0.229,-0.138l0.252,-0.149l0.252,-0.148l0.253,-0.147l0.253,-0.145l0.254,-0.145l0.254,-0.143l0.256,-0.142l0.255,-0.141l0.257,-0.139l0.257,-0.139l0.257,-0.137l0.258,-0.136l0.259,-0.135l0.259,-0.133l0.26,-0.132l0.26,-0.132l0.261,-0.13l0.262,-0.128l0.262,-0.128l0.263,-0.126l0.263,-0.125l0.264,-0.124l0.264,-0.123l0.265,-0.122l0.265,-0.12l0.266,-0.119l0.267,-0.118l0.267,-0.117l0.267,-0.115l0.268,-0.114l0.269,-0.113l0.269,-0.112l0.269,-0.111l0.27,-0.109l0.271,-0.109l0.271,-0.107l0.225,-0.087l0.046,-0.018l0.273,-0.103l0.273,-0.102l0.273,-0.101l0.274,-0.1l0.275,-0.098l0.274,-0.097l0.276,-0.096l0.275,-0.095l0.277,-0.093l0.276,-0.093l0.277,-0.091l0.278,-0.09l0.277,-0.088l0.279,-0.088l0.278,-0.086l0.28,-0.085l0.279,-0.083l0.28,-0.083l0.28,-0.081l0.281,-0.08l0.281,-0.079l0.282,-0.078l0.282,-0.076l0.282,-0.076l0.282,-0.074l0.283,-0.072l0.105,-0.027l0.179,-0.043l0.285,-0.067l0.285,-0.066l0.285,-0.065l0.285,-0.063l0.286,-0.062l0.286,-0.061l0.287,-0.06l0.287,-0.059l0.287,-0.057l0.287,-0.056l0.288,-0.055l0.288,-0.053l0.288,-0.053l0.289,-0.051l0.289,-0.05l0.289,-0.049l0.289,-0.047l0.29,-0.046l0.29,-0.045l0.29,-0.044l0.29,-0.043l0.291,-0.041l0.291,-0.04l0.291,-0.039l0.292,-0.038l0.292,-0.036l0.292,-0.035l0.292,-0.034l0.292,-0.033l0.293,-0.032l0.293,-0.03l0.293,-0.029l0.293,-0.028l0.293,-0.027l0.294,-0.025l0.294,-0.024l0.294,-0.023l0.294,-0.022l0.295,-0.02l0.294,-0.019l0.295,-0.018l0.295,-0.017l0.207,-0.011l0.089,-0.004l0.295,-0.013l0.296,-0.012l0.295,-0.01l0.296,-0.01l0.296,-0.008l0.297,-0.007l0.296,-0.005l0.296,-0.004l0.297,-0.003l0.297,-0.002l0.297,-0.001l0.297,0.001Z" style="fill:#ffba5e;"/><path d="M212.462,6.35l-0.069,0.058l-0.064,0.056l-0.065,0.055l-0.064,0.056l-0.063,0.056l-0.063,0.056l-0.063,0.056l-0.062,0.056l-0.061,0.056l-0.062,0.057l-0.06,0.057l-0.06,0.056l-0.06,0.057l-0.06,0.057l-0.059,0.057l-0.058,0.058l-0.058,0.057l-0.058,0.058l-0.057,0.057l-0.056,0.058l-0.057,0.058l-0.055,0.058l-0.056,0.058l-0.054,0.058l-0.055,0.059l-0.054,0.058l-0.054,0.059l-0.053,0.058l-0.053,0.06l-0.052,0.059l-0.052,0.059l-0.052,0.059l-0.051,0.059l-0.05,0.06l-0.051,0.059l-0.049,0.06l-0.05,0.06l-0.049,0.06l-0.049,0.06l-0.048,0.061l-0.048,0.06l-0.047,0.06l-0.047,0.061l-0.047,0.061l-0.046,0.061l-0.046,0.061l-0.045,0.061l-0.045,0.061l-0.045,0.062l-0.044,0.061l-0.044,0.062l-0.043,0.061l-0.043,0.062l-0.043,0.062l-0.042,0.063l-0.042,0.062l-0.042,0.062l-0.041,0.063l-0.041,0.062l-0.04,0.063l-0.04,0.063l-0.04,0.063l-0.039,0.063l-0.039,0.064l-0.038,0.063l-0.039,0.064l-0.037,0.063l-0.038,0.064l-0.037,0.064l-0.037,0.064l-0.036,0.064l-0.036,0.065l-0.036,0.064l-0.035,0.065l-0.035,0.065l-0.035,0.065l-0.034,0.065l-0.034,0.065l-0.033,0.065l-0.033,0.066l-0.033,0.065l-0.033,0.066l-0.032,0.066l-0.032,0.066l-0.031,0.066l-0.031,0.066l-0.031,0.066l-0.03,0.067l-0.031,0.067l-0.029,0.066l-0.03,0.067l-0.029,0.067l-0.029,0.068l-0.028,0.067l-0.028,0.067l-0.028,0.068l-0.027,0.068l-0.027,0.068l-0.027,0.068l-0.027,0.068l-0.026,0.068l-0.025,0.069l-0.026,0.069l-0.025,0.068l-0.025,0.069l-0.024,0.069l-0.025,0.069l-0.024,0.07l-0.023,0.069l-0.023,0.07l-0.023,0.069l-0.023,0.07l-0.022,0.07l-0.022,0.071l-0.022,0.07l-0.021,0.071l-0.021,0.07l-0.02,0.069l-0.041,0.144l-0.039,0.142l-0.039,0.144l-0.036,0.143l-0.036,0.145l-0.034,0.145l-0.034,0.145l-0.032,0.146l-0.03,0.147l-0.03,0.147l-0.028,0.148l-0.028,0.148l-0.026,0.149l-0.025,0.15l-0.023,0.15l-0.023,0.151l-0.022,0.151l-0.02,0.152l-0.019,0.152l-0.018,0.153l-0.017,0.154l-0.016,0.154l-0.015,0.154l-0.013,0.156l-0.013,0.156l-0.011,0.156l-0.01,0.157l-0.009,0.157l-0.009,0.158l-0.007,0.159l-0.006,0.159l-0.004,0.16l-0.004,0.16l-0.003,0.161l-0.002,0.161l0,0.162l0,0.162l0.001,0.163l0.003,0.163l0.003,0.164l0.005,0.164l0.005,0.165l0.006,0.166l0.008,0.166l0.008,0.166l0.01,0.167l0.01,0.167l0.011,0.168l0.013,0.168l0.013,0.169l0.014,0.169l0.015,0.17l0.017,0.17l0.017,0.171l0.018,0.171l0.019,0.171l0.019,0.172l0.021,0.173l0.022,0.173l0.022,0.173l0.023,0.173l0.025,0.175l0.025,0.174l0.026,0.175l0.027,0.175l0.027,0.176l0.029,0.176l0.029,0.177l0.03,0.177l0.031,0.177l0.032,0.178l0.033,0.178l0.033,0.178l0.034,0.179l0.035,0.179l0.036,0.18l0.037,0.18l0.037,0.18l0.038,0.181l0.039,0.181l0.039,0.181l0.041,0.181l0.04,0.182l0.042,0.183l0.043,0.182l0.043,0.183l0.043,0.183l0.045,0.184l0.045,0.183l0.046,0.185l0.046,0.184l0.047,0.185l0.048,0.185l0.048,0.185l0.049,0.185l0.05,0.186l0.05,0.186l0.051,0.187l0.051,0.186l0.052,0.187l0.053,0.187l0.053,0.187l0.054,0.188l0.054,0.188l0.055,0.188l0.055,0.188l0.056,0.189l0.057,0.188l0.057,0.189l0.057,0.19l0.058,0.189l0.058,0.189l0.059,0.19l0.06,0.19l0.059,0.19l0.061,0.191l0.06,0.19l0.123,0.382l0.125,0.382l0.126,0.383l0.127,0.384l0.129,0.384l0.131,0.385l0.132,0.385l0.133,0.386l0.134,0.387l0.136,0.386l0.137,0.388l0.137,0.387l0.139,0.388l0.14,0.388l0.14,0.389l0.141,0.389l0.142,0.389l0.142,0.389l0.143,0.39l0.144,0.39l0.288,0.78l0.289,0.78l0.58,1.56l0.289,0.78l0.288,0.779l0.144,0.39l0.143,0.389l0.143,0.389l0.142,0.389l0.141,0.388l0.141,0.388l0.14,0.388l0.138,0.386l-3.294,1.182l-0.137,-0.383l-0.138,-0.383l-0.139,-0.383l-0.14,-0.384l-0.141,-0.385l-0.141,-0.385l-0.142,-0.386l-0.143,-0.387l-0.287,-0.776l-0.288,-0.777l-0.58,-1.561l-0.291,-0.783l-0.289,-0.785l-0.145,-0.392l-0.144,-0.393l-0.144,-0.394l-0.143,-0.393l-0.143,-0.394l-0.142,-0.393l-0.142,-0.394l-0.141,-0.394l-0.14,-0.394l-0.139,-0.394l-0.138,-0.395l-0.137,-0.394l-0.136,-0.394l-0.135,-0.394l-0.134,-0.394l-0.132,-0.394l-0.131,-0.394l-0.13,-0.394l-0.128,-0.394l-0.126,-0.392l-0.063,-0.198l-0.062,-0.196l-0.062,-0.197l-0.062,-0.196l-0.061,-0.197l-0.06,-0.196l-0.06,-0.196l-0.06,-0.197l-0.059,-0.196l-0.058,-0.196l-0.058,-0.196l-0.058,-0.196l-0.057,-0.196l-0.057,-0.195l-0.056,-0.196l-0.055,-0.196l-0.055,-0.195l-0.055,-0.196l-0.053,-0.195l-0.054,-0.195l-0.052,-0.195l-0.052,-0.195l-0.052,-0.195l-0.051,-0.195l-0.05,-0.195l-0.05,-0.194l-0.049,-0.195l-0.048,-0.194l-0.048,-0.194l-0.047,-0.194l-0.046,-0.194l-0.046,-0.194l-0.044,-0.194l-0.045,-0.193l-0.043,-0.194l-0.043,-0.193l-0.042,-0.193l-0.042,-0.193l-0.04,-0.193l-0.04,-0.193l-0.039,-0.192l-0.038,-0.193l-0.038,-0.192l-0.037,-0.192l-0.036,-0.192l-0.035,-0.192l-0.034,-0.191l-0.034,-0.192l-0.032,-0.191l-0.032,-0.191l-0.031,-0.191l-0.03,-0.191l-0.029,-0.19l-0.028,-0.19l-0.028,-0.191l-0.026,-0.19l-0.026,-0.19l-0.024,-0.189l-0.024,-0.19l-0.023,-0.189l-0.021,-0.189l-0.021,-0.189l-0.02,-0.189l-0.019,-0.188l-0.018,-0.188l-0.017,-0.188l-0.015,-0.188l-0.015,-0.188l-0.014,-0.187l-0.013,-0.187l-0.011,-0.187l-0.011,-0.187l-0.009,-0.187l-0.009,-0.186l-0.007,-0.186l-0.006,-0.186l-0.005,-0.185l-0.004,-0.185l-0.003,-0.186l-0.001,-0.184l-0.001,-0.185l0.001,-0.184l0.002,-0.184l0.003,-0.184l0.005,-0.184l0.005,-0.183l0.007,-0.183l0.008,-0.183l0.01,-0.182l0.01,-0.183l0.012,-0.182l0.014,-0.181l0.014,-0.182l0.016,-0.181l0.017,-0.18l0.019,-0.181l0.019,-0.18l0.022,-0.18l0.022,-0.179l0.024,-0.179l0.026,-0.179l0.026,-0.179l0.029,-0.178l0.029,-0.178l0.031,-0.177l0.033,-0.177l0.034,-0.177l0.035,-0.176l0.037,-0.176l0.039,-0.176l0.04,-0.175l0.041,-0.175l0.043,-0.174l0.045,-0.174l0.046,-0.174l0.048,-0.173l0.048,-0.171l0.026,-0.088l0.026,-0.086l0.026,-0.086l0.026,-0.086l0.027,-0.086l0.027,-0.085l0.028,-0.086l0.028,-0.085l0.029,-0.086l0.028,-0.085l0.03,-0.085l0.029,-0.085l0.03,-0.084l0.031,-0.085l0.031,-0.085l0.031,-0.084l0.032,-0.084l0.032,-0.085l0.033,-0.084l0.033,-0.084l0.033,-0.083l0.034,-0.084l0.034,-0.083l0.035,-0.084l0.035,-0.083l0.036,-0.083l0.036,-0.083l0.036,-0.083l0.037,-0.083l0.037,-0.082l0.038,-0.083l0.038,-0.082l0.039,-0.082l0.039,-0.082l0.039,-0.082l0.04,-0.081l0.04,-0.083l0.041,-0.081l0.041,-0.081l0.042,-0.081l0.042,-0.081l0.043,-0.081l0.043,-0.08l0.043,-0.081l0.044,-0.08l0.044,-0.08l0.045,-0.08l0.045,-0.08l0.046,-0.08l0.046,-0.079l0.046,-0.08l0.047,-0.079l0.048,-0.079l0.048,-0.079l0.048,-0.078l0.049,-0.079l0.049,-0.078l0.05,-0.078l0.05,-0.078l0.051,-0.078l0.051,-0.078l0.051,-0.077l0.052,-0.077l0.053,-0.077l0.053,-0.077l0.053,-0.077l0.054,-0.076l0.054,-0.077l0.055,-0.076l0.055,-0.076l0.056,-0.076l0.056,-0.075l0.057,-0.076l0.057,-0.075l0.057,-0.075l0.058,-0.075l0.059,-0.075l0.059,-0.074l0.059,-0.074l0.06,-0.074l0.06,-0.074l0.061,-0.074l0.061,-0.073l0.062,-0.074l0.062,-0.073l0.063,-0.073l0.063,-0.072l0.064,-0.073l0.064,-0.072l0.064,-0.072l0.065,-0.072l0.066,-0.072l0.066,-0.071l0.066,-0.071l0.067,-0.071l0.068,-0.071l0.068,-0.07l0.068,-0.071l0.069,-0.07l0.069,-0.07l0.07,-0.07l0.07,-0.069l0.071,-0.069l0.071,-0.07l0.072,-0.068l0.072,-0.069l0.073,-0.069l0.073,-0.068l0.073,-0.068l0.075,-0.068l0.074,-0.067l0.075,-0.068l0.076,-0.067l0.076,-0.067l0.076,-0.066l0.077,-0.067l0.078,-0.066l0.075,-0.064l2.262,2.671Z" style="fill:#ffba5e;"/><path d="M84.427,17.888l0.05,0.231l0.049,0.232l0.048,0.231l0.047,0.232l0.046,0.233l0.045,0.233l0.044,0.233l0.043,0.233l0.042,0.234l0.041,0.234l0.04,0.234l0.039,0.234l0.038,0.235l0.038,0.236l0.036,0.235l0.035,0.236l0.035,0.236l0.033,0.236l0.033,0.237l0.032,0.237l0.03,0.237l0.03,0.237l0.029,0.238l0.028,0.238l0.027,0.238l0.026,0.239l0.025,0.239l0.025,0.239l0.023,0.239l0.023,0.239l0.022,0.24l0.02,0.24l0.02,0.24l0.019,0.241l0.019,0.241l0.017,0.24l0.016,0.242l0.016,0.241l0.015,0.242l0.014,0.241l0.013,0.242l0.012,0.243l0.011,0.242l0.011,0.243l0.01,0.243l0.009,0.243l0.008,0.243l0.007,0.243l0.006,0.244l0.006,0.244l0.005,0.244l0.004,0.244l0.003,0.244l0.002,0.245l0.002,0.244l0.001,0.245l0,0.245l-0.001,0.245l-0.002,0.245l-0.002,0.246l-0.003,0.246l-0.004,0.245l-0.005,0.246l-0.005,0.246l-0.006,0.246l-0.007,0.247l-0.008,0.246l-0.008,0.247l-0.009,0.247l-0.01,0.246l-0.011,0.247l-0.011,0.247l-0.012,0.248l-0.013,0.247l-0.013,0.247l-0.015,0.248l-0.015,0.247l-0.015,0.248l-0.017,0.248l-0.017,0.248l-0.017,0.248l-0.019,0.248l-0.019,0.248l-0.02,0.248l-0.02,0.249l-0.022,0.248l-0.022,0.248l-0.022,0.249l-0.023,0.249l-0.024,0.248l-0.025,0.249l-0.025,0.249l-0.026,0.249l-0.027,0.248l-0.027,0.249l-0.028,0.249l-0.028,0.249l-0.029,0.249l-0.03,0.249l-0.03,0.25l-0.031,0.249l-0.032,0.249l-0.032,0.249l-0.033,0.249l-0.034,0.25l-0.034,0.249l-0.034,0.249l-0.036,0.25l-0.035,0.249l-0.037,0.249l-0.037,0.249l-0.038,0.25l-0.038,0.249l-0.039,0.249l-0.039,0.25l-0.04,0.249l-0.041,0.249l-0.041,0.249l-0.042,0.25l-0.042,0.249l-0.043,0.249l-0.043,0.249l-0.044,0.249l-0.045,0.249l-0.045,0.249l-0.045,0.249l-0.046,0.249l-0.047,0.249l-0.047,0.248l-0.048,0.249l-0.048,0.249l-0.049,0.248l-0.049,0.249l-0.05,0.248l-0.05,0.249l-0.051,0.248l-0.051,0.248l-0.052,0.249l-0.052,0.248l-0.053,0.248l-0.053,0.248l-0.054,0.247l-0.054,0.248l-0.055,0.248l-0.055,0.247l-0.055,0.248l-0.057,0.247l-0.056,0.247l-0.057,0.247l-0.058,0.247l-0.058,0.247l-0.058,0.247l-0.059,0.246l-0.059,0.247l-0.06,0.246l-0.06,0.246l-0.06,0.246l-0.061,0.246l-0.062,0.246l-0.062,0.245l-0.062,0.246l-0.063,0.245l-0.063,0.245l-0.063,0.245l-0.064,0.245l-0.065,0.245l-0.064,0.244l-0.065,0.245l-0.066,0.244l-0.066,0.244l-0.066,0.244l-0.067,0.243l-0.067,0.243l-0.067,0.244l-0.068,0.243l-0.068,0.243l-0.069,0.242l-0.068,0.243l-0.07,0.242l-0.069,0.242l-0.07,0.242l-0.07,0.241l-0.071,0.242l-0.071,0.241l-0.071,0.241l-0.072,0.24l-0.072,0.241l-0.145,0.48l-0.146,0.479l-0.148,0.478l-0.148,0.478l-0.15,0.476l-0.151,0.475l-0.152,0.474l-0.154,0.473l-0.154,0.472l-0.155,0.471l-0.157,0.469l-0.157,0.468l-0.159,0.467l-0.159,0.466l-0.161,0.465l-0.161,0.463l-0.162,0.462l-0.163,0.46l-0.164,0.459l-0.164,0.458l-0.165,0.456l-0.167,0.455l-0.166,0.454l-0.168,0.452l-0.168,0.45l-0.169,0.449l-0.169,0.447l-0.17,0.446l-0.17,0.444l-0.171,0.442l-0.172,0.441l-0.172,0.439l-0.172,0.437l-0.173,0.435l-0.173,0.434l-0.173,0.432l-0.174,0.43l-0.174,0.428l-0.175,0.426l-0.174,0.425l-0.175,0.422l-0.175,0.421l-0.175,0.419l-0.176,0.416l-0.175,0.415l-0.176,0.412l-0.176,0.411l-0.175,0.408l-0.176,0.406l-0.176,0.404l-0.175,0.402l-0.176,0.4l-0.175,0.397l-0.175,0.395l-0.175,0.393l-0.175,0.391l-0.175,0.388l-0.175,0.386l-0.174,0.384l-0.174,0.381l-0.173,0.379l-0.174,0.376l-0.173,0.374l-0.172,0.371l-0.172,0.369l-0.172,0.366l-0.171,0.363l-0.17,0.361l-0.171,0.359l-0.169,0.356l-0.169,0.353l-0.168,0.35l-0.168,0.348l-0.167,0.345l-0.166,0.342l-0.166,0.339l-0.165,0.336l-0.164,0.334l-0.163,0.331l-0.162,0.328l-0.162,0.325l-0.161,0.321l-0.159,0.319l-0.159,0.316l-0.158,0.313l-0.157,0.31l-0.156,0.307l-0.154,0.304l-0.154,0.3l-0.153,0.298l-0.151,0.294l-0.151,0.291l-0.149,0.288l-0.148,0.284l-0.146,0.281l-0.146,0.278l-0.144,0.275l-0.143,0.271l-0.141,0.268l-0.14,0.265l-0.276,0.518l-0.27,0.505l-0.264,0.49l-0.258,0.476l-0.252,0.462l-0.244,0.447l-0.238,0.431l-0.231,0.417l-0.223,0.402l-0.216,0.385l-0.208,0.371l-0.2,0.354l-0.192,0.338l-0.184,0.321l-0.086,0.151l0.116,0.001l0.614,0.007l0.612,0.005l0.608,0.004l0.607,0.003l0.603,0.002l0.601,0.001l0.599,-0.001l0.596,-0.002l0.593,-0.003l0.591,-0.004l0.589,-0.005l0.586,-0.007l0.583,-0.007l0.581,-0.009l0.578,-0.01l0.576,-0.011l0.574,-0.012l0.57,-0.014l0.569,-0.014l0.566,-0.016l0.564,-0.017l0.561,-0.018l0.559,-0.019l0.556,-0.02l0.554,-0.021l0.551,-0.023l0.549,-0.023l0.547,-0.025l0.545,-0.025l0.541,-0.027l0.54,-0.028l0.537,-0.029l0.535,-0.03l0.533,-0.032l0.53,-0.032l0.528,-0.033l0.526,-0.035l0.523,-0.035l0.521,-0.037l0.519,-0.038l0.517,-0.038l0.514,-0.04l0.512,-0.041l0.51,-0.042l0.507,-0.043l0.505,-0.044l0.503,-0.045l0.501,-0.046l0.499,-0.047l0.496,-0.049l0.494,-0.049l0.492,-0.05l0.49,-0.051l0.488,-0.053l0.486,-0.053l0.483,-0.054l0.481,-0.056l0.479,-0.056l0.477,-0.058l0.475,-0.058l0.473,-0.059l0.471,-0.061l0.468,-0.061l0.467,-0.062l0.464,-0.064l0.463,-0.064l0.46,-0.065l0.458,-0.067l0.457,-0.067l0.454,-0.068l0.452,-0.069l0.45,-0.07l0.448,-0.072l0.447,-0.072l0.444,-0.073l0.442,-0.074l0.44,-0.074l0.439,-0.076l0.436,-0.077l0.434,-0.078l0.433,-0.078l0.43,-0.08l0.429,-0.081l0.427,-0.081l0.424,-0.082l0.423,-0.084l0.421,-0.084l0.42,-0.085l0.417,-0.086l0.415,-0.087l0.414,-0.088l0.412,-0.088l0.409,-0.09l0.408,-0.09l0.407,-0.092l0.404,-0.092l0.403,-0.093l0.401,-0.094l0.399,-0.095l0.397,-0.096l0.396,-0.096l0.393,-0.098l0.392,-0.098l0.391,-0.099l0.388,-0.1l0.387,-0.101l0.385,-0.102l0.384,-0.102l0.382,-0.104l0.38,-0.104l0.378,-0.105l0.377,-0.106l0.375,-0.106l0.373,-0.108l0.372,-0.108l0.37,-0.109l0.369,-0.11l0.367,-0.111l0.365,-0.112l0.364,-0.112l0.362,-0.113l0.36,-0.114l0.359,-0.115l0.358,-0.116l0.355,-0.116l0.355,-0.117l0.353,-0.118l0.351,-0.119l0.35,-0.12l0.348,-0.12l0.347,-0.121l0.345,-0.122l0.343,-0.122l0.343,-0.123l0.341,-0.125l0.339,-0.124l0.338,-0.126l0.336,-0.126l0.335,-0.127l0.334,-0.128l0.332,-0.129l0.331,-0.129l0.329,-0.13l0.328,-0.131l0.327,-0.131l0.325,-0.132l0.324,-0.133l0.323,-0.134l0.321,-0.134l0.32,-0.135l0.318,-0.136l0.317,-0.136l0.316,-0.137l0.315,-0.138l0.313,-0.139l0.312,-0.139l0.311,-0.14l0.31,-0.141l0.308,-0.141l0.307,-0.142l0.306,-0.142l0.305,-0.144l0.303,-0.144l0.302,-0.144l0.301,-0.146l0.3,-0.146l0.298,-0.146l0.298,-0.148l0.296,-0.148l0.295,-0.148l0.294,-0.149l0.293,-0.15l0.292,-0.151l0.29,-0.151l0.29,-0.152l0.288,-0.152l0.287,-0.153l0.286,-0.154l0.286,-0.154l0.284,-0.155l0.283,-0.156l0.282,-0.156l0.28,-0.157l0.28,-0.157l0.279,-0.158l0.278,-0.159l0.277,-0.159l0.276,-0.16l0.274,-0.16l0.274,-0.161l0.273,-0.162l0.272,-0.162l0.271,-0.163l0.27,-0.163l0.269,-0.164l0.268,-0.165l0.268,-0.165l0.266,-0.166l0.265,-0.166l0.265,-0.167l0.264,-0.167l0.262,-0.168l0.262,-0.168l0.261,-0.169l0.261,-0.17l0.259,-0.17l0.259,-0.171l0.257,-0.171l0.257,-0.172l0.256,-0.172l0.256,-0.173l0.254,-0.173l0.254,-0.174l0.253,-0.175l0.252,-0.175l0.252,-0.175l0.25,-0.176l0.25,-0.177l0.25,-0.177l0.248,-0.177l0.248,-0.178l0.247,-0.179l0.247,-0.179l0.245,-0.18l0.245,-0.18l0.245,-0.18l0.244,-0.181l0.243,-0.182l0.242,-0.182l0.242,-0.183l0.241,-0.183l0.241,-0.183l0.24,-0.184l0.239,-0.184l0.239,-0.185l0.238,-0.186l0.238,-0.185l0.237,-0.187l0.237,-0.187l0.236,-0.187l0.235,-0.187l0.235,-0.189l0.234,-0.188l0.234,-0.189l0.234,-0.19l0.232,-0.189l0.233,-0.191l0.232,-0.191l0.231,-0.191l0.231,-0.191l0.231,-0.192l0.23,-0.193l0.229,-0.193l0.23,-0.193l0.228,-0.194l0.229,-0.194l0.228,-0.195l0.227,-0.195l0.228,-0.195l0.226,-0.196l0.227,-0.196l0.226,-0.196l0.226,-0.197l0.225,-0.198l0.225,-0.197l0.225,-0.198l0.224,-0.199l0.224,-0.199l0.224,-0.199l0.223,-0.199l0.224,-0.2l0.223,-0.201l0.222,-0.2l0.223,-0.201l0.222,-0.202l0.222,-0.202l0.221,-0.202l0.222,-0.202l0.221,-0.203l0.221,-0.203l0.221,-0.203l0.22,-0.204l0.22,-0.204l0.441,-0.41l0.44,-0.41l0.439,-0.412l0.438,-0.413l0.438,-0.414l0.438,-0.416l0.437,-0.416l0.438,-0.418l0.437,-0.419l0.436,-0.42l0.437,-0.421l0.437,-0.422l0.437,-0.423l0.437,-0.424l0.437,-0.425l0.438,-0.426l0.876,-0.855l0.878,-0.858l1.765,-1.726l0.887,-0.867l0.891,-0.87l0.447,-0.436l0.449,-0.436l0.45,-0.437l0.451,-0.438l0.453,-0.438l0.454,-0.438l0.455,-0.439l0.457,-0.439l0.459,-0.44l0.461,-0.44l0.462,-0.44l0.465,-0.441l0.466,-0.441l0.468,-0.441l0.471,-0.442l0.472,-0.441l0.475,-0.442l0.477,-0.441l0.24,-0.222l0.24,-0.221l0.24,-0.221l0.241,-0.221l0.242,-0.221l0.243,-0.221l0.243,-0.221l0.244,-0.221l0.244,-0.221l0.245,-0.221l0.246,-0.221l0.246,-0.221l0.247,-0.221l0.248,-0.222l0.248,-0.221l0.25,-0.221l0.25,-0.22l0.25,-0.221l0.252,-0.221l0.252,-0.221l0.253,-0.221l0.253,-0.221l0.255,-0.22l0.255,-0.221l0.256,-0.221l0.257,-0.22l0.257,-0.221l0.259,-0.22l0.259,-0.22l0.26,-0.221l0.261,-0.22l0.261,-0.22l0.263,-0.22l0.263,-0.22l0.265,-0.22l0.265,-0.22l0.266,-0.219l0.267,-0.22l0.268,-0.219l0.268,-0.22l0.27,-0.219l0.271,-0.219l0.271,-0.219l0.273,-0.219l0.273,-0.219l0.275,-0.218l0.275,-0.219l0.276,-0.218l0.278,-0.218l0.278,-0.218l0.279,-0.218l0.281,-0.218l0.281,-0.217l0.282,-0.218l0.284,-0.217l0.284,-0.217l0.286,-0.217l0.286,-0.217l0.288,-0.217l0.288,-0.216l0.29,-0.216l0.291,-0.216l0.292,-0.216l0.293,-0.216l0.294,-0.215l0.296,-0.215l0.296,-0.215l0.298,-0.215l0.298,-0.215l0.3,-0.214l0.301,-0.215l0.302,-0.214l0.304,-0.213l0.304,-0.214l0.306,-0.213l0.307,-0.213l0.308,-0.213l0.31,-0.213l0.311,-0.212l0.311,-0.212l0.314,-0.212l0.314,-0.211l0.316,-0.212l0.317,-0.211l0.318,-0.21l0.319,-0.211l0.321,-0.21l0.322,-0.21l0.324,-0.21l0.324,-0.209l0.326,-0.209l0.328,-0.209l0.328,-0.209l0.331,-0.208l0.331,-0.208l0.333,-0.207l0.334,-0.208l0.336,-0.207l0.337,-0.206l0.338,-0.207l0.34,-0.206l0.341,-0.205l0.343,-0.206l0.344,-0.205l0.345,-0.204l0.347,-0.205l0.348,-0.204l0.35,-0.203l0.352,-0.204l0.353,-0.203l0.354,-0.202l0.356,-0.202l0.357,-0.202l0.359,-0.202l0.36,-0.201l0.362,-0.201l0.364,-0.2l0.365,-0.2l0.366,-0.2l0.368,-0.199l0.37,-0.199l0.371,-0.198l0.373,-0.198l0.374,-0.198l0.376,-0.197l0.378,-0.197l0.379,-0.196l0.381,-0.196l0.383,-0.196l0.384,-0.195l0.386,-0.195l0.385,-0.193l1.569,3.128l-0.381,0.192l-0.378,0.19l-0.376,0.191l-0.374,0.192l-0.373,0.192l-0.371,0.192l-0.37,0.192l-0.368,0.193l-0.366,0.194l-0.365,0.194l-0.363,0.194l-0.362,0.194l-0.36,0.195l-0.359,0.195l-0.357,0.196l-0.355,0.196l-0.354,0.196l-0.352,0.197l-0.351,0.197l-0.35,0.198l-0.348,0.197l-0.346,0.199l-0.345,0.198l-0.344,0.199l-0.342,0.199l-0.341,0.199l-0.339,0.2l-0.338,0.2l-0.336,0.201l-0.335,0.201l-0.333,0.201l-0.333,0.201l-0.33,0.202l-0.33,0.202l-0.328,0.202l-0.327,0.203l-0.325,0.203l-0.324,0.203l-0.323,0.203l-0.321,0.204l-0.32,0.204l-0.319,0.205l-0.317,0.204l-0.316,0.205l-0.315,0.206l-0.314,0.205l-0.312,0.206l-0.311,0.206l-0.31,0.206l-0.309,0.207l-0.307,0.207l-0.306,0.207l-0.305,0.207l-0.304,0.208l-0.302,0.208l-0.302,0.208l-0.3,0.208l-0.299,0.208l-0.298,0.209l-0.296,0.209l-0.296,0.21l-0.294,0.209l-0.294,0.21l-0.292,0.21l-0.291,0.21l-0.29,0.21l-0.289,0.211l-0.288,0.211l-0.286,0.211l-0.286,0.211l-0.285,0.211l-0.283,0.212l-0.283,0.212l-0.281,0.212l-0.281,0.212l-0.279,0.212l-0.279,0.213l-0.277,0.212l-0.277,0.213l-0.275,0.214l-0.275,0.213l-0.273,0.213l-0.273,0.214l-0.272,0.214l-0.27,0.213l-0.27,0.215l-0.269,0.214l-0.268,0.214l-0.267,0.215l-0.266,0.214l-0.266,0.215l-0.264,0.215l-0.264,0.215l-0.262,0.215l-0.262,0.216l-0.261,0.215l-0.261,0.216l-0.259,0.216l-0.258,0.216l-0.258,0.216l-0.257,0.216l-0.256,0.216l-0.256,0.216l-0.254,0.217l-0.254,0.216l-0.253,0.217l-0.252,0.216l-0.252,0.217l-0.251,0.217l-0.25,0.217l-0.249,0.217l-0.249,0.217l-0.248,0.218l-0.247,0.217l-0.247,0.217l-0.246,0.218l-0.245,0.217l-0.245,0.218l-0.244,0.218l-0.243,0.217l-0.243,0.218l-0.242,0.218l-0.242,0.218l-0.241,0.218l-0.24,0.218l-0.24,0.218l-0.239,0.218l-0.238,0.218l-0.239,0.218l-0.237,0.218l-0.237,0.218l-0.236,0.218l-0.471,0.437l-0.47,0.437l-0.467,0.436l-0.465,0.437l-0.464,0.436l-0.461,0.437l-0.46,0.436l-0.458,0.437l-0.457,0.436l-0.455,0.436l-0.454,0.436l-0.453,0.436l-0.451,0.436l-0.45,0.435l-0.449,0.435l-0.447,0.435l-0.447,0.435l-0.445,0.434l-0.889,0.868l-0.886,0.865l-1.765,1.726l-0.88,0.86l-0.879,0.857l-0.439,0.428l-0.439,0.427l-0.44,0.427l-0.44,0.426l-0.439,0.424l-0.44,0.425l-0.441,0.423l-0.44,0.422l-0.442,0.422l-0.441,0.421l-0.443,0.419l-0.443,0.419l-0.443,0.418l-0.445,0.417l-0.445,0.416l-0.446,0.415l-0.224,0.207l-0.224,0.207l-0.224,0.206l-0.224,0.206l-0.225,0.206l-0.225,0.206l-0.225,0.205l-0.226,0.205l-0.225,0.205l-0.227,0.205l-0.226,0.204l-0.227,0.204l-0.227,0.203l-0.228,0.203l-0.228,0.203l-0.228,0.203l-0.229,0.202l-0.229,0.202l-0.229,0.202l-0.23,0.201l-0.231,0.201l-0.23,0.201l-0.232,0.2l-0.231,0.2l-0.232,0.199l-0.233,0.2l-0.233,0.199l-0.233,0.198l-0.234,0.198l-0.235,0.198l-0.235,0.197l-0.235,0.197l-0.236,0.197l-0.237,0.196l-0.237,0.196l-0.238,0.196l-0.238,0.195l-0.239,0.194l-0.239,0.195l-0.24,0.194l-0.24,0.193l-0.241,0.193l-0.242,0.193l-0.242,0.192l-0.243,0.192l-0.244,0.191l-0.244,0.191l-0.245,0.191l-0.245,0.19l-0.247,0.189l-0.246,0.19l-0.248,0.188l-0.248,0.189l-0.249,0.187l-0.25,0.188l-0.25,0.187l-0.251,0.186l-0.252,0.186l-0.252,0.186l-0.253,0.185l-0.254,0.184l-0.255,0.184l-0.256,0.184l-0.256,0.183l-0.257,0.183l-0.258,0.182l-0.258,0.181l-0.26,0.181l-0.26,0.181l-0.261,0.18l-0.262,0.179l-0.263,0.179l-0.264,0.179l-0.264,0.178l-0.266,0.177l-0.266,0.177l-0.267,0.177l-0.268,0.175l-0.269,0.176l-0.27,0.174l-0.271,0.175l-0.271,0.173l-0.273,0.173l-0.273,0.173l-0.275,0.172l-0.275,0.171l-0.277,0.171l-0.277,0.17l-0.279,0.17l-0.279,0.169l-0.28,0.168l-0.282,0.168l-0.282,0.167l-0.283,0.167l-0.285,0.166l-0.285,0.165l-0.287,0.165l-0.287,0.164l-0.289,0.164l-0.29,0.163l-0.291,0.162l-0.291,0.161l-0.293,0.162l-0.294,0.16l-0.295,0.16l-0.297,0.159l-0.297,0.158l-0.299,0.158l-0.299,0.157l-0.301,0.157l-0.302,0.156l-0.303,0.155l-0.305,0.154l-0.305,0.154l-0.307,0.153l-0.307,0.153l-0.31,0.152l-0.31,0.151l-0.311,0.15l-0.313,0.15l-0.314,0.149l-0.315,0.148l-0.317,0.148l-0.317,0.147l-0.319,0.146l-0.321,0.145l-0.321,0.145l-0.323,0.144l-0.324,0.143l-0.326,0.143l-0.326,0.142l-0.328,0.141l-0.33,0.14l-0.331,0.14l-0.332,0.139l-0.333,0.138l-0.335,0.137l-0.336,0.137l-0.338,0.135l-0.338,0.136l-0.341,0.134l-0.341,0.133l-0.344,0.133l-0.344,0.132l-0.346,0.131l-0.348,0.131l-0.348,0.129l-0.351,0.129l-0.351,0.128l-0.354,0.128l-0.354,0.126l-0.357,0.126l-0.357,0.125l-0.359,0.124l-0.361,0.123l-0.362,0.122l-0.364,0.122l-0.365,0.121l-0.367,0.12l-0.368,0.119l-0.37,0.118l-0.371,0.117l-0.373,0.117l-0.375,0.116l-0.376,0.115l-0.378,0.114l-0.379,0.113l-0.381,0.112l-0.383,0.112l-0.384,0.11l-0.386,0.11l-0.387,0.109l-0.389,0.108l-0.391,0.107l-0.393,0.107l-0.394,0.105l-0.395,0.105l-0.398,0.103l-0.399,0.103l-0.401,0.102l-0.403,0.101l-0.404,0.1l-0.406,0.099l-0.408,0.098l-0.409,0.097l-0.411,0.097l-0.414,0.095l-0.414,0.095l-0.417,0.094l-0.418,0.092l-0.42,0.092l-0.422,0.091l-0.424,0.09l-0.426,0.089l-0.427,0.088l-0.429,0.087l-0.432,0.086l-0.433,0.086l-0.434,0.084l-0.437,0.083l-0.439,0.083l-0.44,0.081l-0.442,0.081l-0.445,0.079l-0.446,0.079l-0.448,0.077l-0.45,0.077l-0.452,0.075l-0.454,0.075l-0.455,0.073l-0.458,0.073l-0.46,0.072l-0.462,0.07l-0.463,0.07l-0.466,0.069l-0.468,0.067l-0.469,0.067l-0.472,0.066l-0.474,0.064l-0.475,0.064l-0.478,0.062l-0.48,0.062l-0.482,0.06l-0.484,0.06l-0.486,0.058l-0.488,0.058l-0.49,0.056l-0.493,0.055l-0.494,0.055l-0.497,0.053l-0.498,0.052l-0.501,0.051l-0.503,0.051l-0.505,0.049l-0.507,0.048l-0.51,0.046l-0.512,0.046l-0.513,0.045l-0.516,0.044l-0.518,0.042l-0.521,0.042l-0.522,0.04l-0.525,0.04l-0.527,0.038l-0.529,0.037l-0.532,0.036l-0.534,0.035l-0.536,0.034l-0.538,0.033l-0.541,0.032l-0.543,0.03l-0.545,0.03l-0.547,0.028l-0.55,0.027l-0.552,0.027l-0.555,0.025l-0.557,0.023l-0.559,0.023l-0.562,0.022l-0.563,0.02l-0.567,0.019l-0.568,0.019l-0.572,0.017l-0.573,0.015l-0.576,0.015l-0.578,0.014l-0.581,0.012l-0.583,0.011l-0.586,0.01l-0.588,0.009l-0.59,0.008l-0.593,0.007l-0.596,0.005l-0.598,0.004l-0.6,0.003l-0.603,0.002l-0.605,0.001l-0.608,-0.001l-0.611,-0.002l-0.613,-0.003l-0.615,-0.004l-0.619,-0.005l-0.62,-0.007l-0.623,-0.008l-0.626,-0.009l-0.629,-0.01l-0.631,-0.011l-2.654,-0.054l-0.491,-0.897l1.078,-1.762l0.069,-0.113l0.114,-0.19l0.158,-0.265l0.095,-0.159l0.105,-0.177l0.115,-0.196l0.126,-0.213l0.134,-0.231l0.145,-0.249l0.153,-0.265l0.163,-0.282l0.171,-0.299l0.18,-0.315l0.188,-0.332l0.197,-0.347l0.204,-0.364l0.212,-0.379l0.22,-0.394l0.227,-0.41l0.234,-0.425l0.241,-0.44l0.247,-0.454l0.254,-0.469l0.26,-0.483l0.266,-0.497l0.272,-0.511l0.138,-0.261l0.139,-0.263l0.141,-0.268l0.142,-0.27l0.144,-0.274l0.144,-0.277l0.146,-0.281l0.147,-0.283l0.148,-0.287l0.149,-0.29l0.151,-0.294l0.151,-0.296l0.153,-0.299l0.153,-0.303l0.155,-0.305l0.156,-0.309l0.156,-0.311l0.158,-0.315l0.158,-0.317l0.159,-0.32l0.161,-0.324l0.161,-0.326l0.161,-0.329l0.163,-0.331l0.163,-0.335l0.164,-0.337l0.165,-0.34l0.165,-0.343l0.166,-0.345l0.167,-0.349l0.167,-0.35l0.167,-0.354l0.169,-0.355l0.168,-0.359l0.169,-0.361l0.17,-0.363l0.17,-0.366l0.17,-0.369l0.171,-0.371l0.171,-0.373l0.172,-0.376l0.171,-0.378l0.172,-0.38l0.173,-0.383l0.172,-0.384l0.173,-0.388l0.172,-0.389l0.173,-0.392l0.173,-0.393l0.173,-0.396l0.173,-0.398l0.173,-0.4l0.173,-0.402l0.173,-0.405l0.173,-0.406l0.173,-0.408l0.172,-0.41l0.173,-0.412l0.172,-0.414l0.172,-0.416l0.172,-0.418l0.172,-0.42l0.171,-0.421l0.171,-0.423l0.171,-0.425l0.17,-0.427l0.17,-0.428l0.17,-0.43l0.169,-0.432l0.169,-0.434l0.168,-0.434l0.167,-0.437l0.167,-0.438l0.167,-0.44l0.166,-0.441l0.165,-0.442l0.164,-0.444l0.164,-0.446l0.163,-0.447l0.163,-0.448l0.161,-0.45l0.161,-0.45l0.16,-0.453l0.159,-0.453l0.159,-0.455l0.157,-0.455l0.156,-0.458l0.156,-0.458l0.154,-0.459l0.154,-0.461l0.152,-0.461l0.151,-0.463l0.151,-0.463l0.149,-0.465l0.148,-0.466l0.147,-0.466l0.145,-0.468l0.145,-0.468l0.143,-0.469l0.142,-0.471l0.07,-0.235l0.07,-0.235l0.07,-0.236l0.069,-0.236l0.07,-0.236l0.068,-0.236l0.069,-0.237l0.068,-0.237l0.068,-0.237l0.067,-0.237l0.067,-0.237l0.066,-0.237l0.067,-0.238l0.066,-0.238l0.065,-0.237l0.065,-0.239l0.065,-0.238l0.064,-0.238l0.064,-0.239l0.064,-0.238l0.063,-0.239l0.063,-0.239l0.062,-0.239l0.062,-0.239l0.062,-0.239l0.061,-0.24l0.061,-0.239l0.06,-0.24l0.06,-0.24l0.06,-0.24l0.059,-0.24l0.059,-0.24l0.058,-0.24l0.058,-0.24l0.057,-0.241l0.057,-0.24l0.056,-0.24l0.056,-0.241l0.056,-0.241l0.055,-0.241l0.055,-0.24l0.054,-0.241l0.053,-0.241l0.054,-0.241l0.052,-0.242l0.053,-0.241l0.052,-0.241l0.051,-0.241l0.051,-0.242l0.05,-0.241l0.05,-0.241l0.049,-0.242l0.049,-0.241l0.048,-0.242l0.048,-0.241l0.048,-0.242l0.047,-0.241l0.046,-0.242l0.046,-0.242l0.045,-0.241l0.045,-0.242l0.044,-0.241l0.044,-0.242l0.043,-0.242l0.042,-0.241l0.042,-0.242l0.042,-0.241l0.041,-0.242l0.04,-0.242l0.04,-0.241l0.04,-0.242l0.038,-0.241l0.038,-0.242l0.038,-0.241l0.037,-0.241l0.037,-0.242l0.036,-0.241l0.035,-0.241l0.035,-0.241l0.034,-0.241l0.033,-0.241l0.033,-0.241l0.033,-0.241l0.031,-0.241l0.031,-0.241l0.031,-0.241l0.03,-0.24l0.029,-0.241l0.029,-0.24l0.028,-0.241l0.028,-0.24l0.026,-0.24l0.027,-0.24l0.025,-0.24l0.025,-0.24l0.025,-0.24l0.023,-0.239l0.023,-0.24l0.023,-0.239l0.021,-0.239l0.021,-0.24l0.021,-0.239l0.02,-0.238l0.019,-0.239l0.018,-0.239l0.018,-0.238l0.017,-0.239l0.016,-0.238l0.016,-0.238l0.015,-0.238l0.014,-0.237l0.014,-0.238l0.013,-0.237l0.012,-0.237l0.012,-0.237l0.011,-0.237l0.01,-0.237l0.009,-0.236l0.009,-0.237l0.008,-0.236l0.008,-0.236l0.006,-0.235l0.006,-0.236l0.005,-0.235l0.005,-0.235l0.003,-0.235l0.003,-0.235l0.002,-0.234l0.002,-0.234l0.001,-0.234l0,-0.234l-0.001,-0.234l-0.002,-0.233l-0.002,-0.233l-0.003,-0.233l-0.004,-0.232l-0.004,-0.233l-0.006,-0.232l-0.006,-0.232l-0.007,-0.231l-0.007,-0.232l-0.009,-0.231l-0.009,-0.23l-0.01,-0.231l-0.011,-0.23l-0.011,-0.23l-0.013,-0.23l-0.013,-0.229l-0.014,-0.229l-0.015,-0.229l-0.015,-0.229l-0.017,-0.228l-0.017,-0.228l-0.018,-0.227l-0.019,-0.228l-0.02,-0.227l-0.02,-0.227l-0.022,-0.226l-0.022,-0.226l-0.023,-0.226l-0.024,-0.225l-0.024,-0.225l-0.026,-0.225l-0.026,-0.225l-0.028,-0.224l-0.028,-0.223l-0.029,-0.224l-0.029,-0.223l-0.031,-0.223l-0.032,-0.222l-0.032,-0.222l-0.033,-0.222l-0.034,-0.221l-0.035,-0.221l-0.036,-0.22l-0.037,-0.22l-0.038,-0.22l-0.038,-0.22l-0.04,-0.219l-0.04,-0.218l-0.041,-0.219l-0.042,-0.218l-0.043,-0.217l-0.044,-0.217l-0.045,-0.217l-0.046,-0.216l-0.046,-0.216l-0.049,-0.219l3.418,-0.755l0.05,0.227Z" style="fill:#ffba5e;"/><path d="M206.625,28.712l-1.065,0.473l-0.533,0.236l-0.532,0.235l-0.532,0.235l-0.532,0.234l-0.531,0.234l-0.53,0.233l-0.531,0.232l-0.529,0.232l-0.53,0.231l-0.529,0.23l-0.528,0.23l-0.529,0.229l-0.527,0.229l-0.528,0.227l-0.527,0.227l-0.527,0.227l-0.526,0.225l-0.526,0.225l-0.525,0.225l-0.525,0.223l-0.525,0.223l-0.524,0.222l-0.524,0.222l-0.523,0.22l-0.523,0.22l-0.523,0.22l-0.522,0.218l-0.522,0.218l-0.521,0.216l-0.521,0.217l-0.521,0.215l-0.52,0.214l-0.52,0.214l-0.519,0.213l-0.519,0.212l-0.519,0.211l-0.518,0.211l-0.518,0.21l-0.518,0.208l-0.517,0.208l-0.516,0.207l-0.517,0.207l-0.516,0.205l-0.515,0.204l-0.515,0.204l-0.515,0.203l-0.514,0.202l-0.514,0.201l-0.514,0.2l-0.513,0.199l-0.513,0.198l-0.512,0.197l-0.512,0.196l-0.512,0.196l-0.511,0.194l-0.511,0.194l-0.51,0.192l-0.51,0.192l-0.51,0.19l-0.509,0.19l-0.509,0.189l-0.508,0.187l-0.508,0.187l-0.508,0.185l-0.507,0.185l-0.507,0.183l-0.507,0.183l-0.506,0.181l-0.506,0.181l-0.505,0.179l-0.505,0.178l-0.505,0.178l-0.504,0.176l-0.504,0.175l-0.503,0.174l-0.504,0.173l-0.502,0.172l-0.503,0.171l-0.502,0.169l-0.501,0.169l-0.501,0.167l-0.501,0.166l-0.501,0.165l-0.5,0.164l-0.499,0.163l-0.5,0.162l-0.498,0.16l-0.499,0.159l-0.498,0.158l-0.498,0.157l-0.497,0.156l-0.497,0.155l-0.497,0.153l-0.496,0.152l-0.496,0.151l-0.496,0.149l-0.495,0.149l-0.495,0.147l-0.494,0.146l-0.494,0.145l-0.494,0.143l-0.493,0.142l-0.493,0.141l-0.492,0.139l-0.493,0.139l-0.491,0.137l-0.492,0.135l-0.491,0.135l-0.49,0.133l-0.491,0.131l-0.49,0.131l-0.489,0.129l-0.489,0.127l-0.489,0.127l-0.489,0.125l-0.488,0.123l-0.488,0.122l-0.487,0.121l-0.487,0.12l-0.486,0.118l-0.487,0.116l-0.486,0.115l-0.485,0.114l-0.485,0.113l-0.485,0.11l-0.485,0.11l-0.484,0.108l-0.483,0.107l-0.484,0.105l-0.483,0.103l-0.482,0.103l-0.482,0.1l-0.482,0.099l-0.482,0.098l-0.481,0.096l-0.481,0.095l-0.48,0.093l-0.48,0.092l-0.48,0.09l-0.479,0.089l-0.479,0.087l-0.479,0.085l-0.478,0.084l-0.478,0.082l-0.478,0.081l-0.477,0.079l-0.476,0.078l-0.239,0.038l-0.238,0.038l-0.238,0.037l-0.238,0.037l-0.238,0.037l-0.238,0.036l-0.238,0.036l-0.238,0.035l-0.237,0.035l-0.238,0.035l-0.237,0.034l-0.237,0.034l-0.238,0.033l-0.237,0.033l-0.237,0.033l-0.237,0.032l-0.236,0.032l-0.237,0.031l-0.237,0.031l-0.236,0.03l-0.237,0.03l-0.236,0.03l-0.237,0.029l-0.236,0.029l-0.236,0.028l-0.236,0.028l-0.236,0.028l-0.236,0.027l-0.236,0.026l-0.236,0.027l-0.235,0.025l-0.236,0.026l-0.235,0.025l-0.235,0.024l-0.236,0.024l-0.235,0.024l-0.235,0.023l-0.235,0.023l-0.235,0.023l-0.235,0.021l-0.234,0.022l-0.235,0.021l-0.235,0.021l-0.234,0.02l-0.234,0.02l-0.235,0.019l-0.234,0.019l-0.234,0.018l-0.234,0.018l-0.234,0.018l-0.234,0.017l-0.233,0.017l-0.234,0.016l-0.234,0.016l-0.233,0.015l-0.234,0.015l-0.233,0.014l-0.233,0.014l-0.233,0.014l-0.233,0.013l-0.233,0.012l-0.233,0.013l-0.233,0.011l-0.233,0.012l-0.232,0.01l-0.233,0.011l-0.232,0.01l-0.232,0.009l-0.233,0.009l-0.232,0.008l-0.232,0.008l-0.232,0.008l-0.232,0.007l-0.232,0.007l-0.231,0.006l-0.232,0.006l-0.231,0.005l-0.232,0.005l-0.231,0.004l-0.231,0.004l-0.232,0.003l-0.231,0.003l-0.231,0.002l-0.231,0.002l-0.23,0.002l-0.231,0.001l-0.231,0l-0.23,0l-0.231,0l-0.23,-0.001l-0.231,-0.002l-0.23,-0.001l-0.23,-0.003l-0.23,-0.003l-0.23,-0.003l-0.23,-0.004l-0.229,-0.004l-0.23,-0.005l-0.23,-0.005l-0.229,-0.006l-0.23,-0.006l-0.229,-0.007l-0.229,-0.007l-0.229,-0.008l-0.229,-0.008l-0.229,-0.009l-0.229,-0.009l-0.229,-0.01l-0.229,-0.01l-0.228,-0.011l-0.229,-0.011l-0.228,-0.012l-0.228,-0.012l-0.229,-0.013l-0.228,-0.013l-0.228,-0.014l-0.228,-0.014l-0.228,-0.015l-0.228,-0.015l-0.227,-0.016l-0.228,-0.016l-0.227,-0.017l-0.228,-0.017l-0.227,-0.018l-0.227,-0.018l-0.228,-0.019l-0.227,-0.019l-0.227,-0.02l-0.226,-0.02l-0.227,-0.021l-0.227,-0.022l-0.227,-0.021l-0.226,-0.023l-0.227,-0.023l-0.226,-0.023l-0.226,-0.024l-0.226,-0.025l-0.226,-0.025l-0.226,-0.025l-0.226,-0.026l-0.226,-0.027l-0.226,-0.027l-0.225,-0.028l-0.226,-0.028l-0.225,-0.029l-0.226,-0.029l-0.225,-0.03l-0.225,-0.03l-0.225,-0.031l-0.225,-0.031l-0.225,-0.032l-0.225,-0.033l-0.224,-0.033l-0.225,-0.033l-0.225,-0.034l-0.224,-0.035l-0.224,-0.035l-0.225,-0.036l-0.224,-0.036l-0.224,-0.037l-0.224,-0.037l-0.224,-0.038l-0.223,-0.038l-0.224,-0.039l-0.224,-0.04l-0.223,-0.04l-0.224,-0.04l-0.223,-0.041l-0.223,-0.042l-0.223,-0.042l-0.223,-0.043l-0.223,-0.044l-0.223,-0.043l-0.223,-0.045l-0.222,-0.045l-0.223,-0.046l-0.222,-0.046l-0.223,-0.046l-0.222,-0.048l-0.222,-0.047l-0.222,-0.049l-0.222,-0.049l-0.222,-0.049l-0.222,-0.05l-0.222,-0.051l-0.221,-0.051l-0.222,-0.052l-0.221,-0.052l-0.222,-0.053l-0.221,-0.054l-0.221,-0.054l-0.221,-0.054l-0.221,-0.055l-0.221,-0.056l-0.221,-0.057l-0.22,-0.056l-0.221,-0.058l-0.22,-0.058l-0.221,-0.059l-0.22,-0.059l-0.22,-0.06l-0.22,-0.06l-0.22,-0.061l-0.22,-0.061l-0.22,-0.063l-0.219,-0.062l-0.22,-0.064l-0.219,-0.063l-0.22,-0.065l-0.219,-0.065l-0.219,-0.066l-0.219,-0.066l-0.219,-0.067l-0.217,-0.066l1.177,-3.823l0.211,0.065l0.21,0.064l0.209,0.063l0.209,0.063l0.209,0.062l0.21,0.061l0.21,0.061l0.209,0.061l0.21,0.06l0.21,0.059l0.21,0.059l0.21,0.058l0.21,0.057l0.211,0.058l0.21,0.056l0.21,0.056l0.211,0.056l0.211,0.055l0.21,0.054l0.211,0.054l0.211,0.053l0.211,0.053l0.212,0.052l0.211,0.051l0.211,0.052l0.212,0.05l0.211,0.05l0.212,0.05l0.212,0.049l0.212,0.048l0.212,0.048l0.212,0.047l0.212,0.047l0.212,0.046l0.213,0.046l0.212,0.045l0.213,0.045l0.212,0.044l0.213,0.043l0.213,0.043l0.213,0.043l0.213,0.042l0.214,0.041l0.213,0.041l0.213,0.041l0.214,0.04l0.213,0.039l0.214,0.039l0.214,0.038l0.214,0.038l0.214,0.037l0.214,0.037l0.214,0.036l0.215,0.036l0.214,0.035l0.215,0.035l0.215,0.034l0.214,0.034l0.215,0.033l0.215,0.032l0.215,0.032l0.215,0.032l0.216,0.031l0.215,0.031l0.216,0.03l0.215,0.029l0.216,0.029l0.216,0.029l0.216,0.028l0.216,0.027l0.216,0.027l0.216,0.027l0.217,0.026l0.216,0.026l0.217,0.025l0.216,0.024l0.217,0.024l0.217,0.024l0.217,0.023l0.217,0.022l0.217,0.022l0.218,0.022l0.217,0.021l0.218,0.02l0.217,0.02l0.218,0.02l0.218,0.019l0.218,0.018l0.218,0.018l0.218,0.018l0.219,0.017l0.218,0.017l0.219,0.016l0.218,0.015l0.219,0.015l0.219,0.015l0.219,0.014l0.219,0.014l0.219,0.013l0.219,0.013l0.22,0.012l0.219,0.012l0.22,0.011l0.22,0.011l0.219,0.01l0.22,0.01l0.22,0.009l0.221,0.009l0.22,0.009l0.22,0.007l0.221,0.008l0.22,0.007l0.221,0.006l0.221,0.006l0.221,0.006l0.221,0.005l0.221,0.005l0.221,0.004l0.222,0.004l0.221,0.003l0.222,0.002l0.221,0.003l0.222,0.002l0.222,0.001l0.222,0.001l0.222,0l0.222,0l0.223,0l0.222,-0.001l0.223,-0.002l0.223,-0.001l0.222,-0.003l0.223,-0.003l0.223,-0.003l0.224,-0.004l0.223,-0.004l0.223,-0.004l0.224,-0.005l0.223,-0.006l0.224,-0.006l0.224,-0.006l0.224,-0.007l0.224,-0.007l0.224,-0.008l0.224,-0.008l0.225,-0.009l0.224,-0.009l0.225,-0.01l0.224,-0.01l0.225,-0.01l0.225,-0.011l0.225,-0.011l0.225,-0.012l0.226,-0.012l0.225,-0.013l0.225,-0.013l0.226,-0.013l0.226,-0.014l0.226,-0.015l0.226,-0.015l0.226,-0.015l0.226,-0.016l0.226,-0.016l0.227,-0.016l0.226,-0.017l0.227,-0.018l0.226,-0.017l0.227,-0.019l0.227,-0.018l0.227,-0.02l0.228,-0.019l0.227,-0.02l0.227,-0.021l0.228,-0.02l0.227,-0.022l0.228,-0.021l0.228,-0.023l0.228,-0.022l0.228,-0.023l0.228,-0.023l0.229,-0.024l0.228,-0.024l0.229,-0.025l0.228,-0.025l0.229,-0.026l0.229,-0.026l0.229,-0.026l0.229,-0.027l0.229,-0.027l0.23,-0.027l0.229,-0.028l0.23,-0.029l0.229,-0.028l0.23,-0.03l0.23,-0.029l0.23,-0.03l0.23,-0.031l0.23,-0.03l0.231,-0.032l0.23,-0.031l0.231,-0.032l0.231,-0.033l0.23,-0.032l0.231,-0.034l0.231,-0.033l0.231,-0.034l0.232,-0.035l0.231,-0.035l0.232,-0.035l0.231,-0.036l0.232,-0.036l0.232,-0.036l0.232,-0.037l0.231,-0.037l0.465,-0.076l0.465,-0.077l0.466,-0.079l0.465,-0.08l0.467,-0.082l0.466,-0.083l0.468,-0.085l0.467,-0.086l0.468,-0.088l0.469,-0.09l0.469,-0.091l0.469,-0.092l0.47,-0.094l0.471,-0.096l0.47,-0.096l0.472,-0.099l0.471,-0.1l0.473,-0.101l0.472,-0.103l0.473,-0.104l0.474,-0.106l0.474,-0.107l0.474,-0.109l0.475,-0.11l0.476,-0.111l0.475,-0.113l0.477,-0.114l0.476,-0.116l0.478,-0.117l0.477,-0.118l0.478,-0.12l0.479,-0.121l0.479,-0.122l0.479,-0.124l0.48,-0.126l0.481,-0.126l0.48,-0.128l0.482,-0.129l0.481,-0.131l0.482,-0.132l0.483,-0.133l0.483,-0.134l0.484,-0.136l0.484,-0.137l0.484,-0.139l0.485,-0.14l0.485,-0.14l0.486,-0.143l0.486,-0.143l0.487,-0.145l0.487,-0.146l0.488,-0.147l0.488,-0.149l0.488,-0.149l0.489,-0.151l0.489,-0.152l0.49,-0.154l0.491,-0.154l0.49,-0.156l0.492,-0.157l0.491,-0.158l0.492,-0.159l0.493,-0.161l0.493,-0.162l0.493,-0.162l0.494,-0.164l0.495,-0.165l0.494,-0.167l0.496,-0.167l0.495,-0.168l0.497,-0.17l0.496,-0.171l0.497,-0.171l0.498,-0.173l0.498,-0.174l0.498,-0.175l0.499,-0.177l0.499,-0.177l0.5,-0.178l0.5,-0.179l0.501,-0.181l0.501,-0.181l0.502,-0.183l0.502,-0.183l0.502,-0.185l0.503,-0.185l0.503,-0.187l0.504,-0.187l0.504,-0.189l0.505,-0.189l0.505,-0.191l0.506,-0.191l0.506,-0.193l0.506,-0.193l0.507,-0.195l0.508,-0.195l0.508,-0.196l0.508,-0.198l0.509,-0.198l0.509,-0.199l0.51,-0.2l0.51,-0.201l0.51,-0.202l0.511,-0.202l0.512,-0.204l0.512,-0.204l0.512,-0.206l0.513,-0.206l0.513,-0.207l0.514,-0.208l0.514,-0.209l0.514,-0.209l0.516,-0.211l0.515,-0.211l0.516,-0.212l0.516,-0.213l0.517,-0.214l0.517,-0.215l0.518,-0.215l0.518,-0.216l0.519,-0.217l0.519,-0.218l0.52,-0.218l0.52,-0.219l0.52,-0.22l0.521,-0.221l0.521,-0.222l0.522,-0.222l0.522,-0.223l0.523,-0.223l0.523,-0.225l0.524,-0.225l0.524,-0.226l0.524,-0.226l0.525,-0.227l0.526,-0.228l0.525,-0.229l0.527,-0.229l0.526,-0.23l0.528,-0.23l0.527,-0.231l0.528,-0.232l0.529,-0.233l0.529,-0.233l0.529,-0.233l0.53,-0.235l0.53,-0.234l1.064,-0.473l1.623,3.656Z" style="fill:#ffba5e;"/><path d="M208.091,0.163l0.209,0.002l0.205,0.004l0.2,0.005l0.196,0.007l0.192,0.008l0.186,0.01l0.094,0.005l0.091,0.006l0.091,0.006l0.089,0.006l0.088,0.007l0.088,0.007l0.086,0.007l0.085,0.008l0.085,0.008l0.084,0.009l0.082,0.009l0.082,0.009l0.081,0.01l0.08,0.01l0.08,0.01l0.078,0.011l0.078,0.011l0.076,0.012l0.076,0.012l0.075,0.013l0.075,0.013l0.074,0.013l0.073,0.014l0.072,0.014l0.071,0.015l0.071,0.015l0.071,0.016l0.069,0.016l0.069,0.017l0.069,0.017l0.068,0.018l0.067,0.019l0.067,0.019l0.065,0.02l0.066,0.02l0.066,0.021l0.065,0.022l0.064,0.023l0.064,0.023l0.063,0.024l0.063,0.025l0.063,0.026l0.063,0.027l0.062,0.028l0.062,0.028l0.061,0.03l0.061,0.031l0.062,0.033l0.06,0.033l0.06,0.035l0.061,0.036l0.06,0.038l0.059,0.039l0.059,0.041l0.059,0.042l0.058,0.045l0.058,0.046l0.057,0.048l0.057,0.05l0.055,0.051l0.055,0.054l0.055,0.056l0.053,0.059l0.052,0.06l0.051,0.063l0.048,0.064l0.048,0.067l0.047,0.069l0.044,0.071l0.042,0.073l0.04,0.075l0.037,0.076l0.035,0.077l0.033,0.081l0.029,0.08l0.027,0.081l0.024,0.082l0.021,0.083l0.018,0.082l0.015,0.084l0.013,0.084l0.009,0.083l0.007,0.083l0.004,0.081l0.001,0.081l-0.001,0.08l-0.003,0.079l-0.006,0.079l-0.008,0.076l-0.01,0.076l-0.012,0.075l-0.014,0.072l-0.016,0.071l-0.017,0.07l-0.018,0.069l-0.02,0.068l-0.021,0.065l-0.023,0.065l-0.023,0.063l-0.025,0.062l-0.025,0.061l-0.026,0.059l-0.027,0.059l-0.028,0.058l-0.029,0.056l-0.029,0.055l-0.031,0.055l-0.03,0.053l-0.031,0.053l-0.032,0.052l-0.033,0.051l-0.033,0.051l-0.033,0.049l-0.034,0.049l-0.034,0.049l-0.035,0.047l-0.035,0.048l-0.036,0.047l-0.036,0.047l-0.037,0.045l-0.037,0.046l-0.038,0.045l-0.038,0.045l-0.038,0.044l-0.039,0.045l-0.041,0.046l-0.078,0.084l-0.081,0.086l-0.083,0.085l-0.085,0.084l-0.086,0.083l-0.088,0.083l-0.09,0.083l-0.091,0.082l-0.093,0.082l-0.095,0.081l-0.096,0.081l-0.098,0.081l-0.099,0.081l-0.101,0.08l-0.102,0.081l-0.104,0.08l-0.106,0.08l-0.107,0.081l-0.109,0.08l-0.11,0.08l-0.111,0.08l-0.113,0.08l-0.115,0.081l-0.115,0.08l-0.117,0.08l-0.119,0.08l-0.12,0.081l-0.121,0.08l-0.122,0.08l-0.124,0.081l-0.125,0.08l-0.126,0.081l-0.127,0.08l-0.128,0.081l-0.13,0.081l-0.131,0.08l-0.131,0.081l-0.133,0.08l-0.133,0.081l-0.135,0.081l-0.136,0.08l-0.136,0.081l-0.137,0.081l-0.138,0.08l-0.139,0.081l-0.14,0.08l-0.141,0.081l-0.141,0.08l-0.142,0.081l-0.285,0.16l-0.288,0.161l-0.29,0.159l-0.292,0.16l-0.293,0.158l-0.295,0.159l-0.296,0.157l-0.296,0.157l-0.297,0.155l-0.296,0.155l-0.297,0.154l-0.297,0.153l-0.295,0.151l-0.295,0.151l-0.293,0.149l-0.292,0.147l-0.29,0.146l-0.288,0.144l-0.286,0.143l-0.283,0.141l-0.557,0.276l-0.542,0.268l-0.527,0.259l-0.993,0.488l-0.462,0.228l-0.437,0.216l-0.206,0.103l-0.2,0.099l-0.192,0.097l-0.184,0.092l-0.174,0.089l-0.166,0.085l-0.156,0.081l-0.151,0.079l-0.115,0.055l-0.119,0.047l-0.122,0.038l-0.125,0.028l-0.126,0.02l-0.128,0.01l-0.128,0.001l-0.127,-0.008l-0.127,-0.018l-0.125,-0.027l-0.122,-0.035l-0.12,-0.045l-0.116,-0.053l-0.112,-0.062l-0.107,-0.07l-0.102,-0.077l-0.096,-0.085l-0.089,-0.091l-0.083,-0.098l-0.075,-0.103l-0.068,-0.109l-0.059,-0.113l-0.051,-0.117l-0.042,-0.121l-0.033,-0.123l-0.025,-0.126l-0.015,-0.127l-0.005,-0.127l0.003,-0.128l0.013,-0.127l0.023,-0.126l0.031,-0.124l0.04,-0.121l0.049,-0.118l0.058,-0.115l0.066,-0.109l0.073,-0.105l0.081,-0.099l0.088,-0.092l0.095,-0.086l0.1,-0.079l0.106,-0.072l0.111,-0.063l0.158,-0.083l0.17,-0.088l0.178,-0.091l0.184,-0.094l0.192,-0.097l0.199,-0.099l0.206,-0.103l0.212,-0.106l0.442,-0.219l0.467,-0.229l0.994,-0.489l0.523,-0.258l0.538,-0.265l0.551,-0.273l0.279,-0.139l0.282,-0.141l0.283,-0.142l0.285,-0.143l0.287,-0.145l0.287,-0.146l0.289,-0.147l0.289,-0.148l0.289,-0.149l0.289,-0.15l0.289,-0.151l0.288,-0.151l0.287,-0.152l0.286,-0.152l0.284,-0.153l0.282,-0.152l0.281,-0.153l0.277,-0.153l0.275,-0.153l0.273,-0.154l0.134,-0.076l0.134,-0.076l0.133,-0.076l0.132,-0.076l0.131,-0.076l0.13,-0.076l0.128,-0.075l0.128,-0.076l0.126,-0.075l0.126,-0.075l0.124,-0.075l0.122,-0.075l0.122,-0.074l0.12,-0.074l0.118,-0.074l0.118,-0.073l0.115,-0.074l0.114,-0.072l0.113,-0.073l0.111,-0.072l0.109,-0.072l0.107,-0.071l0.106,-0.071l0.104,-0.07l0.102,-0.07l0.1,-0.069l0.098,-0.069l0.096,-0.068l0.094,-0.068l0.092,-0.067l0.089,-0.066l0.088,-0.066l0.085,-0.065l0.083,-0.064l0.08,-0.063l0.078,-0.062l0.076,-0.062l0.073,-0.06l0.07,-0.059l0.068,-0.059l0.015,-0.013l-0.034,-0.004l-0.056,-0.008l-0.058,-0.008l-0.058,-0.007l-0.061,-0.007l-0.061,-0.007l-0.064,-0.007l-0.064,-0.007l-0.066,-0.006l-0.067,-0.006l-0.069,-0.006l-0.07,-0.006l-0.071,-0.005l-0.073,-0.005l-0.074,-0.005l-0.075,-0.005l-0.075,-0.004l-0.16,-0.008l-0.163,-0.007l-0.169,-0.006l-0.174,-0.005l-0.18,-0.003l-0.185,-0.003l-0.19,-0.001l-0.196,0l-0.202,0.002l-0.207,0.003l-0.212,0.004l-0.218,0.005l-0.224,0.006l-0.229,0.008l-0.235,0.01l-0.24,0.01l-0.246,0.012l-0.252,0.014l-0.257,0.015l-0.263,0.016l-0.269,0.018l-0.275,0.019l-0.28,0.02l-0.286,0.023l-0.292,0.023l-0.297,0.025l-0.304,0.027l-0.31,0.028l-0.315,0.03l-0.321,0.031l-0.328,0.033l-0.333,0.034l-0.34,0.036l-0.345,0.038l-0.352,0.039l-0.358,0.041l-0.364,0.042l-0.37,0.044l-0.376,0.046l-0.383,0.047l-0.389,0.049l-0.396,0.051l-0.401,0.052l-0.408,0.054l-0.415,0.056l-0.421,0.058l-0.428,0.059l-0.434,0.061l-0.44,0.063l-0.448,0.065l-0.453,0.066l-0.461,0.068l-0.467,0.07l-0.474,0.072l-0.481,0.074l-0.488,0.075l-0.494,0.078l-0.501,0.079l-0.508,0.081l-0.517,0.083l-0.127,0.016l-0.127,0.006l-0.128,-0.003l-0.127,-0.012l-0.126,-0.022l-0.124,-0.03l-0.122,-0.04l-0.118,-0.048l-0.115,-0.057l-0.11,-0.065l-0.105,-0.073l-0.099,-0.081l-0.093,-0.087l-0.087,-0.094l-0.079,-0.1l-0.072,-0.106l-0.064,-0.11l-0.056,-0.115l-0.048,-0.119l-0.038,-0.122l-0.03,-0.124l-0.02,-0.127l-0.011,-0.127l-0.002,-0.128l0.008,-0.127l0.017,-0.127l0.026,-0.125l0.035,-0.123l0.044,-0.12l0.053,-0.117l0.061,-0.112l0.069,-0.107l0.077,-0.103l0.084,-0.096l0.09,-0.09l0.098,-0.083l0.103,-0.076l0.108,-0.068l0.113,-0.06l0.117,-0.052l0.12,-0.042l0.123,-0.034l0.126,-0.025l0.518,-0.084l0.514,-0.082l0.506,-0.08l0.5,-0.078l0.493,-0.076l0.486,-0.075l0.48,-0.073l0.473,-0.071l0.467,-0.069l0.46,-0.067l0.453,-0.065l0.447,-0.064l0.441,-0.062l0.434,-0.06l0.428,-0.059l0.422,-0.057l0.415,-0.055l0.409,-0.053l0.403,-0.052l0.397,-0.05l0.391,-0.048l0.384,-0.047l0.379,-0.045l0.373,-0.043l0.366,-0.042l0.361,-0.04l0.355,-0.039l0.349,-0.037l0.343,-0.035l0.338,-0.034l0.332,-0.032l0.326,-0.031l0.321,-0.029l0.315,-0.028l0.309,-0.026l0.304,-0.025l0.299,-0.023l0.293,-0.021l0.288,-0.02l0.282,-0.019l0.278,-0.017l0.272,-0.016l0.267,-0.014l0.262,-0.013l0.256,-0.011l0.252,-0.01l0.247,-0.009l0.242,-0.007l0.237,-0.006l0.232,-0.004l0.227,-0.003l0.223,-0.002l0.218,0l0.214,0.002Z" style="fill:#856b55;"/><path d="M84.289,20.629c5.028,0.301 31.223,-8.948 28.069,-11.557c-2.602,-2.154 -20.194,-1.393 -23.796,-1.869c-1.848,-0.245 -22.641,-5.98 -24.883,-3.116c-5.951,7.604 13.908,20.314 20.61,16.542Z" style="fill:#856b55;"/><path d="M235.269,23.411c-1.457,-0.616 -3.132,-1.007 -4.857,-1.133c-5.423,-0.397 -10.015,1.867 -10.249,5.052c-0.233,3.186 3.981,6.095 9.404,6.492c1.725,0.126 3.439,-0.016 4.97,-0.414l0.732,-9.997Z" style="fill:#856b55;"/></g></g></svg>