<?xml version="1.0" encoding="UTF-8" standalone="no"?>
<svg width="100%" height="100%" viewBox="0 0 298 173" version="1.1" xmlns="http://www.w3.org/2000/svg" xmlns:xlink="http://www.w3.org/1999/xlink" xml:space="preserve" xmlns:serif="http://www.serif.com/" style="fill-rule:evenodd;clip-rule:evenodd;stroke-linejoin:round;stroke-miterlimit:1.41421;">
    <g>
        <circle id="Uhr" cx="240.681" cy="115.646" r="54.71" style="fill:#ececed;" />
        <clipPath id="_clip1">
            <circle cx="240.681" cy="115.646" r="54.71" />
        </clipPath>
        <g clip-path="url(#_clip1)">
            <g>
                <path d="M265.224,73.994l-0.743,-0.429l-6.382,11.053l0.744,0.429l6.381,-11.053Z" style="fill:#bfab8c;" />
                <path d="M282.762,91.846l-0.429,-0.743l-11.053,6.381l0.429,0.744l11.053,-6.382Z" style="fill:#bfab8c;" />
                <path d="M282.333,140.189l0.429,-0.743l-11.053,-6.382l-0.429,0.744l11.053,6.381Z" style="fill:#bfab8c;" />
                <path d="M264.481,157.727l0.743,-0.429l-6.381,-11.053l-0.744,0.429l6.382,11.053Z" style="fill:#bfab8c;" />
                <path d="M216.138,157.298l0.743,0.429l6.382,-11.053l-0.744,-0.429l-6.381,11.053Z" style="fill:#bfab8c;" />
                <path d="M198.6,139.446l0.429,0.743l11.053,-6.381l-0.429,-0.744l-11.053,6.382Z" style="fill:#bfab8c;" />
                <path d="M199.029,91.103l-0.429,0.743l11.053,6.382l0.429,-0.744l-11.053,-6.381Z" style="fill:#bfab8c;" />
                <path d="M216.881,73.565l-0.743,0.429l6.381,11.053l0.744,-0.429l-6.382,-11.053Z" style="fill:#bfab8c;" />
                <rect x="240.252" y="67.303" width="0.858" height="12.764" style="fill:#bfab8c;" />
                <path d="M289.024,116.075l0,-0.858l-12.763,0l0,0.858l12.763,0Z" style="fill:#bfab8c;" />
                <rect x="240.252" y="151.226" width="0.858" height="12.764" style="fill:#bfab8c;" />
                <path d="M192.337,115.217l0,0.858l12.764,0l0,-0.858l-12.764,0Z" style="fill:#bfab8c;" />
            </g>
            <text x="-131.078px" y="-94.629px" style="font-family:'AppleGothic';font-size:36px;">Deprecated.</text>
            <g>
                <g>
                    <path d="M245.756,67.499c0.738,0.077 1.275,0.74 1.198,1.479c-0.078,0.739 -0.741,1.276 -1.48,1.198c-0.739,-0.078 -1.275,-0.74 -1.198,-1.479c0.078,-0.739 0.741,-1.276 1.48,-1.198Z" style="fill:#809b40;" />
                    <path d="M288.869,120.746c-0.077,0.739 -0.74,1.276 -1.479,1.198c-0.739,-0.077 -1.276,-0.74 -1.198,-1.479c0.078,-0.739 0.741,-1.276 1.479,-1.198c0.739,0.078 1.276,0.74 1.198,1.479Z" style="fill:#809b40;" />
                    <path d="M235.581,163.834c-0.739,-0.077 -1.276,-0.74 -1.198,-1.479c0.077,-0.739 0.74,-1.276 1.479,-1.198c0.739,0.078 1.276,0.741 1.198,1.479c-0.078,0.739 -0.74,1.276 -1.479,1.198Z" style="fill:#809b40;" />
                    <path d="M192.493,110.546c0.077,-0.739 0.74,-1.276 1.479,-1.198c0.739,0.078 1.276,0.74 1.198,1.479c-0.078,0.739 -0.741,1.276 -1.479,1.198c-0.739,-0.078 -1.276,-0.74 -1.198,-1.479Z" style="fill:#809b40;" />
                    <path d="M288.884,110.6c0.077,0.739 -0.459,1.402 -1.198,1.479c-0.739,0.078 -1.402,-0.459 -1.479,-1.198c-0.078,-0.739 0.459,-1.401 1.197,-1.479c0.739,-0.078 1.402,0.459 1.48,1.198Z" style="fill:#809b40;" />
                    <path d="M245.727,163.849c-0.739,0.077 -1.402,-0.459 -1.479,-1.198c-0.078,-0.739 0.459,-1.402 1.198,-1.479c0.739,-0.078 1.401,0.459 1.479,1.198c0.078,0.738 -0.459,1.401 -1.198,1.479Z" style="fill:#809b40;" />
                    <path d="M192.478,120.692c-0.078,-0.739 0.459,-1.402 1.198,-1.479c0.739,-0.078 1.402,0.459 1.479,1.198c0.078,0.739 -0.459,1.401 -1.198,1.479c-0.738,0.078 -1.401,-0.459 -1.479,-1.198Z" style="fill:#809b40;" />
                    <path d="M235.635,67.443c0.739,-0.077 1.402,0.459 1.479,1.198c0.078,0.739 -0.459,1.402 -1.198,1.479c-0.739,0.078 -1.401,-0.459 -1.479,-1.197c-0.078,-0.739 0.459,-1.402 1.198,-1.48Z" style="fill:#809b40;" />
                </g>
                <path d="M250.775,68.294c0.726,0.155 1.191,0.87 1.036,1.597c-0.154,0.727 -0.869,1.191 -1.596,1.037c-0.727,-0.155 -1.191,-0.87 -1.037,-1.597c0.155,-0.726 0.87,-1.191 1.597,-1.037Z" style="fill:#809b40;" />
                <path d="M255.683,69.61c0.706,0.23 1.094,0.99 0.864,1.696c-0.229,0.707 -0.989,1.094 -1.696,0.865c-0.706,-0.23 -1.094,-0.99 -0.864,-1.696c0.229,-0.707 0.989,-1.094 1.696,-0.865Z" style="fill:#809b40;" />
                <path d="M260.427,71.432c0.678,0.302 0.984,1.099 0.682,1.777c-0.302,0.679 -1.098,0.985 -1.777,0.682c-0.679,-0.302 -0.984,-1.098 -0.682,-1.777c0.302,-0.678 1.098,-0.984 1.777,-0.682Z" style="fill:#809b40;" />
                <path d="M269.192,76.493c0.601,0.436 0.734,1.279 0.298,1.88c-0.437,0.601 -1.279,0.734 -1.88,0.298c-0.601,-0.437 -0.735,-1.279 -0.298,-1.88c0.437,-0.601 1.279,-0.735 1.88,-0.298Z" style="fill:#809b40;" />
                <path d="M273.13,79.682c0.552,0.497 0.597,1.349 0.1,1.901c-0.497,0.552 -1.349,0.597 -1.901,0.099c-0.552,-0.497 -0.597,-1.348 -0.1,-1.9c0.497,-0.552 1.349,-0.597 1.901,-0.1Z" style="fill:#809b40;" />
                <path d="M276.714,83.265c0.497,0.552 0.452,1.404 -0.1,1.901c-0.552,0.497 -1.404,0.453 -1.901,-0.099c-0.497,-0.552 -0.452,-1.404 0.1,-1.901c0.552,-0.497 1.404,-0.453 1.901,0.099Z" style="fill:#809b40;" />
                <path d="M279.917,87.224c0.437,0.601 0.303,1.443 -0.298,1.879c-0.602,0.437 -1.444,0.303 -1.88,-0.298c-0.437,-0.601 -0.303,-1.444 0.298,-1.88c0.602,-0.437 1.444,-0.303 1.88,0.299Z" style="fill:#809b40;" />
                <path d="M284.963,95.969c0.303,0.678 -0.003,1.475 -0.682,1.777c-0.678,0.302 -1.475,-0.004 -1.777,-0.682c-0.302,-0.679 0.004,-1.475 0.682,-1.777c0.679,-0.303 1.475,0.003 1.777,0.682Z" style="fill:#809b40;" />
                <path d="M279.863,144.157c-0.436,0.601 -1.279,0.735 -1.88,0.298c-0.601,-0.437 -0.734,-1.279 -0.298,-1.88c0.437,-0.601 1.279,-0.735 1.88,-0.298c0.601,0.437 0.735,1.279 0.298,1.88Z" style="fill:#809b40;" />
                <path d="M260.358,159.928c-0.678,0.303 -1.475,-0.003 -1.777,-0.682c-0.302,-0.678 0.004,-1.475 0.682,-1.777c0.679,-0.302 1.475,0.004 1.777,0.682c0.303,0.679 -0.003,1.475 -0.682,1.777Z" style="fill:#809b40;" />
                <path d="M212.17,154.828c-0.601,-0.436 -0.735,-1.279 -0.298,-1.88c0.437,-0.601 1.279,-0.734 1.88,-0.298c0.601,0.437 0.735,1.279 0.298,1.88c-0.437,0.601 -1.279,0.735 -1.88,0.298Z" style="fill:#809b40;" />
                <path d="M196.399,135.323c-0.303,-0.678 0.003,-1.475 0.682,-1.777c0.678,-0.302 1.475,0.004 1.777,0.682c0.302,0.679 -0.004,1.475 -0.682,1.777c-0.679,0.303 -1.475,-0.003 -1.777,-0.682Z" style="fill:#809b40;" />
                <path d="M201.499,87.135c0.436,-0.601 1.279,-0.735 1.88,-0.298c0.601,0.437 0.734,1.279 0.298,1.88c-0.437,0.601 -1.279,0.735 -1.88,0.298c-0.601,-0.437 -0.735,-1.279 -0.298,-1.88Z" style="fill:#809b40;" />
                <path d="M221.004,71.364c0.678,-0.303 1.475,0.003 1.777,0.682c0.302,0.678 -0.004,1.475 -0.682,1.777c-0.679,0.302 -1.475,-0.004 -1.777,-0.682c-0.303,-0.679 0.003,-1.475 0.682,-1.777Z" style="fill:#809b40;" />
                <path d="M286.779,100.7c0.23,0.706 -0.157,1.466 -0.864,1.696c-0.706,0.229 -1.466,-0.158 -1.696,-0.864c-0.229,-0.707 0.158,-1.467 0.864,-1.696c0.707,-0.23 1.467,0.157 1.696,0.864Z" style="fill:#809b40;" />
                <path d="M288.077,125.751c-0.155,0.727 -0.87,1.192 -1.597,1.037c-0.727,-0.154 -1.191,-0.87 -1.037,-1.596c0.155,-0.727 0.87,-1.191 1.597,-1.037c0.726,0.154 1.191,0.87 1.037,1.596Z" style="fill:#809b40;" />
                <path d="M276.674,148.095c-0.497,0.552 -1.349,0.597 -1.901,0.1c-0.552,-0.497 -0.597,-1.349 -0.1,-1.901c0.498,-0.552 1.349,-0.597 1.901,-0.1c0.552,0.498 0.597,1.349 0.1,1.901Z" style="fill:#809b40;" />
                <path d="M255.627,161.745c-0.706,0.229 -1.466,-0.158 -1.696,-0.865c-0.229,-0.706 0.158,-1.466 0.864,-1.696c0.707,-0.229 1.467,0.158 1.696,0.864c0.23,0.707 -0.157,1.467 -0.864,1.697Z" style="fill:#809b40;" />
                <path d="M230.576,163.042c-0.727,-0.155 -1.192,-0.87 -1.037,-1.597c0.154,-0.726 0.87,-1.191 1.596,-1.037c0.727,0.155 1.191,0.87 1.037,1.597c-0.154,0.727 -0.87,1.191 -1.596,1.037Z" style="fill:#809b40;" />
                <path d="M208.232,151.639c-0.552,-0.497 -0.597,-1.349 -0.1,-1.901c0.497,-0.552 1.349,-0.597 1.901,-0.099c0.552,0.497 0.597,1.348 0.1,1.9c-0.498,0.553 -1.349,0.597 -1.901,0.1Z" style="fill:#809b40;" />
                <path d="M194.582,130.592c-0.229,-0.706 0.158,-1.466 0.865,-1.696c0.706,-0.229 1.466,0.158 1.696,0.864c0.229,0.707 -0.158,1.467 -0.864,1.696c-0.707,0.23 -1.467,-0.157 -1.697,-0.864Z" style="fill:#809b40;" />
                <path d="M193.285,105.541c0.155,-0.727 0.87,-1.192 1.597,-1.037c0.726,0.154 1.191,0.87 1.037,1.596c-0.155,0.727 -0.87,1.191 -1.597,1.037c-0.727,-0.154 -1.191,-0.87 -1.037,-1.596Z" style="fill:#809b40;" />
                <path d="M204.688,83.197c0.497,-0.552 1.349,-0.597 1.901,-0.1c0.552,0.497 0.597,1.349 0.099,1.901c-0.497,0.552 -1.348,0.597 -1.9,0.1c-0.553,-0.497 -0.597,-1.349 -0.1,-1.901Z" style="fill:#809b40;" />
                <path d="M225.735,69.548c0.706,-0.23 1.466,0.157 1.696,0.864c0.229,0.706 -0.158,1.466 -0.864,1.696c-0.707,0.229 -1.467,-0.158 -1.696,-0.864c-0.23,-0.707 0.157,-1.467 0.864,-1.696Z" style="fill:#809b40;" />
                <path d="M288.091,105.595c0.154,0.726 -0.31,1.442 -1.037,1.596c-0.726,0.155 -1.442,-0.31 -1.596,-1.037c-0.155,-0.726 0.31,-1.442 1.037,-1.596c0.726,-0.154 1.442,0.31 1.596,1.037Z" style="fill:#809b40;" />
                <path d="M286.765,130.646c-0.23,0.707 -0.99,1.094 -1.696,0.865c-0.707,-0.23 -1.094,-0.99 -0.864,-1.697c0.229,-0.706 0.989,-1.093 1.696,-0.864c0.706,0.23 1.094,0.99 0.864,1.696Z" style="fill:#809b40;" />
                <path d="M273.091,151.679c-0.552,0.497 -1.404,0.452 -1.901,-0.1c-0.497,-0.552 -0.453,-1.404 0.099,-1.901c0.552,-0.497 1.404,-0.452 1.901,0.1c0.497,0.552 0.453,1.404 -0.099,1.901Z" style="fill:#809b40;" />
                <path d="M250.732,163.056c-0.726,0.155 -1.442,-0.31 -1.596,-1.037c-0.155,-0.726 0.31,-1.442 1.037,-1.596c0.726,-0.155 1.442,0.31 1.596,1.037c0.154,0.726 -0.31,1.442 -1.037,1.596Z" style="fill:#809b40;" />
                <path d="M225.681,161.73c-0.707,-0.23 -1.094,-0.99 -0.865,-1.696c0.23,-0.707 0.99,-1.094 1.697,-0.864c0.706,0.229 1.093,0.989 0.864,1.696c-0.23,0.706 -0.99,1.094 -1.696,0.864Z" style="fill:#809b40;" />
                <path d="M204.648,148.056c-0.497,-0.552 -0.452,-1.404 0.1,-1.901c0.552,-0.497 1.404,-0.453 1.901,0.099c0.497,0.553 0.452,1.404 -0.1,1.901c-0.552,0.497 -1.404,0.453 -1.901,-0.099Z" style="fill:#809b40;" />
                <path d="M193.271,125.697c-0.155,-0.726 0.31,-1.442 1.037,-1.596c0.726,-0.155 1.442,0.31 1.596,1.037c0.155,0.726 -0.31,1.442 -1.037,1.596c-0.726,0.155 -1.442,-0.31 -1.596,-1.037Z" style="fill:#809b40;" />
                <path d="M194.597,100.646c0.23,-0.707 0.99,-1.094 1.696,-0.864c0.707,0.229 1.094,0.989 0.864,1.696c-0.229,0.706 -0.989,1.093 -1.696,0.864c-0.706,-0.23 -1.094,-0.99 -0.864,-1.696Z" style="fill:#809b40;" />
                <path d="M208.271,79.613c0.552,-0.497 1.404,-0.452 1.901,0.1c0.497,0.552 0.453,1.404 -0.099,1.901c-0.553,0.497 -1.404,0.452 -1.901,-0.1c-0.497,-0.552 -0.453,-1.404 0.099,-1.901Z" style="fill:#809b40;" />
                <path d="M230.63,68.236c0.726,-0.155 1.442,0.31 1.596,1.037c0.155,0.726 -0.31,1.442 -1.037,1.596c-0.726,0.155 -1.442,-0.31 -1.596,-1.037c-0.155,-0.726 0.31,-1.442 1.037,-1.596Z" style="fill:#809b40;" />
                <path d="M284.949,135.377c-0.302,0.679 -1.099,0.985 -1.777,0.683c-0.679,-0.303 -0.985,-1.099 -0.682,-1.778c0.302,-0.678 1.098,-0.984 1.777,-0.682c0.678,0.302 0.984,1.099 0.682,1.777Z" style="fill:#809b40;" />
                <path d="M269.152,154.868c-0.601,0.436 -1.443,0.303 -1.88,-0.298c-0.436,-0.601 -0.303,-1.443 0.298,-1.88c0.601,-0.437 1.444,-0.303 1.88,0.298c0.437,0.601 0.303,1.443 -0.298,1.88Z" style="fill:#809b40;" />
                <path d="M220.95,159.914c-0.679,-0.302 -0.985,-1.098 -0.683,-1.777c0.303,-0.679 1.099,-0.984 1.778,-0.682c0.678,0.302 0.984,1.098 0.682,1.777c-0.302,0.678 -1.099,0.984 -1.777,0.682Z" style="fill:#809b40;" />
                <path d="M201.459,144.118c-0.436,-0.601 -0.303,-1.444 0.298,-1.881c0.601,-0.436 1.443,-0.303 1.88,0.298c0.437,0.601 0.303,1.444 -0.298,1.88c-0.601,0.437 -1.443,0.304 -1.88,-0.297Z" style="fill:#809b40;" />
                <path d="M196.413,95.915c0.302,-0.679 1.098,-0.985 1.777,-0.682c0.679,0.302 0.984,1.098 0.682,1.777c-0.302,0.678 -1.098,0.984 -1.777,0.682c-0.678,-0.302 -0.984,-1.099 -0.682,-1.777Z" style="fill:#809b40;" />
                <path d="M212.209,76.424c0.601,-0.436 1.444,-0.303 1.881,0.298c0.436,0.601 0.303,1.443 -0.298,1.88c-0.601,0.437 -1.444,0.303 -1.88,-0.298c-0.437,-0.601 -0.304,-1.443 0.297,-1.88Z" style="fill:#809b40;" />
            </g>
            <path id="stundenzeiger" d="M230.473,120.244l1.057,1.853l34.525,-19.705l-1.058,-1.854l-34.524,19.706Z" style="fill:#381b00;" />
            <path id="minutenzeiger" d="M229.516,116.293l0.172,1.363l50.421,-6.344l-0.172,-1.362l-50.421,6.343Z" style="fill:#381b00;" />
            <path id="sekundenzeiger" d="M231.51,132.978l-1.253,-0.724l32.606,-55.751l0.626,0.361l-31.979,56.114Z" style="fill:#c2151b;" />
            <circle id="mittelkreis" cx="240.681" cy="115.646" r="1.523" style="fill:#c2151b;" />
        </g>
        <circle cx="240.681" cy="115.646" r="54.71" style="fill:none;stroke:#b9a581;stroke-width:5px;" />
        <path id="Hinterrad" d="M56.342,63.439c29.514,0.189 53.322,24.303 53.133,53.817c-0.188,29.514 -24.303,53.322 -53.817,53.134c-29.514,-0.189 -53.322,-24.304 -53.133,-53.818c0.188,-29.513 24.303,-53.322 53.817,-53.133Z" style="fill:#ececed;" />
        <clipPath id="_clip2">
            <path d="M56.342,63.439c29.514,0.189 53.322,24.303 53.133,53.817c-0.188,29.514 -24.303,53.322 -53.817,53.134c-29.514,-0.189 -53.322,-24.304 -53.133,-53.818c0.188,-29.513 24.303,-53.322 53.817,-53.133Z" />
        </clipPath>
        <g clip-path="url(#_clip2)">
            <g>
                <g>
                    <path d="M51.11,158.267l0.817,0.094l3.486,-30.167l-0.817,-0.095l-3.486,30.168Z" style="fill:#bfab8c;" />
                </g>
                <g>
                    <path d="M30.964,150.065l0.66,0.49l18.103,-24.383l-0.661,-0.49l-18.102,24.383Z" style="fill:#bfab8c;" />
                </g>
                <g>
                    <path d="M71.979,155.576l0.761,-0.314l-11.576,-28.075l-0.761,0.314l11.576,28.075Z" style="fill:#bfab8c;" />
                </g>
                <g>
                    <path d="M98.036,121.805l0.095,-0.818l-30.168,-3.486l-0.094,0.818l30.167,3.486Z" style="fill:#bfab8c;" />
                </g>
                <g>
                    <path d="M89.834,141.951l0.49,-0.661l-24.382,-18.102l-0.491,0.66l24.383,18.103Z" style="fill:#bfab8c;" />
                </g>
                <g>
                    <path d="M95.345,100.935l-0.314,-0.761l-28.075,11.577l0.314,0.76l28.075,-11.576Z" style="fill:#bfab8c;" />
                </g>
                <g>
                    <path d="M14.648,111.34l-0.095,0.817l30.168,3.487l0.094,-0.818l-30.167,-3.486Z" style="fill:#bfab8c;" />
                </g>
                <g>
                    <path d="M22.85,91.194l-0.491,0.661l24.383,18.102l0.49,-0.66l-24.382,-18.103Z" style="fill:#bfab8c;" />
                </g>
                <g>
                    <path d="M17.339,132.21l0.313,0.761l28.075,-11.577l-0.313,-0.76l-28.075,11.576Z" style="fill:#bfab8c;" />
                </g>
                <g>
                    <path d="M61.574,74.878l-0.817,-0.094l-3.486,30.167l0.817,0.095l3.486,-30.168Z" style="fill:#bfab8c;" />
                </g>
                <g>
                    <path d="M81.72,83.08l-0.66,-0.49l-18.103,24.383l0.66,0.49l18.103,-24.383Z" style="fill:#bfab8c;" />
                </g>
                <g>
                    <path d="M40.704,77.569l-0.76,0.314l11.576,28.075l0.761,-0.314l-11.577,-28.075Z" style="fill:#bfab8c;" />
                </g>
            </g>
        </g>
        <path d="M56.342,63.439c29.514,0.189 53.322,24.303 53.133,53.817c-0.188,29.514 -24.303,53.322 -53.817,53.134c-29.514,-0.189 -53.322,-24.304 -53.133,-53.818c0.188,-29.513 24.303,-53.322 53.817,-53.133Z" style="fill:none;stroke:#b9a581;stroke-width:5px;" />
        <g>
            <path d="M240.291,50.387l0.28,0.002l0.28,0.003l0.28,0.004l0.281,0.005l0.281,0.006l0.281,0.008l0.281,0.008l0.281,0.009l0.282,0.011l0.281,0.011l0.282,0.013l0.282,0.014l0.282,0.014l0.282,0.016l0.283,0.017l0.283,0.018l0.282,0.019l0.283,0.02l0.283,0.022l0.283,0.022l0.284,0.023l0.283,0.025l0.284,0.026l0.284,0.026l0.283,0.028l0.284,0.029l0.285,0.03l0.184,0.02l0.1,0.012l0.284,0.033l0.284,0.035l0.285,0.035l0.284,0.037l0.285,0.038l0.285,0.039l0.285,0.04l0.285,0.042l0.285,0.042l0.285,0.043l0.285,0.045l0.285,0.046l0.286,0.047l0.285,0.047l0.286,0.05l0.285,0.05l0.286,0.051l0.286,0.052l0.285,0.054l0.286,0.055l0.286,0.056l0.286,0.056l0.286,0.059l0.286,0.059l0.286,0.06l0.286,0.062l0.287,0.062l0.286,0.064l0.286,0.065l0.287,0.066l0.286,0.067l0.286,0.068l0.287,0.07l0.286,0.07l0.286,0.072l0.287,0.073l0.286,0.074l0.287,0.075l0.286,0.077l0.287,0.077l0.286,0.079l0.287,0.08l0.286,0.081l0.287,0.082l0.287,0.083l0.286,0.085l0.287,0.085l0.286,0.087l0.287,0.088l0.206,0.064l0.08,0.026l0.286,0.091l0.286,0.093l0.286,0.093l0.286,0.095l0.286,0.096l0.286,0.098l0.286,0.098l0.286,0.1l0.286,0.1l0.285,0.102l0.286,0.103l0.286,0.105l0.285,0.105l0.286,0.107l0.285,0.108l0.286,0.109l0.285,0.11l0.283,0.111l0.002,0.001l0.283,0.112l-0.828,2.324l-0.286,-0.09l-0.002,-0.001l-0.281,-0.088l-0.284,-0.088l-0.283,-0.086l-0.283,-0.086l-0.283,-0.084l-0.283,-0.083l-0.283,-0.082l-0.282,-0.08l-0.283,-0.08l-0.282,-0.078l-0.283,-0.077l-0.282,-0.076l-0.282,-0.075l-0.282,-0.074l-0.282,-0.072l-0.281,-0.072l-0.282,-0.07l-0.281,-0.069l-0.079,-0.019l-0.202,-0.05l-0.281,-0.068l-0.281,-0.066l-0.28,-0.066l-0.281,-0.064l-0.28,-0.064l-0.28,-0.062l-0.28,-0.061l-0.28,-0.06l-0.28,-0.059l-0.279,-0.057l-0.28,-0.057l-0.279,-0.055l-0.279,-0.055l-0.279,-0.053l-0.279,-0.052l-0.278,-0.051l-0.279,-0.05l-0.278,-0.048l-0.278,-0.048l-0.278,-0.047l-0.277,-0.045l-0.278,-0.044l-0.277,-0.044l-0.277,-0.042l-0.277,-0.041l-0.277,-0.04l-0.277,-0.039l-0.276,-0.037l-0.276,-0.037l-0.276,-0.036l-0.276,-0.034l-0.275,-0.034l-0.276,-0.032l-0.275,-0.031l-0.275,-0.03l-0.275,-0.03l-0.274,-0.028l-0.274,-0.027l-0.274,-0.026l-0.274,-0.024l-0.274,-0.024l-0.273,-0.023l-0.274,-0.022l-0.272,-0.02l-0.273,-0.02l-0.273,-0.018l-0.272,-0.018l-0.272,-0.016l-0.272,-0.016l-0.095,-0.005l-0.176,-0.01l-0.271,-0.014l-0.271,-0.014l-0.271,-0.012l-0.27,-0.012l-0.27,-0.01l-0.27,-0.01l-0.27,-0.008l-0.269,-0.007l-0.269,-0.007l-0.269,-0.005l-0.269,-0.004l-0.268,-0.003l-0.269,-0.003l-0.267,-0.001l-0.268,0l-0.267,0.001l-0.267,0.002l-0.267,0.003l-0.266,0.003l-0.267,0.005l-0.266,0.006l-0.265,0.007l-0.266,0.008l-0.265,0.009l-0.264,0.01l-0.265,0.01l-0.264,0.012l-0.264,0.013l-0.263,0.014l-0.264,0.015l-0.263,0.016l-0.262,0.016l-0.05,0.004l-0.213,0.013l-0.262,0.018l-0.261,0.018l-0.262,0.02l-0.261,0.02l-0.261,0.021l-0.26,0.023l-0.261,0.023l-0.259,0.025l-0.26,0.025l-0.259,0.026l-0.259,0.027l-0.259,0.028l-0.258,0.03l-0.258,0.03l-0.257,0.031l-0.258,0.032l-0.257,0.033l-0.256,0.033l-0.256,0.035l-0.256,0.036l-0.256,0.037l-0.255,0.037l-0.255,0.039l-0.254,0.039l-0.254,0.041l-0.254,0.041l-0.253,0.043l-0.253,0.043l-0.253,0.044l-0.252,0.045l-0.252,0.046l-0.252,0.047l-0.251,0.048l-0.251,0.049l-0.21,0.041l-0.04,0.008l-0.25,0.049l-0.25,0.05l-0.25,0.051l-0.249,0.052l-0.249,0.052l-0.248,0.054l-0.248,0.054l-0.248,0.056l-0.247,0.056l-0.247,0.057l-0.246,0.058l-0.246,0.059l-0.246,0.06l-0.245,0.061l-0.245,0.061l-0.245,0.063l-0.244,0.063l-0.243,0.064l-0.243,0.066l-0.243,0.066l-0.243,0.067l-0.242,0.067l-0.241,0.069l-0.241,0.07l-0.241,0.07l-0.24,0.071l-0.24,0.073l-0.239,0.073l-0.239,0.074l-0.239,0.074l-0.238,0.076l-0.238,0.076l-0.237,0.078l-0.236,0.078l-0.237,0.079l-0.236,0.08l-0.046,0.016l-0.189,0.064l-0.236,0.08l-0.235,0.081l-0.234,0.081l-0.234,0.083l-0.234,0.083l-0.233,0.085l-0.233,0.085l-0.232,0.086l-0.232,0.087l-0.231,0.087l-0.231,0.089l-0.231,0.089l-0.23,0.09l-0.229,0.091l-0.229,0.092l-0.229,0.093l-0.211,0.087l-0.017,0.006l-0.228,0.093l-0.227,0.094l-0.227,0.095l-0.227,0.095l-0.226,0.097l-0.226,0.097l-0.225,0.098l-0.225,0.098l-0.224,0.1l-0.224,0.1l-0.223,0.102l-0.222,0.102l-0.223,0.102l-0.221,0.104l-0.222,0.104l-0.22,0.106l-0.212,0.102l-0.008,0.004l-0.221,0.105l-0.22,0.106l-0.219,0.106l-0.219,0.108l-0.219,0.108l-0.218,0.109l-0.217,0.11l-0.217,0.111l-0.216,0.112l-0.216,0.112l-0.215,0.113l-0.215,0.114l-0.214,0.115l-0.214,0.115l-0.213,0.116l-0.213,0.117l-0.212,0.118l-0.212,0.119l-0.211,0.119l-0.21,0.12l-0.21,0.121l-0.21,0.122l-0.208,0.122l-0.209,0.124l-0.207,0.124l-0.207,0.124l-0.207,0.126l-0.206,0.126l-0.206,0.127l-0.204,0.128l-0.205,0.129l-0.204,0.129l-0.203,0.13l-0.202,0.131l-0.202,0.131l-0.159,0.105l-0.043,0.028l-0.202,0.131l-0.201,0.133l-0.2,0.133l-0.2,0.134l-0.199,0.135l-0.199,0.136l-0.198,0.136l-0.198,0.137l-0.197,0.138l-0.196,0.138l-0.196,0.14l-0.195,0.14l-0.195,0.14l-0.194,0.142l-0.193,0.142l-0.193,0.143l-0.192,0.144l-0.192,0.144l-0.19,0.145l-0.191,0.146l-0.189,0.147l-0.189,0.147l-0.189,0.148l-0.188,0.149l-0.187,0.149l-0.186,0.15l-0.186,0.151l-0.185,0.152l-0.185,0.152l-0.184,0.153l-0.183,0.154l-0.183,0.154l-0.182,0.155l-0.181,0.156l-0.18,0.157l-0.18,0.157l-0.18,0.158l-0.178,0.158l-0.178,0.16l-0.159,0.143l-0.019,0.016l-0.177,0.16l-0.177,0.161l-0.176,0.161l-0.175,0.162l-0.175,0.163l-0.174,0.163l-0.173,0.165l-0.173,0.164l-0.172,0.166l-0.171,0.166l-0.171,0.167l-0.169,0.167l-0.17,0.168l-0.168,0.169l-0.168,0.17l-0.167,0.17l-0.166,0.171l-0.166,0.171l-0.165,0.173l-0.164,0.173l-0.164,0.173l-0.162,0.174l-0.163,0.175l-0.161,0.176l-0.161,0.176l-0.16,0.177l-0.159,0.177l-0.158,0.179l-0.158,0.178l-0.157,0.18l-0.156,0.18l-0.156,0.181l-0.154,0.181l-0.155,0.182l-0.153,0.183l-0.152,0.183l-0.152,0.184l-0.151,0.185l-0.15,0.185l-0.15,0.186l-0.149,0.187l-0.148,0.187l-0.086,0.11l-0.061,0.078l-0.147,0.188l-0.146,0.188l-0.146,0.19l-0.145,0.19l-0.144,0.19l-0.143,0.191l-0.142,0.192l-0.142,0.193l-0.141,0.193l-0.14,0.193l-0.139,0.195l-0.138,0.195l-0.138,0.195l-0.137,0.196l-0.136,0.197l-0.135,0.198l-0.135,0.198l-0.133,0.198l-0.133,0.199l-0.132,0.2l-0.132,0.201l-0.13,0.201l-0.13,0.202l-0.128,0.202l-0.128,0.203l-0.127,0.203l-0.127,0.204l-0.125,0.205l-0.125,0.205l-0.124,0.206l-0.123,0.207l-0.122,0.207l-0.121,0.207l-0.12,0.209l-0.12,0.208l-0.119,0.21l-0.118,0.21l-0.117,0.21l-0.116,0.212l-0.115,0.211l-0.115,0.213l-0.113,0.213l-0.104,0.196l-0.009,0.017l-0.113,0.214l-0.111,0.214l-0.111,0.215l-0.11,0.216l-0.109,0.216l-0.108,0.216l-0.107,0.217l-0.107,0.218l-0.105,0.219l-0.105,0.218l-0.104,0.22l-0.102,0.22l-0.102,0.221l-0.101,0.221l-0.1,0.222l-0.1,0.222l-0.098,0.223l-0.097,0.223l-0.097,0.224l-0.095,0.225l-0.095,0.225l-0.094,0.225l-0.093,0.227l-0.092,0.226l-0.091,0.228l-0.09,0.227l-0.089,0.229l-0.088,0.229l-0.087,0.229l-0.086,0.23l-0.086,0.231l-0.084,0.231l-0.084,0.232l-0.082,0.232l-0.082,0.233l-0.08,0.233l-0.08,0.234l-0.079,0.234l-0.077,0.235l-0.077,0.235l-0.076,0.236l-0.075,0.236l-0.074,0.237l-0.073,0.238l-0.072,0.238l-0.07,0.238l-0.07,0.24l-0.069,0.239l-0.068,0.24l-0.067,0.241l-0.066,0.241l-0.065,0.242l-0.064,0.242l-0.063,0.242l-0.062,0.244l-0.061,0.243l-0.06,0.244l-0.059,0.245l-0.058,0.245l-0.057,0.246l-0.056,0.246l-0.055,0.247l-0.054,0.247l-0.053,0.248l-0.051,0.248l-0.051,0.249l-0.05,0.249l-0.049,0.249l-0.047,0.251l-0.047,0.25l-0.046,0.251l-0.044,0.252l-0.044,0.252l-0.042,0.253l-0.041,0.253l-0.041,0.253l-0.039,0.254l-0.038,0.255l-0.037,0.255l-0.036,0.255l-0.011,0.079l-0.025,0.177l-0.034,0.257l-0.034,0.257l-0.032,0.257l-0.031,0.258l-0.03,0.258l-0.029,0.259l-0.028,0.259l-0.027,0.26l-0.026,0.26l-0.025,0.26l-0.023,0.261l-0.023,0.262l-0.021,0.262l-0.021,0.262l-0.019,0.263l-0.018,0.264l-0.017,0.264l-0.015,0.264l-0.015,0.265l-0.014,0.265l-0.012,0.265l-0.011,0.267l-0.011,0.266l-0.009,0.267l-0.008,0.268l-0.006,0.267l-0.006,0.269l-0.004,0.269l-0.004,0.269l-0.002,0.269l-0.001,0.271l0,0.27l0.002,0.271l0.002,0.271l0.004,0.272l0.005,0.272l0.006,0.273l0.007,0.273l0.008,0.274l0.01,0.274l0.01,0.274l0.012,0.275l0.013,0.275l0.015,0.276l0.015,0.276l0.017,0.276l0.018,0.277l0.019,0.278l0.02,0.277l0.022,0.278l0.022,0.279l0.024,0.279l0.026,0.279l0.026,0.28l0.028,0.28l0.028,0.281l0.03,0.281l0.032,0.281l0.017,0.15l0.015,0.132l0.034,0.284l-2.442,0.349l-0.048,-0.288l-0.022,-0.135l-0.024,-0.155l-0.046,-0.29l-0.044,-0.29l-0.043,-0.289l-0.042,-0.289l-0.04,-0.289l-0.039,-0.289l-0.038,-0.288l-0.037,-0.288l-0.035,-0.288l-0.034,-0.287l-0.033,-0.287l-0.031,-0.287l-0.03,-0.287l-0.029,-0.286l-0.028,-0.286l-0.027,-0.286l-0.025,-0.285l-0.024,-0.285l-0.022,-0.285l-0.022,-0.285l-0.02,-0.284l-0.019,-0.284l-0.018,-0.284l-0.017,-0.283l-0.015,-0.283l-0.014,-0.283l-0.013,-0.282l-0.011,-0.282l-0.011,-0.282l-0.009,-0.281l-0.008,-0.281l-0.007,-0.281l-0.005,-0.28l-0.004,-0.28l-0.003,-0.28l-0.002,-0.279l-0.001,-0.28l0.001,-0.278l0.001,-0.279l0.003,-0.278l0.004,-0.278l0.006,-0.277l0.006,-0.277l0.008,-0.277l0.009,-0.276l0.01,-0.276l0.011,-0.276l0.013,-0.275l0.013,-0.275l0.015,-0.274l0.016,-0.274l0.018,-0.274l0.018,-0.274l0.019,-0.273l0.021,-0.272l0.022,-0.273l0.023,-0.272l0.024,-0.271l0.018,-0.188l0.008,-0.083l0.027,-0.271l0.028,-0.271l0.03,-0.27l0.03,-0.269l0.032,-0.269l0.033,-0.269l0.034,-0.268l0.035,-0.268l0.036,-0.268l0.038,-0.267l0.038,-0.267l0.04,-0.266l0.041,-0.266l0.042,-0.266l0.043,-0.265l0.044,-0.265l0.045,-0.264l0.047,-0.264l0.047,-0.263l0.049,-0.263l0.05,-0.263l0.05,-0.262l0.052,-0.262l0.054,-0.261l0.054,-0.261l0.055,-0.26l0.056,-0.26l0.058,-0.26l0.059,-0.259l0.059,-0.259l0.061,-0.258l0.062,-0.258l0.063,-0.257l0.064,-0.257l0.065,-0.256l0.066,-0.256l0.067,-0.256l0.069,-0.255l0.069,-0.254l0.071,-0.254l0.071,-0.254l0.073,-0.253l0.073,-0.253l0.075,-0.252l0.076,-0.252l0.077,-0.251l0.078,-0.251l0.078,-0.25l0.08,-0.25l0.081,-0.249l0.083,-0.249l0.083,-0.248l0.084,-0.248l0.085,-0.247l0.086,-0.247l0.087,-0.247l0.089,-0.245l0.089,-0.246l0.09,-0.245l0.092,-0.244l0.092,-0.244l0.093,-0.243l0.095,-0.243l0.095,-0.242l0.097,-0.242l0.097,-0.241l0.098,-0.241l0.1,-0.24l0.1,-0.24l0.102,-0.239l0.102,-0.239l0.103,-0.238l0.105,-0.238l0.105,-0.237l0.107,-0.236l0.107,-0.236l0.108,-0.236l0.11,-0.234l0.11,-0.235l0.111,-0.234l0.009,-0.019l0.104,-0.214l0.114,-0.232l0.115,-0.232l0.115,-0.231l0.117,-0.231l0.118,-0.23l0.119,-0.229l0.119,-0.229l0.121,-0.229l0.121,-0.227l0.123,-0.228l0.123,-0.226l0.124,-0.227l0.125,-0.225l0.127,-0.225l0.127,-0.224l0.128,-0.224l0.129,-0.223l0.13,-0.223l0.13,-0.222l0.132,-0.221l0.133,-0.221l0.133,-0.22l0.135,-0.22l0.135,-0.219l0.137,-0.218l0.137,-0.218l0.138,-0.217l0.139,-0.217l0.14,-0.216l0.14,-0.215l0.142,-0.215l0.143,-0.214l0.143,-0.214l0.144,-0.213l0.146,-0.212l0.146,-0.212l0.147,-0.211l0.147,-0.21l0.149,-0.21l0.15,-0.209l0.15,-0.208l0.151,-0.208l0.064,-0.087l0.089,-0.12l0.154,-0.206l0.154,-0.206l0.155,-0.205l0.156,-0.204l0.157,-0.203l0.158,-0.203l0.159,-0.203l0.159,-0.201l0.161,-0.201l0.161,-0.2l0.162,-0.2l0.163,-0.199l0.163,-0.198l0.165,-0.198l0.165,-0.197l0.166,-0.196l0.167,-0.195l0.168,-0.195l0.169,-0.194l0.169,-0.194l0.17,-0.193l0.171,-0.192l0.172,-0.191l0.172,-0.191l0.174,-0.19l0.174,-0.19l0.175,-0.188l0.176,-0.188l0.176,-0.188l0.177,-0.186l0.178,-0.186l0.179,-0.185l0.18,-0.185l0.18,-0.184l0.182,-0.183l0.181,-0.182l0.183,-0.182l0.184,-0.181l0.184,-0.18l0.185,-0.18l0.186,-0.178l0.186,-0.179l0.019,-0.018l0.169,-0.158l0.189,-0.176l0.189,-0.175l0.19,-0.175l0.191,-0.173l0.192,-0.173l0.192,-0.172l0.193,-0.172l0.194,-0.171l0.194,-0.17l0.195,-0.169l0.196,-0.168l0.197,-0.168l0.197,-0.167l0.198,-0.166l0.199,-0.166l0.2,-0.164l0.2,-0.164l0.201,-0.164l0.201,-0.162l0.202,-0.162l0.203,-0.161l0.204,-0.16l0.204,-0.159l0.205,-0.159l0.206,-0.157l0.206,-0.157l0.207,-0.157l0.208,-0.155l0.208,-0.155l0.21,-0.154l0.209,-0.153l0.211,-0.152l0.211,-0.152l0.211,-0.151l0.213,-0.15l0.213,-0.149l0.213,-0.148l0.215,-0.148l0.215,-0.147l0.045,-0.03l0.171,-0.115l0.217,-0.143l0.217,-0.144l0.219,-0.142l0.219,-0.141l0.219,-0.141l0.22,-0.14l0.221,-0.139l0.221,-0.138l0.222,-0.137l0.223,-0.137l0.223,-0.136l0.224,-0.135l0.224,-0.134l0.225,-0.133l0.226,-0.132l0.226,-0.132l0.227,-0.131l0.227,-0.13l0.228,-0.129l0.229,-0.128l0.229,-0.127l0.23,-0.127l0.23,-0.126l0.231,-0.124l0.231,-0.124l0.232,-0.124l0.233,-0.122l0.233,-0.121l0.233,-0.121l0.235,-0.12l0.234,-0.119l0.236,-0.118l0.235,-0.117l0.237,-0.116l0.237,-0.115l0.009,-0.005l0.229,-0.108l0.239,-0.112l0.239,-0.111l0.24,-0.11l0.241,-0.11l0.24,-0.108l0.242,-0.108l0.242,-0.106l0.242,-0.106l0.243,-0.105l0.244,-0.104l0.243,-0.103l0.245,-0.102l0.245,-0.102l0.245,-0.1l0.246,-0.1l0.247,-0.098l0.017,-0.007l0.23,-0.09l0.248,-0.095l0.248,-0.095l0.249,-0.093l0.249,-0.093l0.25,-0.092l0.25,-0.091l0.251,-0.09l0.251,-0.089l0.252,-0.088l0.252,-0.087l0.252,-0.086l0.253,-0.086l0.253,-0.084l0.254,-0.084l0.254,-0.082l0.255,-0.082l0.205,-0.065l0.05,-0.015l0.256,-0.078l0.257,-0.078l0.256,-0.076l0.258,-0.075l0.257,-0.075l0.258,-0.073l0.259,-0.073l0.259,-0.071l0.259,-0.071l0.26,-0.069l0.26,-0.069l0.26,-0.068l0.261,-0.067l0.261,-0.065l0.262,-0.065l0.261,-0.064l0.263,-0.063l0.263,-0.062l0.263,-0.061l0.263,-0.06l0.264,-0.059l0.264,-0.058l0.264,-0.057l0.265,-0.056l0.266,-0.055l0.265,-0.054l0.266,-0.054l0.266,-0.052l0.267,-0.051l0.267,-0.05l0.267,-0.049l0.268,-0.048l0.268,-0.048l0.268,-0.046l0.269,-0.045l0.269,-0.044l0.043,-0.007l0.226,-0.035l0.27,-0.041l0.27,-0.04l0.271,-0.038l0.27,-0.038l0.271,-0.036l0.272,-0.036l0.271,-0.035l0.272,-0.033l0.273,-0.033l0.272,-0.031l0.273,-0.031l0.273,-0.029l0.273,-0.029l0.274,-0.027l0.274,-0.027l0.274,-0.025l0.274,-0.025l0.275,-0.023l0.275,-0.022l0.275,-0.022l0.276,-0.02l0.276,-0.019l0.275,-0.018l0.277,-0.017l0.276,-0.017l0.277,-0.015l0.277,-0.014l0.277,-0.013l0.277,-0.012l0.278,-0.011l0.278,-0.009l0.278,-0.009l0.278,-0.008l0.279,-0.007l0.226,-0.004l0.053,-0.001l0.279,-0.004l0.279,-0.002l0.279,-0.001l0.28,-0.001l0.28,0.001Z" style="fill:#809b40;" />
            <path d="M202.304,15.206l-0.056,0.066l-0.052,0.061l-0.052,0.061l-0.05,0.061l-0.051,0.061l-0.05,0.062l-0.049,0.061l-0.049,0.061l-0.049,0.062l-0.048,0.062l-0.047,0.061l-0.047,0.062l-0.047,0.062l-0.046,0.061l-0.046,0.062l-0.045,0.062l-0.045,0.062l-0.044,0.062l-0.044,0.062l-0.043,0.062l-0.043,0.062l-0.043,0.062l-0.042,0.063l-0.041,0.062l-0.041,0.062l-0.041,0.063l-0.04,0.062l-0.04,0.063l-0.039,0.063l-0.039,0.062l-0.039,0.063l-0.038,0.063l-0.038,0.063l-0.037,0.063l-0.037,0.063l-0.036,0.063l-0.036,0.063l-0.036,0.063l-0.035,0.064l-0.035,0.063l-0.034,0.064l-0.034,0.063l-0.033,0.064l-0.034,0.063l-0.032,0.064l-0.033,0.064l-0.032,0.064l-0.031,0.064l-0.031,0.064l-0.031,0.064l-0.03,0.065l-0.03,0.064l-0.03,0.064l-0.029,0.065l-0.029,0.065l-0.028,0.064l-0.028,0.065l-0.028,0.065l-0.027,0.065l-0.028,0.065l-0.026,0.065l-0.026,0.065l-0.026,0.066l-0.025,0.065l-0.026,0.065l-0.024,0.066l-0.025,0.066l-0.024,0.066l-0.023,0.066l-0.024,0.066l-0.023,0.066l-0.022,0.066l-0.022,0.066l-0.022,0.067l-0.022,0.067l-0.021,0.066l-0.021,0.067l-0.02,0.067l-0.02,0.067l-0.02,0.067l-0.019,0.067l-0.019,0.067l-0.019,0.068l-0.019,0.067l-0.018,0.068l-0.017,0.068l-0.018,0.068l-0.017,0.068l-0.016,0.068l-0.017,0.068l-0.016,0.069l-0.015,0.068l-0.016,0.069l-0.015,0.069l-0.015,0.069l-0.014,0.069l-0.014,0.069l-0.014,0.069l-0.013,0.07l-0.013,0.069l-0.013,0.07l-0.012,0.07l-0.012,0.069l-0.012,0.071l-0.011,0.07l-0.012,0.07l-0.01,0.071l-0.011,0.07l-0.01,0.071l-0.01,0.071l-0.009,0.071l-0.009,0.071l-0.009,0.071l-0.009,0.072l-0.008,0.071l-0.008,0.072l-0.008,0.072l-0.007,0.069l-0.014,0.147l-0.012,0.145l-0.011,0.145l-0.01,0.146l-0.009,0.147l-0.007,0.147l-0.006,0.148l-0.005,0.148l-0.004,0.149l-0.003,0.149l-0.001,0.15l0,0.151l0.001,0.151l0.002,0.151l0.003,0.153l0.005,0.152l0.006,0.153l0.007,0.154l0.008,0.155l0.009,0.155l0.01,0.155l0.012,0.156l0.012,0.157l0.014,0.157l0.015,0.157l0.016,0.159l0.017,0.158l0.019,0.16l0.019,0.159l0.02,0.161l0.022,0.161l0.023,0.161l0.023,0.162l0.025,0.162l0.026,0.163l0.027,0.163l0.028,0.164l0.029,0.165l0.03,0.164l0.031,0.166l0.032,0.166l0.033,0.166l0.034,0.166l0.035,0.168l0.036,0.167l0.037,0.169l0.038,0.168l0.039,0.169l0.04,0.17l0.041,0.17l0.042,0.17l0.043,0.171l0.044,0.171l0.044,0.171l0.046,0.173l0.046,0.172l0.047,0.173l0.049,0.173l0.049,0.174l0.049,0.174l0.051,0.174l0.052,0.175l0.052,0.176l0.053,0.175l0.054,0.176l0.055,0.177l0.056,0.176l0.056,0.177l0.058,0.178l0.058,0.178l0.058,0.178l0.06,0.178l0.06,0.179l0.061,0.179l0.062,0.18l0.062,0.18l0.063,0.18l0.064,0.18l0.064,0.181l0.066,0.181l0.065,0.182l0.067,0.182l0.067,0.182l0.068,0.182l0.068,0.183l0.069,0.183l0.069,0.183l0.071,0.183l0.07,0.184l0.071,0.184l0.072,0.185l0.073,0.184l0.073,0.185l0.073,0.185l0.074,0.186l0.074,0.186l0.075,0.184l0.152,0.374l0.153,0.374l0.155,0.374l0.157,0.376l0.158,0.376l0.16,0.377l0.161,0.378l0.163,0.379l0.164,0.38l0.165,0.38l0.166,0.381l0.168,0.382l0.168,0.383l0.169,0.383l0.17,0.384l0.17,0.385l0.343,0.771l0.691,1.549l0.346,0.778l0.345,0.779l0.173,0.391l0.172,0.391l0.172,0.391l0.171,0.392l0.171,0.392l0.17,0.392l0.169,0.393l0.169,0.393l0.167,0.394l0.167,0.393l0.165,0.394l0.165,0.395l0.162,0.394l0.162,0.395l0.16,0.394l0.08,0.199l0.079,0.197l0.078,0.198l0.079,0.198l0.077,0.197l0.078,0.198l0.077,0.198l0.076,0.198l0.076,0.198l0.076,0.198l0.075,0.198l0.074,0.199l0.074,0.198l0.074,0.198l0.073,0.198l0.072,0.199l0.072,0.198l0.07,0.195l-4.705,1.691l-0.068,-0.189l-0.068,-0.187l-0.068,-0.186l-0.068,-0.187l-0.07,-0.187l-0.07,-0.187l-0.07,-0.187l-0.071,-0.187l-0.072,-0.188l-0.072,-0.188l-0.072,-0.188l-0.074,-0.188l-0.073,-0.188l-0.074,-0.189l-0.075,-0.189l-0.075,-0.189l-0.076,-0.189l-0.076,-0.188l-0.154,-0.38l-0.155,-0.38l-0.157,-0.38l-0.159,-0.381l-0.16,-0.381l-0.161,-0.382l-0.163,-0.383l-0.164,-0.383l-0.166,-0.383l-0.166,-0.384l-0.167,-0.384l-0.168,-0.385l-0.17,-0.385l-0.169,-0.385l-0.171,-0.386l-0.343,-0.773l-0.344,-0.774l-0.69,-1.55l-0.345,-0.775l-0.173,-0.389l-0.172,-0.388l-0.171,-0.389l-0.171,-0.388l-0.17,-0.389l-0.17,-0.389l-0.168,-0.389l-0.168,-0.388l-0.167,-0.389l-0.166,-0.389l-0.165,-0.389l-0.164,-0.389l-0.162,-0.389l-0.161,-0.388l-0.159,-0.389l-0.158,-0.388l-0.078,-0.195l-0.078,-0.194l-0.078,-0.195l-0.077,-0.194l-0.077,-0.194l-0.076,-0.194l-0.075,-0.194l-0.075,-0.195l-0.075,-0.194l-0.074,-0.194l-0.074,-0.194l-0.073,-0.194l-0.073,-0.194l-0.072,-0.194l-0.071,-0.194l-0.071,-0.194l-0.07,-0.194l-0.07,-0.193l-0.069,-0.194l-0.069,-0.194l-0.067,-0.194l-0.068,-0.193l-0.066,-0.194l-0.066,-0.194l-0.065,-0.193l-0.065,-0.194l-0.063,-0.193l-0.064,-0.194l-0.062,-0.193l-0.062,-0.194l-0.06,-0.193l-0.061,-0.193l-0.059,-0.193l-0.058,-0.194l-0.058,-0.193l-0.057,-0.193l-0.056,-0.193l-0.056,-0.193l-0.054,-0.193l-0.054,-0.193l-0.053,-0.193l-0.051,-0.193l-0.051,-0.192l-0.05,-0.193l-0.05,-0.193l-0.048,-0.193l-0.047,-0.192l-0.047,-0.193l-0.045,-0.192l-0.044,-0.193l-0.044,-0.192l-0.042,-0.193l-0.042,-0.192l-0.04,-0.192l-0.039,-0.193l-0.038,-0.192l-0.038,-0.192l-0.036,-0.192l-0.035,-0.192l-0.034,-0.192l-0.032,-0.192l-0.032,-0.192l-0.03,-0.192l-0.03,-0.191l-0.028,-0.192l-0.027,-0.192l-0.025,-0.191l-0.025,-0.192l-0.023,-0.191l-0.022,-0.192l-0.021,-0.191l-0.019,-0.192l-0.018,-0.191l-0.017,-0.191l-0.015,-0.191l-0.015,-0.191l-0.012,-0.191l-0.012,-0.191l-0.01,-0.191l-0.008,-0.191l-0.007,-0.191l-0.006,-0.19l-0.004,-0.191l-0.003,-0.19l-0.001,-0.191l0,-0.19l0.002,-0.19l0.003,-0.19l0.005,-0.19l0.006,-0.19l0.008,-0.19l0.01,-0.189l0.011,-0.19l0.013,-0.189l0.014,-0.189l0.017,-0.189l0.017,-0.186l0.01,-0.098l0.01,-0.094l0.01,-0.094l0.011,-0.094l0.011,-0.095l0.012,-0.094l0.012,-0.094l0.013,-0.094l0.013,-0.094l0.013,-0.094l0.014,-0.094l0.015,-0.094l0.015,-0.094l0.015,-0.093l0.016,-0.094l0.016,-0.094l0.016,-0.094l0.017,-0.093l0.018,-0.094l0.018,-0.093l0.018,-0.093l0.019,-0.094l0.02,-0.093l0.02,-0.093l0.02,-0.093l0.021,-0.093l0.021,-0.093l0.022,-0.093l0.022,-0.093l0.023,-0.093l0.023,-0.092l0.024,-0.093l0.024,-0.093l0.025,-0.092l0.025,-0.092l0.025,-0.093l0.026,-0.092l0.027,-0.092l0.027,-0.092l0.028,-0.092l0.028,-0.092l0.028,-0.092l0.03,-0.092l0.029,-0.091l0.03,-0.092l0.031,-0.091l0.031,-0.091l0.032,-0.091l0.032,-0.091l0.032,-0.092l0.033,-0.091l0.034,-0.09l0.034,-0.091l0.035,-0.09l0.035,-0.091l0.036,-0.09l0.036,-0.09l0.037,-0.091l0.037,-0.09l0.038,-0.09l0.038,-0.089l0.039,-0.09l0.039,-0.089l0.04,-0.09l0.041,-0.089l0.041,-0.089l0.041,-0.089l0.042,-0.089l0.043,-0.089l0.043,-0.088l0.043,-0.089l0.044,-0.088l0.045,-0.088l0.045,-0.088l0.046,-0.088l0.046,-0.088l0.047,-0.088l0.047,-0.087l0.048,-0.087l0.048,-0.087l0.049,-0.087l0.05,-0.087l0.05,-0.087l0.05,-0.087l0.051,-0.086l0.052,-0.086l0.052,-0.086l0.053,-0.086l0.053,-0.086l0.054,-0.085l0.054,-0.086l0.055,-0.085l0.056,-0.085l0.056,-0.085l0.056,-0.085l0.057,-0.084l0.058,-0.085l0.058,-0.084l0.059,-0.084l0.059,-0.084l0.059,-0.083l0.061,-0.084l0.061,-0.083l0.061,-0.083l0.062,-0.083l0.062,-0.083l0.064,-0.083l0.063,-0.082l0.064,-0.082l0.065,-0.082l0.065,-0.082l0.066,-0.082l0.067,-0.081l0.066,-0.082l0.068,-0.081l0.068,-0.081l0.068,-0.08l0.065,-0.076l3.794,3.257Z" style="fill:#809b40;" />
            <path d="M91.692,19.582l0.051,0.237l0.05,0.237l0.048,0.238l0.047,0.237l0.046,0.239l0.045,0.238l0.043,0.239l0.043,0.24l0.041,0.239l0.04,0.24l0.039,0.241l0.037,0.241l0.037,0.241l0.035,0.242l0.034,0.242l0.033,0.242l0.032,0.243l0.031,0.243l0.029,0.243l0.028,0.244l0.028,0.244l0.026,0.244l0.025,0.245l0.024,0.245l0.023,0.246l0.021,0.245l0.021,0.246l0.02,0.247l0.018,0.246l0.018,0.247l0.016,0.247l0.015,0.248l0.014,0.247l0.013,0.249l0.012,0.248l0.011,0.249l0.01,0.249l0.009,0.249l0.008,0.249l0.007,0.25l0.006,0.25l0.005,0.25l0.004,0.251l0.002,0.25l0.002,0.251l0.001,0.252l0,0.251l-0.001,0.252l-0.003,0.252l-0.003,0.252l-0.004,0.252l-0.005,0.253l-0.006,0.253l-0.007,0.253l-0.008,0.253l-0.009,0.254l-0.01,0.254l-0.011,0.254l-0.011,0.254l-0.013,0.254l-0.014,0.255l-0.014,0.254l-0.016,0.255l-0.016,0.256l-0.017,0.255l-0.019,0.255l-0.019,0.256l-0.02,0.256l-0.02,0.256l-0.022,0.256l-0.023,0.256l-0.023,0.257l-0.025,0.257l-0.025,0.257l-0.026,0.256l-0.027,0.258l-0.028,0.257l-0.028,0.257l-0.03,0.258l-0.03,0.257l-0.031,0.258l-0.032,0.258l-0.033,0.258l-0.034,0.259l-0.034,0.258l-0.036,0.258l-0.036,0.259l-0.036,0.259l-0.038,0.258l-0.039,0.259l-0.039,0.259l-0.04,0.259l-0.041,0.26l-0.041,0.259l-0.043,0.259l-0.043,0.26l-0.044,0.259l-0.044,0.26l-0.046,0.259l-0.046,0.26l-0.047,0.26l-0.047,0.26l-0.049,0.26l-0.049,0.26l-0.05,0.26l-0.05,0.26l-0.051,0.26l-0.052,0.26l-0.053,0.261l-0.053,0.26l-0.055,0.26l-0.054,0.261l-0.056,0.26l-0.056,0.261l-0.057,0.26l-0.057,0.261l-0.059,0.26l-0.058,0.261l-0.06,0.26l-0.06,0.261l-0.061,0.26l-0.061,0.261l-0.063,0.26l-0.062,0.261l-0.064,0.26l-0.064,0.261l-0.065,0.26l-0.065,0.261l-0.066,0.26l-0.066,0.261l-0.068,0.26l-0.067,0.261l-0.069,0.26l-0.069,0.26l-0.069,0.26l-0.07,0.261l-0.071,0.26l-0.072,0.26l-0.072,0.26l-0.072,0.26l-0.073,0.26l-0.074,0.26l-0.074,0.26l-0.075,0.26l-0.075,0.259l-0.076,0.26l-0.076,0.26l-0.077,0.259l-0.078,0.259l-0.078,0.26l-0.078,0.259l-0.079,0.259l-0.08,0.259l-0.08,0.259l-0.081,0.259l-0.081,0.258l-0.081,0.259l-0.083,0.258l-0.082,0.259l-0.083,0.258l-0.084,0.258l-0.084,0.258l-0.085,0.258l-0.085,0.257l-0.085,0.258l-0.086,0.257l-0.087,0.258l-0.086,0.257l-0.088,0.257l-0.088,0.256l-0.088,0.257l-0.088,0.257l-0.09,0.256l-0.089,0.256l-0.09,0.256l-0.091,0.256l-0.09,0.255l-0.092,0.256l-0.091,0.255l-0.092,0.255l-0.093,0.255l-0.093,0.255l-0.093,0.254l-0.094,0.254l-0.094,0.255l-0.094,0.253l-0.095,0.254l-0.095,0.253l-0.095,0.254l-0.096,0.253l-0.097,0.252l-0.096,0.253l-0.097,0.252l-0.098,0.252l-0.097,0.252l-0.098,0.252l-0.099,0.251l-0.098,0.251l-0.099,0.251l-0.1,0.251l-0.099,0.25l-0.1,0.25l-0.101,0.25l-0.1,0.249l-0.101,0.249l-0.101,0.249l-0.102,0.25l-0.204,0.496l-0.205,0.495l-0.206,0.494l-0.207,0.493l-0.208,0.492l-0.209,0.49l-0.21,0.489l-0.211,0.488l-0.212,0.486l-0.213,0.485l-0.214,0.484l-0.214,0.482l-0.216,0.481l-0.216,0.479l-0.216,0.478l-0.218,0.476l-0.218,0.475l-0.218,0.473l-0.219,0.471l-0.22,0.47l-0.22,0.468l-0.221,0.466l-0.221,0.465l-0.222,0.463l-0.222,0.461l-0.222,0.459l-0.223,0.457l-0.222,0.456l-0.224,0.453l-0.223,0.452l-0.223,0.45l-0.224,0.447l-0.224,0.446l-0.224,0.443l-0.223,0.442l-0.224,0.439l-0.224,0.438l-0.224,0.435l-0.224,0.433l-0.223,0.431l-0.224,0.428l-0.223,0.426l-0.223,0.424l-0.223,0.422l-0.223,0.419l-0.222,0.417l-0.222,0.414l-0.221,0.412l-0.221,0.41l-0.221,0.407l-0.22,0.405l-0.22,0.402l-0.219,0.399l-0.219,0.397l-0.217,0.394l-0.218,0.391l-0.216,0.389l-0.216,0.386l-0.215,0.384l-0.215,0.38l-0.213,0.378l-0.213,0.375l-0.212,0.372l-0.211,0.369l-0.21,0.366l-0.209,0.364l-0.208,0.36l-0.207,0.358l-0.206,0.354l-0.205,0.351l-0.204,0.348l-0.202,0.345l-0.202,0.342l-0.2,0.339l-0.199,0.336l-0.197,0.332l-0.197,0.329l-0.194,0.326l-0.194,0.323l-0.192,0.319l-0.191,0.315l-0.189,0.313l-0.187,0.309l-0.186,0.305l-0.185,0.302l-0.183,0.299l-0.181,0.295l-0.179,0.291l-0.178,0.288l-0.176,0.285l-0.174,0.28l-0.172,0.277l-0.171,0.273l-0.169,0.27l-0.331,0.527l-0.323,0.513l-0.316,0.496l-0.306,0.481l-0.299,0.466l-0.289,0.449l-0.279,0.432l-0.271,0.416l-0.26,0.399l-0.095,0.144l0.301,-0.001l0.61,-0.005l0.608,-0.005l0.605,-0.006l0.602,-0.007l0.599,-0.008l0.596,-0.008l0.594,-0.01l0.59,-0.01l0.588,-0.012l0.585,-0.012l0.582,-0.013l0.58,-0.014l0.576,-0.015l0.574,-0.015l0.571,-0.017l0.569,-0.017l0.566,-0.018l0.563,-0.019l0.56,-0.02l0.558,-0.021l0.555,-0.021l0.552,-0.022l0.549,-0.024l0.547,-0.024l0.545,-0.025l0.541,-0.025l0.539,-0.027l0.537,-0.027l0.534,-0.028l0.531,-0.029l0.528,-0.03l0.526,-0.031l0.524,-0.031l0.521,-0.033l0.518,-0.033l0.516,-0.034l0.513,-0.035l0.511,-0.035l0.508,-0.037l0.506,-0.037l0.503,-0.038l0.501,-0.039l0.498,-0.039l0.496,-0.041l0.493,-0.041l0.491,-0.042l0.489,-0.043l0.486,-0.044l0.483,-0.044l0.482,-0.045l0.478,-0.046l0.477,-0.047l0.474,-0.048l0.472,-0.048l0.469,-0.049l0.467,-0.05l0.465,-0.051l0.462,-0.051l0.46,-0.053l0.458,-0.053l0.455,-0.053l0.453,-0.055l0.451,-0.055l0.449,-0.056l0.446,-0.057l0.444,-0.058l0.442,-0.058l0.44,-0.06l0.437,-0.059l0.435,-0.061l0.433,-0.062l0.431,-0.062l0.429,-0.063l0.426,-0.063l0.424,-0.065l0.422,-0.065l0.42,-0.066l0.418,-0.067l0.416,-0.067l0.414,-0.068l0.411,-0.069l0.409,-0.07l0.408,-0.07l0.405,-0.071l0.403,-0.072l0.401,-0.072l0.4,-0.074l0.397,-0.074l0.395,-0.074l0.393,-0.076l0.391,-0.076l0.389,-0.077l0.387,-0.077l0.385,-0.078l0.383,-0.079l0.381,-0.08l0.38,-0.08l0.377,-0.082l0.375,-0.081l0.374,-0.083l0.371,-0.083l0.37,-0.084l0.368,-0.084l0.366,-0.086l0.364,-0.086l0.362,-0.086l0.36,-0.088l0.359,-0.088l0.357,-0.088l0.355,-0.09l0.353,-0.09l0.351,-0.091l0.35,-0.091l0.347,-0.092l0.346,-0.093l0.345,-0.093l0.342,-0.095l0.341,-0.094l0.339,-0.096l0.337,-0.096l0.336,-0.097l0.334,-0.097l0.332,-0.098l0.331,-0.099l0.329,-0.099l0.327,-0.101l0.326,-0.1l0.324,-0.102l0.323,-0.102l0.32,-0.102l0.32,-0.104l0.318,-0.104l0.316,-0.104l0.314,-0.105l0.313,-0.106l0.312,-0.107l0.31,-0.107l0.308,-0.108l0.307,-0.108l0.305,-0.109l0.304,-0.11l0.303,-0.11l0.301,-0.111l0.299,-0.112l0.298,-0.112l0.297,-0.113l0.295,-0.113l0.294,-0.114l0.292,-0.115l0.291,-0.115l0.29,-0.116l0.288,-0.117l0.287,-0.117l0.286,-0.118l0.284,-0.118l0.283,-0.119l0.281,-0.119l0.281,-0.121l0.278,-0.12l0.278,-0.122l0.277,-0.122l0.275,-0.122l0.274,-0.123l0.272,-0.124l0.272,-0.125l0.27,-0.125l0.269,-0.125l0.268,-0.126l0.266,-0.127l0.266,-0.127l0.264,-0.128l0.263,-0.129l0.262,-0.129l0.261,-0.13l0.259,-0.13l0.259,-0.131l0.257,-0.131l0.257,-0.132l0.255,-0.133l0.254,-0.133l0.253,-0.134l0.253,-0.134l0.251,-0.135l0.25,-0.135l0.249,-0.137l0.248,-0.136l0.247,-0.137l0.246,-0.138l0.245,-0.139l0.244,-0.139l0.243,-0.139l0.242,-0.14l0.242,-0.141l0.24,-0.141l0.24,-0.142l0.238,-0.142l0.238,-0.143l0.237,-0.144l0.236,-0.144l0.235,-0.144l0.234,-0.145l0.233,-0.146l0.233,-0.146l0.232,-0.147l0.231,-0.148l0.23,-0.148l0.229,-0.148l0.229,-0.149l0.228,-0.15l0.227,-0.15l0.226,-0.151l0.226,-0.151l0.225,-0.152l0.224,-0.153l0.223,-0.153l0.223,-0.153l0.222,-0.154l0.222,-0.155l0.221,-0.155l0.22,-0.156l0.219,-0.156l0.219,-0.157l0.219,-0.157l0.217,-0.158l0.217,-0.159l0.217,-0.159l0.216,-0.16l0.215,-0.16l0.215,-0.16l0.214,-0.161l0.214,-0.162l0.213,-0.163l0.213,-0.162l0.212,-0.164l0.212,-0.164l0.211,-0.164l0.211,-0.165l0.21,-0.166l0.21,-0.166l0.209,-0.166l0.209,-0.168l0.209,-0.167l0.208,-0.168l0.208,-0.169l0.207,-0.169l0.207,-0.17l0.207,-0.171l0.206,-0.17l0.206,-0.172l0.205,-0.172l0.206,-0.172l0.204,-0.173l0.205,-0.174l0.204,-0.174l0.204,-0.174l0.204,-0.175l0.203,-0.176l0.203,-0.176l0.203,-0.177l0.203,-0.177l0.202,-0.178l0.203,-0.178l0.202,-0.179l0.201,-0.179l0.202,-0.18l0.201,-0.18l0.201,-0.181l0.202,-0.181l0.2,-0.182l0.201,-0.182l0.201,-0.183l0.2,-0.183l0.201,-0.184l0.2,-0.184l0.2,-0.185l0.2,-0.185l0.2,-0.186l0.2,-0.187l0.2,-0.186l0.2,-0.188l0.2,-0.187l0.199,-0.188l0.4,-0.379l0.399,-0.38l0.4,-0.382l0.399,-0.384l0.4,-0.386l0.4,-0.388l0.401,-0.389l0.401,-0.392l0.402,-0.393l0.402,-0.396l0.403,-0.397l0.403,-0.399l0.405,-0.401l0.405,-0.402l0.406,-0.405l0.408,-0.406l0.408,-0.408l0.821,-0.822l0.827,-0.828l0.832,-0.835l0.84,-0.842l0.846,-0.848l0.855,-0.855l0.43,-0.43l0.433,-0.432l0.435,-0.433l0.437,-0.434l0.44,-0.436l0.443,-0.438l0.444,-0.439l0.448,-0.44l0.45,-0.442l0.454,-0.444l0.456,-0.445l0.459,-0.446l0.462,-0.448l0.465,-0.449l0.469,-0.451l0.472,-0.451l0.475,-0.454l0.478,-0.454l0.241,-0.228l0.242,-0.228l0.242,-0.228l0.243,-0.229l0.245,-0.229l0.245,-0.229l0.246,-0.23l0.247,-0.23l0.248,-0.23l0.249,-0.231l0.25,-0.231l0.251,-0.231l0.252,-0.231l0.253,-0.232l0.254,-0.232l0.255,-0.233l0.256,-0.232l0.257,-0.233l0.258,-0.234l0.259,-0.233l0.26,-0.234l0.262,-0.234l0.262,-0.235l0.263,-0.234l0.265,-0.235l0.266,-0.235l0.267,-0.236l0.268,-0.236l0.269,-0.236l0.27,-0.236l0.272,-0.237l0.272,-0.237l0.274,-0.237l0.275,-0.237l0.277,-0.238l0.277,-0.238l0.279,-0.238l0.28,-0.238l0.281,-0.239l0.282,-0.239l0.284,-0.239l0.285,-0.239l0.286,-0.24l0.288,-0.24l0.289,-0.24l0.29,-0.24l0.291,-0.241l0.293,-0.241l0.294,-0.241l0.296,-0.241l0.296,-0.241l0.299,-0.242l0.299,-0.242l0.301,-0.242l0.302,-0.242l0.304,-0.243l0.305,-0.243l0.307,-0.243l0.308,-0.243l0.31,-0.244l0.31,-0.243l0.313,-0.244l0.314,-0.244l0.315,-0.244l0.317,-0.245l0.318,-0.244l0.32,-0.245l0.322,-0.245l0.323,-0.246l0.324,-0.245l0.326,-0.246l0.328,-0.245l0.329,-0.246l0.33,-0.247l0.333,-0.246l0.333,-0.246l0.336,-0.247l0.337,-0.247l0.339,-0.247l0.34,-0.247l0.342,-0.248l0.344,-0.247l0.345,-0.248l0.347,-0.248l0.349,-0.248l0.35,-0.248l0.352,-0.248l0.354,-0.249l0.356,-0.249l0.357,-0.248l0.359,-0.249l0.361,-0.25l0.362,-0.249l0.364,-0.249l0.366,-0.25l0.368,-0.249l0.37,-0.25l0.371,-0.25l0.373,-0.25l0.375,-0.251l0.377,-0.25l0.379,-0.251l0.381,-0.25l0.382,-0.251l0.384,-0.251l0.387,-0.251l0.388,-0.251l0.39,-0.251l0.392,-0.252l0.394,-0.251l0.395,-0.252l0.398,-0.252l0.4,-0.252l0.401,-0.252l0.404,-0.252l0.405,-0.252l0.408,-0.252l0.41,-0.253l0.411,-0.252l0.414,-0.253l0.415,-0.252l0.418,-0.253l0.42,-0.253l0.421,-0.253l0.424,-0.253l0.426,-0.253l0.428,-0.254l0.428,-0.252l2.538,4.308l-0.424,0.25l-0.419,0.248l-0.417,0.248l-0.416,0.248l-0.413,0.248l-0.411,0.248l-0.409,0.247l-0.407,0.248l-0.405,0.247l-0.403,0.248l-0.401,0.247l-0.399,0.247l-0.398,0.247l-0.395,0.247l-0.393,0.246l-0.391,0.247l-0.389,0.246l-0.388,0.246l-0.385,0.246l-0.383,0.246l-0.382,0.246l-0.38,0.246l-0.377,0.246l-0.376,0.245l-0.374,0.245l-0.373,0.245l-0.37,0.245l-0.369,0.245l-0.366,0.245l-0.365,0.244l-0.363,0.245l-0.362,0.244l-0.359,0.244l-0.358,0.244l-0.356,0.244l-0.354,0.244l-0.353,0.243l-0.35,0.243l-0.35,0.243l-0.347,0.243l-0.346,0.243l-0.344,0.243l-0.342,0.242l-0.34,0.243l-0.339,0.242l-0.338,0.242l-0.335,0.242l-0.334,0.241l-0.333,0.242l-0.331,0.241l-0.329,0.241l-0.328,0.241l-0.326,0.241l-0.324,0.24l-0.323,0.241l-0.321,0.24l-0.32,0.24l-0.318,0.24l-0.317,0.239l-0.316,0.24l-0.313,0.239l-0.313,0.239l-0.311,0.239l-0.309,0.239l-0.308,0.238l-0.306,0.238l-0.305,0.238l-0.304,0.238l-0.302,0.238l-0.301,0.237l-0.299,0.238l-0.298,0.237l-0.297,0.237l-0.295,0.236l-0.294,0.237l-0.293,0.236l-0.291,0.236l-0.29,0.236l-0.288,0.236l-0.287,0.235l-0.286,0.235l-0.285,0.235l-0.284,0.235l-0.282,0.234l-0.281,0.235l-0.279,0.234l-0.279,0.234l-0.277,0.234l-0.276,0.233l-0.275,0.233l-0.273,0.233l-0.273,0.233l-0.271,0.232l-0.27,0.233l-0.269,0.232l-0.268,0.232l-0.266,0.231l-0.266,0.232l-0.264,0.231l-0.263,0.231l-0.263,0.23l-0.261,0.231l-0.26,0.23l-0.259,0.23l-0.258,0.23l-0.257,0.229l-0.256,0.23l-0.254,0.229l-0.254,0.228l-0.253,0.229l-0.252,0.228l-0.251,0.228l-0.25,0.228l-0.249,0.227l-0.248,0.228l-0.247,0.227l-0.246,0.226l-0.245,0.227l-0.244,0.226l-0.244,0.226l-0.242,0.226l-0.242,0.225l-0.241,0.225l-0.239,0.225l-0.239,0.225l-0.239,0.224l-0.237,0.225l-0.236,0.223l-0.471,0.447l-0.468,0.446l-0.464,0.445l-0.462,0.444l-0.458,0.442l-0.456,0.442l-0.453,0.44l-0.45,0.439l-0.448,0.439l-0.445,0.437l-0.443,0.435l-0.44,0.435l-0.438,0.433l-0.436,0.433l-0.434,0.431l-0.432,0.43l-0.43,0.428l-0.428,0.427l-0.851,0.852l-0.844,0.846l-0.839,0.841l-0.833,0.836l-0.828,0.83l-0.825,0.825l-0.411,0.411l-0.411,0.409l-0.409,0.408l-0.41,0.407l-0.408,0.405l-0.409,0.403l-0.408,0.403l-0.407,0.4l-0.408,0.4l-0.407,0.397l-0.408,0.397l-0.407,0.395l-0.408,0.393l-0.408,0.392l-0.408,0.39l-0.408,0.389l-0.409,0.386l-0.205,0.194l-0.205,0.193l-0.205,0.192l-0.205,0.192l-0.206,0.191l-0.205,0.191l-0.206,0.191l-0.206,0.19l-0.206,0.19l-0.207,0.189l-0.206,0.189l-0.207,0.189l-0.207,0.188l-0.208,0.187l-0.208,0.188l-0.208,0.187l-0.208,0.186l-0.209,0.186l-0.208,0.186l-0.21,0.185l-0.209,0.185l-0.21,0.184l-0.211,0.184l-0.21,0.183l-0.211,0.183l-0.212,0.183l-0.212,0.182l-0.212,0.181l-0.213,0.182l-0.213,0.18l-0.213,0.181l-0.214,0.18l-0.215,0.179l-0.214,0.179l-0.216,0.178l-0.216,0.178l-0.216,0.178l-0.217,0.177l-0.217,0.176l-0.218,0.176l-0.219,0.176l-0.218,0.175l-0.22,0.175l-0.22,0.174l-0.221,0.174l-0.221,0.173l-0.222,0.173l-0.222,0.172l-0.223,0.172l-0.224,0.171l-0.224,0.171l-0.225,0.17l-0.226,0.169l-0.226,0.17l-0.227,0.168l-0.227,0.169l-0.229,0.167l-0.229,0.167l-0.229,0.167l-0.231,0.166l-0.231,0.166l-0.231,0.165l-0.233,0.164l-0.233,0.164l-0.235,0.164l-0.234,0.163l-0.236,0.162l-0.236,0.162l-0.238,0.161l-0.238,0.161l-0.239,0.16l-0.239,0.16l-0.241,0.159l-0.241,0.158l-0.242,0.158l-0.243,0.158l-0.244,0.156l-0.245,0.157l-0.246,0.155l-0.246,0.156l-0.248,0.154l-0.248,0.154l-0.25,0.154l-0.25,0.152l-0.251,0.153l-0.252,0.151l-0.254,0.151l-0.254,0.151l-0.255,0.15l-0.256,0.149l-0.257,0.149l-0.258,0.148l-0.259,0.147l-0.26,0.147l-0.262,0.146l-0.262,0.146l-0.263,0.145l-0.265,0.144l-0.265,0.144l-0.266,0.143l-0.268,0.143l-0.269,0.142l-0.269,0.141l-0.271,0.141l-0.272,0.14l-0.273,0.14l-0.275,0.138l-0.275,0.139l-0.277,0.137l-0.278,0.137l-0.279,0.136l-0.28,0.136l-0.281,0.135l-0.283,0.134l-0.283,0.134l-0.285,0.133l-0.287,0.132l-0.287,0.132l-0.289,0.131l-0.29,0.13l-0.291,0.13l-0.292,0.129l-0.294,0.129l-0.295,0.127l-0.296,0.127l-0.298,0.127l-0.299,0.126l-0.3,0.125l-0.302,0.124l-0.303,0.124l-0.304,0.123l-0.306,0.122l-0.307,0.122l-0.309,0.121l-0.31,0.12l-0.311,0.12l-0.312,0.119l-0.315,0.118l-0.315,0.117l-0.317,0.117l-0.318,0.116l-0.32,0.116l-0.322,0.114l-0.322,0.114l-0.325,0.114l-0.325,0.112l-0.328,0.112l-0.328,0.112l-0.331,0.11l-0.332,0.11l-0.333,0.109l-0.335,0.108l-0.336,0.108l-0.338,0.107l-0.34,0.106l-0.341,0.106l-0.343,0.104l-0.344,0.104l-0.346,0.104l-0.348,0.102l-0.349,0.102l-0.351,0.102l-0.352,0.1l-0.355,0.1l-0.356,0.099l-0.357,0.098l-0.359,0.097l-0.361,0.097l-0.363,0.096l-0.364,0.095l-0.366,0.095l-0.368,0.094l-0.369,0.093l-0.372,0.092l-0.373,0.092l-0.374,0.091l-0.377,0.09l-0.378,0.089l-0.38,0.089l-0.382,0.088l-0.384,0.087l-0.386,0.086l-0.387,0.086l-0.39,0.084l-0.391,0.084l-0.393,0.084l-0.395,0.082l-0.396,0.082l-0.399,0.081l-0.401,0.08l-0.402,0.08l-0.404,0.079l-0.407,0.078l-0.408,0.077l-0.41,0.076l-0.413,0.076l-0.414,0.075l-0.416,0.074l-0.418,0.073l-0.42,0.073l-0.422,0.071l-0.424,0.071l-0.427,0.071l-0.428,0.069l-0.43,0.069l-0.433,0.068l-0.434,0.067l-0.436,0.066l-0.439,0.065l-0.441,0.065l-0.442,0.064l-0.445,0.063l-0.447,0.062l-0.45,0.062l-0.451,0.061l-0.453,0.06l-0.456,0.059l-0.458,0.058l-0.46,0.058l-0.462,0.056l-0.464,0.056l-0.467,0.056l-0.469,0.054l-0.471,0.053l-0.473,0.053l-0.476,0.052l-0.478,0.051l-0.48,0.05l-0.482,0.05l-0.485,0.049l-0.487,0.047l-0.489,0.047l-0.492,0.047l-0.494,0.045l-0.496,0.044l-0.499,0.044l-0.501,0.043l-0.504,0.042l-0.505,0.041l-0.509,0.041l-0.51,0.039l-0.513,0.039l-0.516,0.038l-0.518,0.037l-0.52,0.037l-0.523,0.035l-0.525,0.035l-0.528,0.033l-0.53,0.033l-0.533,0.032l-0.535,0.031l-0.538,0.031l-0.54,0.029l-0.543,0.029l-0.545,0.028l-0.548,0.027l-0.551,0.026l-0.553,0.025l-0.555,0.025l-0.559,0.023l-0.56,0.023l-0.564,0.022l-0.566,0.021l-0.569,0.02l-0.571,0.019l-0.574,0.019l-0.577,0.017l-0.579,0.017l-0.582,0.016l-0.585,0.015l-0.587,0.014l-0.59,0.013l-0.593,0.012l-0.596,0.012l-0.598,0.01l-0.601,0.01l-0.604,0.009l-0.607,0.008l-0.609,0.007l-0.612,0.006l-0.615,0.005l-0.618,0.005l-0.621,0.003l-0.623,0.003l-0.627,0.001l-0.629,0.001l-0.632,0l-0.635,-0.001l-0.638,-0.002l-3.564,-0.015l-0.792,-1.534l1.712,-2.432l0.084,-0.121l0.142,-0.204l0.196,-0.285l0.118,-0.171l0.13,-0.191l0.143,-0.21l0.156,-0.23l0.168,-0.248l0.179,-0.267l0.191,-0.285l0.203,-0.303l0.213,-0.322l0.224,-0.338l0.235,-0.357l0.245,-0.373l0.255,-0.39l0.264,-0.407l0.274,-0.424l0.284,-0.44l0.292,-0.456l0.301,-0.471l0.309,-0.488l0.317,-0.502l0.326,-0.519l0.165,-0.264l0.167,-0.268l0.17,-0.272l0.171,-0.275l0.172,-0.279l0.175,-0.283l0.176,-0.286l0.178,-0.29l0.179,-0.293l0.182,-0.296l0.182,-0.301l0.185,-0.303l0.185,-0.307l0.188,-0.31l0.188,-0.314l0.19,-0.316l0.192,-0.32l0.192,-0.324l0.195,-0.326l0.195,-0.33l0.197,-0.333l0.197,-0.336l0.199,-0.339l0.201,-0.342l0.201,-0.345l0.202,-0.348l0.204,-0.351l0.204,-0.354l0.205,-0.357l0.207,-0.36l0.207,-0.362l0.208,-0.366l0.209,-0.368l0.21,-0.371l0.21,-0.374l0.212,-0.377l0.212,-0.379l0.212,-0.382l0.214,-0.384l0.214,-0.387l0.214,-0.39l0.215,-0.392l0.216,-0.394l0.216,-0.397l0.217,-0.4l0.217,-0.402l0.217,-0.404l0.218,-0.407l0.218,-0.409l0.218,-0.412l0.219,-0.413l0.219,-0.416l0.219,-0.418l0.219,-0.42l0.219,-0.423l0.22,-0.424l0.219,-0.427l0.22,-0.429l0.219,-0.431l0.22,-0.432l0.219,-0.435l0.219,-0.437l0.219,-0.438l0.219,-0.441l0.219,-0.442l0.219,-0.445l0.218,-0.446l0.218,-0.447l0.217,-0.45l0.218,-0.451l0.216,-0.453l0.217,-0.455l0.216,-0.456l0.215,-0.458l0.215,-0.459l0.214,-0.461l0.214,-0.463l0.213,-0.463l0.213,-0.466l0.211,-0.467l0.212,-0.468l0.21,-0.469l0.209,-0.471l0.209,-0.472l0.208,-0.474l0.206,-0.475l0.206,-0.476l0.205,-0.477l0.204,-0.478l0.203,-0.479l0.202,-0.481l0.201,-0.481l0.2,-0.483l0.199,-0.484l0.098,-0.242l0.099,-0.242l0.098,-0.243l0.098,-0.243l0.097,-0.243l0.098,-0.243l0.097,-0.243l0.096,-0.244l0.097,-0.244l0.096,-0.244l0.095,-0.245l0.095,-0.244l0.095,-0.245l0.095,-0.245l0.094,-0.245l0.094,-0.246l0.094,-0.245l0.093,-0.246l0.093,-0.246l0.092,-0.246l0.092,-0.246l0.092,-0.247l0.091,-0.246l0.091,-0.247l0.09,-0.247l0.09,-0.247l0.09,-0.247l0.089,-0.247l0.089,-0.248l0.089,-0.247l0.088,-0.248l0.087,-0.248l0.087,-0.248l0.087,-0.248l0.086,-0.248l0.086,-0.249l0.086,-0.248l0.085,-0.249l0.084,-0.248l0.084,-0.249l0.084,-0.249l0.083,-0.249l0.083,-0.249l0.082,-0.249l0.082,-0.249l0.081,-0.249l0.081,-0.25l0.08,-0.249l0.08,-0.249l0.079,-0.25l0.079,-0.25l0.078,-0.249l0.078,-0.25l0.077,-0.25l0.077,-0.249l0.076,-0.25l0.076,-0.25l0.075,-0.25l0.075,-0.249l0.074,-0.25l0.073,-0.25l0.073,-0.25l0.073,-0.25l0.072,-0.25l0.071,-0.25l0.071,-0.25l0.07,-0.25l0.07,-0.25l0.069,-0.25l0.068,-0.249l0.068,-0.25l0.068,-0.25l0.067,-0.25l0.066,-0.25l0.065,-0.249l0.065,-0.25l0.065,-0.25l0.063,-0.249l0.064,-0.25l0.062,-0.249l0.062,-0.25l0.061,-0.249l0.061,-0.249l0.06,-0.249l0.06,-0.25l0.058,-0.249l0.059,-0.249l0.057,-0.249l0.057,-0.248l0.056,-0.249l0.056,-0.249l0.054,-0.248l0.055,-0.248l0.053,-0.249l0.053,-0.248l0.052,-0.248l0.052,-0.248l0.051,-0.247l0.05,-0.248l0.049,-0.248l0.049,-0.247l0.048,-0.247l0.047,-0.247l0.047,-0.247l0.046,-0.247l0.045,-0.247l0.044,-0.246l0.044,-0.246l0.043,-0.246l0.042,-0.246l0.042,-0.246l0.041,-0.246l0.04,-0.245l0.039,-0.245l0.039,-0.245l0.038,-0.245l0.037,-0.245l0.036,-0.244l0.036,-0.244l0.034,-0.244l0.034,-0.244l0.034,-0.244l0.032,-0.243l0.032,-0.243l0.031,-0.243l0.03,-0.242l0.029,-0.243l0.028,-0.242l0.028,-0.242l0.027,-0.241l0.026,-0.242l0.025,-0.241l0.025,-0.241l0.024,-0.24l0.022,-0.24l0.022,-0.24l0.021,-0.24l0.021,-0.239l0.019,-0.24l0.019,-0.238l0.018,-0.239l0.017,-0.238l0.016,-0.238l0.015,-0.238l0.014,-0.237l0.014,-0.237l0.013,-0.237l0.011,-0.236l0.011,-0.236l0.01,-0.236l0.009,-0.235l0.009,-0.235l0.007,-0.235l0.007,-0.234l0.005,-0.234l0.005,-0.234l0.004,-0.233l0.003,-0.233l0.002,-0.233l0.001,-0.232l0,-0.231l-0.001,-0.232l-0.001,-0.231l-0.003,-0.231l-0.003,-0.23l-0.005,-0.23l-0.005,-0.229l-0.007,-0.229l-0.007,-0.229l-0.008,-0.228l-0.009,-0.228l-0.01,-0.227l-0.011,-0.227l-0.012,-0.227l-0.013,-0.226l-0.014,-0.226l-0.015,-0.225l-0.016,-0.225l-0.017,-0.224l-0.017,-0.224l-0.019,-0.223l-0.02,-0.223l-0.021,-0.223l-0.021,-0.222l-0.023,-0.222l-0.024,-0.221l-0.024,-0.221l-0.026,-0.22l-0.027,-0.22l-0.027,-0.219l-0.029,-0.219l-0.03,-0.218l-0.03,-0.218l-0.032,-0.217l-0.033,-0.217l-0.034,-0.216l-0.034,-0.216l-0.036,-0.215l-0.037,-0.215l-0.038,-0.215l-0.039,-0.213l-0.04,-0.214l-0.041,-0.212l-0.042,-0.213l-0.043,-0.211l-0.044,-0.211l-0.045,-0.211l-0.048,-0.217l4.883,-1.075l0.05,0.229Z" style="fill:#809b40;" />
            <path d="M199.625,38.903l-0.385,0.126l-0.38,0.125l-0.38,0.127l-0.38,0.128l-0.38,0.13l-0.381,0.131l-0.38,0.132l-0.38,0.134l-0.38,0.135l-0.381,0.136l-0.38,0.138l-0.38,0.139l-0.381,0.14l-0.38,0.142l-0.381,0.142l-0.38,0.144l-0.381,0.145l-0.381,0.146l-0.381,0.147l-0.381,0.149l-0.381,0.149l-0.381,0.15l-0.381,0.152l-0.382,0.152l-0.381,0.153l-0.382,0.155l-0.382,0.155l-0.381,0.156l-0.382,0.157l-0.383,0.158l-0.382,0.159l-0.383,0.16l-0.382,0.16l-0.383,0.161l-0.383,0.162l-0.383,0.163l-0.384,0.163l-0.383,0.164l-0.384,0.165l-0.384,0.166l-0.385,0.166l-0.384,0.166l-0.385,0.168l-0.385,0.167l-0.385,0.169l-0.385,0.168l-0.772,0.34l-0.773,0.341l-0.774,0.342l-0.775,0.344l-0.776,0.346l-1.556,0.693l-1.562,0.696l-0.783,0.349l-0.784,0.349l-0.786,0.349l-0.788,0.349l-0.789,0.348l-0.791,0.348l-0.396,0.173l-0.397,0.174l-0.397,0.173l-0.398,0.173l-0.398,0.173l-0.398,0.172l-0.399,0.172l-0.4,0.171l-0.4,0.172l-0.4,0.171l-0.401,0.17l-0.402,0.17l-0.402,0.17l-0.402,0.169l-0.404,0.168l-0.403,0.168l-0.404,0.168l-0.405,0.167l-0.405,0.166l-0.406,0.165l-0.407,0.165l-0.407,0.165l-0.407,0.163l-0.409,0.163l-0.409,0.162l-0.409,0.162l-0.41,0.16l-0.411,0.16l-0.411,0.159l-0.412,0.158l-0.413,0.157l-0.413,0.157l-0.414,0.155l-0.414,0.154l-0.416,0.154l-0.415,0.152l-0.417,0.152l-0.417,0.15l-0.418,0.149l-0.419,0.148l-0.419,0.148l-0.421,0.145l-0.42,0.145l-0.422,0.144l-0.422,0.142l-0.423,0.141l-0.424,0.14l-0.425,0.138l-0.425,0.138l-0.425,0.135l-0.215,0.068l-0.213,0.067l-0.214,0.067l-0.214,0.066l-0.214,0.066l-0.214,0.066l-0.215,0.065l-0.214,0.065l-0.215,0.065l-0.216,0.064l-0.215,0.064l-0.215,0.063l-0.216,0.063l-0.216,0.063l-0.216,0.063l-0.217,0.062l-0.216,0.061l-0.217,0.061l-0.217,0.061l-0.217,0.06l-0.217,0.061l-0.218,0.059l-0.218,0.059l-0.218,0.059l-0.218,0.058l-0.219,0.058l-0.218,0.058l-0.219,0.057l-0.219,0.057l-0.22,0.056l-0.219,0.056l-0.22,0.055l-0.22,0.055l-0.22,0.055l-0.221,0.054l-0.22,0.053l-0.221,0.054l-0.221,0.052l-0.221,0.053l-0.222,0.051l-0.222,0.052l-0.222,0.051l-0.222,0.05l-0.222,0.05l-0.223,0.05l-0.223,0.049l-0.223,0.048l-0.224,0.048l-0.223,0.048l-0.224,0.047l-0.224,0.046l-0.224,0.046l-0.225,0.046l-0.225,0.045l-0.225,0.045l-0.225,0.044l-0.225,0.043l-0.226,0.043l-0.226,0.043l-0.226,0.042l-0.227,0.041l-0.226,0.041l-0.227,0.041l-0.227,0.04l-0.228,0.039l-0.227,0.039l-0.228,0.038l-0.228,0.038l-0.229,0.037l-0.228,0.037l-0.229,0.036l-0.229,0.036l-0.23,0.035l-0.229,0.034l-0.23,0.034l-0.23,0.033l-0.231,0.033l-0.23,0.032l-0.231,0.032l-0.231,0.031l-0.232,0.03l-0.231,0.03l-0.232,0.029l-0.232,0.029l-0.233,0.028l-0.232,0.028l-0.233,0.026l-0.233,0.027l-0.234,0.025l-0.233,0.025l-0.234,0.025l-0.235,0.024l-0.234,0.023l-0.235,0.023l-0.235,0.021l-0.235,0.022l-0.235,0.02l-0.236,0.021l-0.236,0.019l-0.237,0.019l-0.236,0.018l-0.237,0.017l-0.237,0.017l-0.237,0.016l-0.238,0.016l-0.238,0.015l-0.238,0.014l-0.238,0.014l-0.239,0.013l-0.239,0.012l-0.239,0.011l-0.24,0.011l-0.24,0.01l-0.24,0.01l-0.24,0.009l-0.241,0.008l-0.24,0.007l-0.241,0.007l-0.242,0.006l-0.242,0.006l-0.242,0.004l-0.242,0.004l-0.242,0.003l-0.243,0.003l-0.243,0.002l-0.244,0.001l-0.243,0l-0.244,0l-0.244,-0.001l-0.245,-0.002l-0.245,-0.002l-0.245,-0.004l-0.245,-0.004l-0.245,-0.005l-0.246,-0.005l-0.246,-0.006l-0.247,-0.007l-0.247,-0.008l-0.247,-0.008l-0.247,-0.01l-0.248,-0.01l-0.247,-0.01l-0.249,-0.012l-0.248,-0.012l-0.249,-0.013l-0.249,-0.014l-0.249,-0.015l-0.25,-0.015l-0.25,-0.017l-0.25,-0.017l-0.25,-0.017l-0.251,-0.019l-0.251,-0.019l-0.251,-0.02l-0.252,-0.021l-0.252,-0.022l-0.252,-0.023l-0.253,-0.023l-0.253,-0.024l-0.253,-0.025l-0.253,-0.026l-0.254,-0.027l-0.254,-0.027l-0.254,-0.029l-0.255,-0.029l-0.255,-0.03l-0.255,-0.031l-0.255,-0.031l-0.256,-0.033l-0.256,-0.033l-0.256,-0.034l-0.257,-0.035l-0.257,-0.036l-0.257,-0.037l-0.258,-0.038l-0.258,-0.038l-0.258,-0.039l-0.258,-0.041l-0.259,-0.041l-0.259,-0.042l-0.26,-0.042l-0.26,-0.044l-0.26,-0.045l-0.26,-0.045l-0.26,-0.046l-0.261,-0.048l-0.262,-0.048l-0.261,-0.049l-0.262,-0.05l-0.262,-0.05l-0.263,-0.052l-0.262,-0.053l-0.264,-0.053l-0.263,-0.055l-0.264,-0.055l-0.264,-0.056l-0.264,-0.057l-0.265,-0.059l-0.265,-0.059l-0.265,-0.059l-0.266,-0.061l-0.266,-0.062l-0.266,-0.063l-0.266,-0.064l-0.267,-0.064l-0.267,-0.066l-0.268,-0.066l-0.268,-0.068l-0.268,-0.068l-0.268,-0.069l-0.269,-0.071l-0.269,-0.071l-0.27,-0.072l-0.269,-0.073l-0.27,-0.075l-0.271,-0.075l-0.271,-0.076l-0.271,-0.077l-0.271,-0.078l-0.272,-0.079l-0.272,-0.08l-0.272,-0.081l-0.273,-0.082l-0.273,-0.083l-0.273,-0.084l-0.274,-0.085l-0.274,-0.086l-0.274,-0.087l-0.275,-0.088l-0.275,-0.089l-0.275,-0.09l-0.276,-0.091l-0.276,-0.092l-0.276,-0.093l-0.277,-0.094l-0.277,-0.095l-0.277,-0.096l-0.278,-0.097l-0.278,-0.099l-0.278,-0.099l-0.279,-0.1l-0.279,-0.101l-0.279,-0.103l-0.28,-0.103l-0.28,-0.104l-0.28,-0.106l-0.281,-0.106l-0.281,-0.108l-0.281,-0.108l-0.282,-0.11l-0.282,-0.111l-0.282,-0.112l-0.283,-0.113l-0.283,-0.114l-0.284,-0.115l-0.284,-0.116l-0.284,-0.117l-0.284,-0.118l-0.285,-0.119l-0.282,-0.119l1.944,-4.607l0.276,0.117l0.272,0.113l0.271,0.113l0.272,0.112l0.27,0.111l0.271,0.11l0.27,0.108l0.269,0.108l0.27,0.106l0.268,0.106l0.269,0.104l0.268,0.104l0.268,0.102l0.267,0.102l0.267,0.1l0.266,0.1l0.266,0.098l0.266,0.097l0.266,0.097l0.265,0.095l0.264,0.094l0.264,0.093l0.264,0.093l0.264,0.091l0.263,0.09l0.263,0.09l0.262,0.088l0.262,0.087l0.262,0.087l0.261,0.085l0.261,0.085l0.26,0.083l0.26,0.083l0.26,0.081l0.26,0.081l0.259,0.079l0.258,0.079l0.259,0.078l0.258,0.076l0.257,0.076l0.257,0.075l0.257,0.074l0.257,0.073l0.256,0.072l0.256,0.071l0.255,0.07l0.255,0.069l0.255,0.069l0.255,0.067l0.254,0.066l0.253,0.066l0.254,0.065l0.253,0.063l0.253,0.063l0.252,0.062l0.252,0.061l0.252,0.06l0.251,0.059l0.251,0.059l0.25,0.057l0.251,0.057l0.25,0.055l0.249,0.055l0.25,0.054l0.249,0.053l0.248,0.052l0.249,0.052l0.248,0.05l0.247,0.05l0.248,0.048l0.247,0.048l0.246,0.047l0.247,0.046l0.246,0.046l0.245,0.044l0.246,0.044l0.245,0.043l0.245,0.041l0.244,0.042l0.244,0.04l0.244,0.039l0.243,0.039l0.244,0.038l0.242,0.037l0.243,0.036l0.242,0.035l0.242,0.035l0.242,0.034l0.241,0.033l0.241,0.032l0.241,0.031l0.24,0.031l0.24,0.029l0.24,0.029l0.24,0.028l0.239,0.028l0.239,0.026l0.239,0.026l0.238,0.025l0.238,0.025l0.238,0.023l0.237,0.023l0.237,0.022l0.237,0.021l0.237,0.02l0.236,0.02l0.236,0.019l0.236,0.018l0.235,0.018l0.236,0.016l0.235,0.016l0.234,0.016l0.235,0.014l0.234,0.014l0.233,0.013l0.234,0.012l0.233,0.012l0.233,0.011l0.233,0.01l0.232,0.009l0.233,0.009l0.232,0.008l0.231,0.007l0.232,0.007l0.231,0.005l0.231,0.006l0.23,0.004l0.231,0.004l0.23,0.003l0.229,0.002l0.23,0.002l0.229,0.001l0.229,0l0.229,0l0.229,-0.001l0.228,-0.002l0.228,-0.002l0.228,-0.003l0.227,-0.004l0.228,-0.004l0.227,-0.005l0.227,-0.006l0.226,-0.006l0.227,-0.007l0.226,-0.008l0.226,-0.008l0.225,-0.009l0.226,-0.01l0.225,-0.01l0.225,-0.011l0.224,-0.012l0.225,-0.012l0.224,-0.012l0.224,-0.014l0.224,-0.014l0.223,-0.014l0.224,-0.016l0.223,-0.015l0.222,-0.017l0.223,-0.017l0.223,-0.018l0.222,-0.018l0.222,-0.019l0.221,-0.019l0.222,-0.02l0.221,-0.021l0.221,-0.021l0.221,-0.022l0.221,-0.023l0.22,-0.023l0.22,-0.023l0.221,-0.025l0.219,-0.024l0.22,-0.026l0.219,-0.026l0.22,-0.026l0.218,-0.027l0.219,-0.028l0.219,-0.028l0.218,-0.029l0.218,-0.029l0.218,-0.03l0.218,-0.03l0.218,-0.031l0.217,-0.031l0.217,-0.032l0.217,-0.033l0.217,-0.033l0.217,-0.034l0.216,-0.034l0.216,-0.035l0.216,-0.035l0.216,-0.035l0.216,-0.037l0.215,-0.037l0.215,-0.037l0.215,-0.038l0.215,-0.038l0.215,-0.039l0.214,-0.039l0.215,-0.04l0.214,-0.04l0.214,-0.041l0.214,-0.041l0.213,-0.042l0.214,-0.042l0.213,-0.043l0.213,-0.043l0.213,-0.044l0.213,-0.044l0.212,-0.045l0.213,-0.045l0.212,-0.046l0.212,-0.046l0.212,-0.047l0.211,-0.047l0.212,-0.047l0.211,-0.048l0.212,-0.049l0.211,-0.048l0.21,-0.05l0.211,-0.05l0.211,-0.05l0.21,-0.05l0.21,-0.052l0.21,-0.051l0.21,-0.052l0.21,-0.052l0.21,-0.053l0.209,-0.054l0.209,-0.053l0.209,-0.054l0.209,-0.055l0.209,-0.055l0.209,-0.055l0.208,-0.056l0.209,-0.056l0.208,-0.057l0.208,-0.057l0.208,-0.057l0.208,-0.058l0.207,-0.058l0.208,-0.059l0.207,-0.058l0.207,-0.06l0.208,-0.06l0.206,-0.06l0.207,-0.06l0.207,-0.061l0.206,-0.061l0.207,-0.062l0.206,-0.062l0.206,-0.062l0.206,-0.063l0.206,-0.063l0.205,-0.063l0.206,-0.064l0.205,-0.064l0.206,-0.065l0.204,-0.064l0.411,-0.131l0.409,-0.133l0.409,-0.133l0.409,-0.135l0.407,-0.136l0.408,-0.137l0.407,-0.139l0.406,-0.139l0.406,-0.141l0.406,-0.143l0.405,-0.143l0.405,-0.144l0.404,-0.146l0.404,-0.147l0.403,-0.148l0.403,-0.148l0.402,-0.15l0.402,-0.151l0.402,-0.152l0.401,-0.153l0.401,-0.154l0.401,-0.155l0.4,-0.155l0.4,-0.157l0.399,-0.157l0.399,-0.159l0.399,-0.159l0.398,-0.16l0.398,-0.16l0.398,-0.162l0.397,-0.162l0.397,-0.163l0.397,-0.163l0.396,-0.164l0.396,-0.165l0.396,-0.166l0.396,-0.166l0.395,-0.167l0.395,-0.167l0.395,-0.168l0.394,-0.168l0.394,-0.169l0.394,-0.169l0.394,-0.17l0.393,-0.17l0.394,-0.17l0.393,-0.171l0.392,-0.171l0.393,-0.172l0.392,-0.172l0.784,-0.345l0.784,-0.345l0.783,-0.347l0.782,-0.347l0.781,-0.348l0.781,-0.348l1.561,-0.696l1.559,-0.694l0.779,-0.347l0.779,-0.346l0.779,-0.344l0.779,-0.344l0.778,-0.342l0.39,-0.171l0.389,-0.17l0.389,-0.17l0.39,-0.169l0.389,-0.169l0.39,-0.168l0.389,-0.168l0.39,-0.167l0.39,-0.167l0.389,-0.166l0.39,-0.166l0.39,-0.164l0.39,-0.165l0.39,-0.163l0.39,-0.163l0.391,-0.162l0.39,-0.161l0.391,-0.161l0.39,-0.16l0.391,-0.159l0.391,-0.158l0.391,-0.157l0.391,-0.156l0.392,-0.156l0.392,-0.154l0.391,-0.154l0.392,-0.152l0.393,-0.152l0.392,-0.151l0.393,-0.149l0.392,-0.148l0.394,-0.148l0.393,-0.146l0.393,-0.145l0.394,-0.144l0.394,-0.142l0.395,-0.142l0.394,-0.14l0.395,-0.139l0.395,-0.138l0.396,-0.136l0.395,-0.135l0.397,-0.134l0.396,-0.132l0.397,-0.131l0.392,-0.128l1.55,4.754Z" style="fill:#809b40;" />
            <path d="M194.439,3.628l0.191,0.002l0.188,0.004l0.186,0.005l0.185,0.006l0.02,0.001l0.162,0.008l0.181,0.011l0.178,0.012l0.177,0.014l0.175,0.015l0.173,0.016l0.171,0.018l0.169,0.02l0.168,0.02l0.165,0.023l0.164,0.024l0.161,0.024l0.082,0.014l0.08,0.014l0.08,0.014l0.079,0.014l0.079,0.015l0.078,0.015l0.078,0.015l0.078,0.016l0.077,0.016l0.076,0.017l0.077,0.017l0.075,0.017l0.076,0.018l0.075,0.018l0.074,0.019l0.075,0.019l0.073,0.019l0.074,0.02l0.073,0.02l0.072,0.021l0.072,0.021l0.072,0.021l0.072,0.022l0.071,0.022l0.07,0.023l0.07,0.023l0.07,0.023l0.07,0.024l0.069,0.025l0.068,0.025l0.069,0.025l0.067,0.026l0.068,0.026l0.067,0.026l0.067,0.027l0.066,0.028l0.066,0.028l0.065,0.028l0.065,0.029l0.065,0.029l0.064,0.03l0.064,0.03l0.064,0.031l0.063,0.031l0.063,0.032l0.062,0.032l0.062,0.033l0.061,0.033l0.062,0.034l0.06,0.034l0.061,0.034l0.059,0.036l0.06,0.035l0.059,0.036l0.059,0.037l0.058,0.037l0.058,0.038l0.057,0.038l0.057,0.039l0.056,0.04l0.056,0.04l0.056,0.04l0.055,0.041l0.054,0.041l0.055,0.042l0.053,0.043l0.054,0.043l0.052,0.044l0.052,0.044l0.052,0.045l0.051,0.045l0.051,0.046l0.05,0.046l0.05,0.047l0.004,0.004l0.045,0.044l0.048,0.048l0.047,0.049l0.047,0.05l0.047,0.05l0.046,0.05l0.045,0.051l0.045,0.052l0.044,0.052l0.043,0.052l0.043,0.053l0.042,0.054l0.042,0.054l0.041,0.055l0.04,0.055l0.04,0.055l0.039,0.056l0.038,0.057l0.038,0.056l0.037,0.058l0.036,0.058l0.036,0.058l0.034,0.058l0.034,0.06l0.034,0.059l0.033,0.06l0.031,0.06l0.032,0.061l0.03,0.061l0.03,0.061l0.029,0.062l0.028,0.062l0.027,0.062l0.027,0.063l0.026,0.062l0.025,0.064l0.025,0.063l0.023,0.064l0.023,0.064l0.022,0.064l0.021,0.065l0.021,0.064l0.02,0.065l0.019,0.065l0.018,0.066l0.017,0.065l0.017,0.066l0.016,0.065l0.015,0.066l0.015,0.066l0.013,0.066l0.013,0.067l0.013,0.066l0.011,0.067l0.011,0.066l0.01,0.067l0.009,0.066l0.009,0.067l0.007,0.067l0.007,0.067l0.007,0.067l0.006,0.067l0.005,0.067l0.004,0.067l0.003,0.066l0.003,0.067l0.003,0.067l0.001,0.067l0.001,0.067l0.001,0.067l-0.001,0.067l-0.001,0.067l-0.001,0.067l-0.003,0.066l-0.001,0.023l-0.002,0.044l-0.004,0.067l-0.005,0.066l-0.005,0.067l-0.006,0.066l-0.006,0.067l-0.007,0.066l-0.008,0.066l-0.008,0.067l-0.009,0.066l-0.009,0.066l-0.01,0.066l-0.01,0.066l-0.011,0.066l-0.012,0.065l-0.012,0.066l-0.012,0.066l-0.013,0.065l-0.014,0.066l-0.015,0.069l-0.029,0.126l-0.031,0.131l-0.034,0.129l-0.036,0.13l-0.037,0.129l-0.039,0.129l-0.041,0.129l-0.043,0.128l-0.045,0.129l-0.046,0.128l-0.048,0.127l-0.05,0.128l-0.051,0.127l-0.053,0.127l-0.055,0.127l-0.056,0.126l-0.058,0.127l-0.059,0.126l-0.061,0.126l-0.063,0.126l-0.023,0.046l-0.042,0.079l-0.067,0.124l-0.069,0.124l-0.07,0.124l-0.071,0.124l-0.073,0.124l-0.075,0.123l-0.075,0.124l-0.078,0.123l-0.078,0.123l-0.08,0.123l-0.082,0.123l-0.082,0.123l-0.084,0.122l-0.086,0.123l-0.086,0.122l-0.088,0.122l-0.09,0.123l-0.09,0.122l-0.092,0.121l-0.094,0.122l-0.094,0.122l-0.078,0.098l-0.018,0.023l-0.099,0.12l-0.101,0.12l-0.101,0.119l-0.103,0.12l-0.104,0.119l-0.105,0.119l-0.107,0.119l-0.107,0.119l-0.103,0.112l-0.006,0.006l-0.112,0.117l-0.113,0.117l-0.115,0.116l-0.115,0.117l-0.117,0.116l-0.117,0.116l-0.119,0.115l-0.108,0.104l-0.013,0.012l-0.124,0.112l-0.125,0.112l-0.126,0.112l-0.127,0.112l-0.129,0.111l-0.129,0.112l-0.131,0.111l-0.032,0.026l-0.102,0.082l-0.136,0.107l-0.137,0.106l-0.138,0.107l-0.139,0.106l-0.14,0.106l-0.141,0.105l-0.061,0.046l-0.083,0.057l-0.146,0.1l-0.148,0.1l-0.149,0.099l-0.149,0.1l-0.151,0.098l-0.151,0.099l-0.153,0.098l-0.153,0.098l-0.154,0.097l-0.155,0.097l-0.157,0.096l-0.157,0.096l-0.158,0.096l-0.031,0.019l-0.131,0.072l-0.163,0.09l-0.164,0.089l-0.166,0.088l-0.166,0.089l-0.167,0.087l-0.167,0.087l-0.169,0.087l-0.169,0.086l-0.17,0.086l-0.171,0.085l-0.172,0.085l-0.143,0.07l-0.03,0.014l-0.176,0.079l-0.177,0.079l-0.178,0.078l-0.178,0.078l-0.179,0.077l-0.18,0.076l-0.18,0.076l-0.181,0.076l-0.182,0.074l-0.183,0.075l-0.183,0.073l-0.003,0.002l-0.184,0.066l-0.187,0.068l-0.188,0.066l-0.189,0.067l-0.189,0.065l-0.19,0.065l-0.19,0.064l-0.191,0.063l-0.191,0.063l-0.193,0.062l-0.192,0.062l-0.193,0.061l-0.194,0.06l-0.194,0.059l-0.195,0.059l-0.195,0.058l-0.129,0.038l-0.068,0.018l-0.198,0.052l-0.2,0.051l-0.199,0.05l-0.2,0.05l-0.2,0.049l-0.141,0.033l-0.059,0.013l-0.005,0.001l-0.869,-0.054l-0.568,-0.459l-0.004,-0.009l0.014,-0.727l0.517,-0.703l0.004,-0.003l0.047,-0.036l0.113,-0.085l0.158,-0.12l0.156,-0.12l0.156,-0.12l0.155,-0.12l0.153,-0.121l0.053,-0.041l0.102,-0.077l0.154,-0.116l0.154,-0.117l0.153,-0.117l0.152,-0.117l0.15,-0.117l0.15,-0.118l0.149,-0.118l0.149,-0.118l0.147,-0.118l0.146,-0.118l0.145,-0.119l0.144,-0.119l0.144,-0.119l0.142,-0.119l0.141,-0.119l0.138,-0.117l0.003,-0.003l0.142,-0.114l0.142,-0.115l0.14,-0.114l0.139,-0.115l0.139,-0.115l0.137,-0.115l0.137,-0.115l0.135,-0.116l0.135,-0.115l0.133,-0.116l0.132,-0.115l0.022,-0.02l0.112,-0.092l0.133,-0.111l0.132,-0.112l0.131,-0.111l0.13,-0.111l0.129,-0.112l0.128,-0.111l0.127,-0.112l0.125,-0.111l0.125,-0.112l0.124,-0.112l0.122,-0.111l0.098,-0.09l0.024,-0.021l0.124,-0.106l0.123,-0.106l0.122,-0.106l0.121,-0.106l0.119,-0.106l0.119,-0.107l0.117,-0.106l0.116,-0.106l0.115,-0.105l0.114,-0.106l0.113,-0.106l0.111,-0.106l0.11,-0.105l0.062,-0.06l0.049,-0.044l0.112,-0.101l0.11,-0.1l0.109,-0.101l0.108,-0.1l0.107,-0.101l0.106,-0.1l0.079,-0.076l0.026,-0.023l0.106,-0.097l0.105,-0.096l0.104,-0.096l0.102,-0.096l0.101,-0.096l0.1,-0.096l0.099,-0.095l0.01,-0.01l0.09,-0.083l0.099,-0.092l0.097,-0.092l0.096,-0.092l0.096,-0.092l0.093,-0.091l0.093,-0.091l0.091,-0.091l0.005,-0.006l0.086,-0.083l0.09,-0.089l0.089,-0.089l0.088,-0.088l0.086,-0.088l0.085,-0.088l0.083,-0.087l0.082,-0.087l0.081,-0.087l0.015,-0.016l0.065,-0.069l0.08,-0.084l0.078,-0.084l0.077,-0.084l0.076,-0.083l0.074,-0.083l0.073,-0.083l0.071,-0.082l0.07,-0.082l0.068,-0.081l0.067,-0.081l0.065,-0.08l0.064,-0.08l0.062,-0.079l0.061,-0.079l0.06,-0.078l0.057,-0.078l0.057,-0.077l0.055,-0.076l0.053,-0.076l0.052,-0.075l0.05,-0.074l0.031,-0.047l0.019,-0.027l0.049,-0.072l0.048,-0.071l0.046,-0.07l0.044,-0.07l0.043,-0.069l0.042,-0.068l0.04,-0.068l0.039,-0.066l0.037,-0.066l0.036,-0.065l0.034,-0.064l0.033,-0.063l0.031,-0.062l0.03,-0.061l0.028,-0.06l0.028,-0.058l0.025,-0.058l0.025,-0.057l0.023,-0.056l0.023,-0.059l0.009,-0.023l0.01,-0.026l0.01,-0.027l0.009,-0.026l0.009,-0.026l0.009,-0.025l0.009,-0.026l0.008,-0.025l0.008,-0.024l0.007,-0.025l0.008,-0.024l0.007,-0.023l0.007,-0.024l0.006,-0.023l0.006,-0.023l0.006,-0.023l0.006,-0.022l0.006,-0.022l0.005,-0.022l0.003,-0.014l0.002,-0.007l0.005,-0.022l0.005,-0.02l0.005,-0.021l0.005,-0.02l0.004,-0.02l0.004,-0.02l0.004,-0.02l0.004,-0.019l0.003,-0.019l0.003,-0.019l0.003,-0.019l0.003,-0.018l0.003,-0.018l0.002,-0.018l0.003,-0.017l0.002,-0.018l0.002,-0.017l0.002,-0.017l0.001,-0.017l0.002,-0.017l0.001,-0.016l0.001,-0.016l0.001,-0.016l0.001,-0.016l0,-0.016l0.001,-0.016l0,-0.015l0,-0.015l0,-0.016l0,-0.015l0,-0.015l-0.001,-0.015l0,-0.015l-0.001,-0.014l-0.001,-0.015l-0.001,-0.015l-0.002,-0.014l-0.001,-0.015l-0.002,-0.014l-0.001,-0.015l-0.002,-0.014l-0.002,-0.015l-0.003,-0.014l-0.002,-0.015l-0.003,-0.015l-0.003,-0.014l-0.003,-0.015l-0.004,-0.015l-0.003,-0.014l-0.004,-0.015l-0.004,-0.015l-0.004,-0.015l-0.005,-0.016l-0.005,-0.015l-0.005,-0.015l-0.005,-0.016l-0.006,-0.015l-0.006,-0.016l-0.006,-0.016l-0.007,-0.016l-0.007,-0.016l-0.007,-0.016l-0.008,-0.017l-0.008,-0.017l-0.008,-0.016l-0.009,-0.017l-0.009,-0.017l-0.009,-0.018l-0.01,-0.017l-0.01,-0.018l-0.011,-0.018l-0.011,-0.017l-0.012,-0.019l-0.011,-0.016l-0.001,-0.002l-0.012,-0.019l-0.013,-0.019l-0.013,-0.019l-0.013,-0.019l-0.014,-0.02l-0.015,-0.02l-0.015,-0.02l-0.016,-0.02l-0.016,-0.02l-0.017,-0.021l-0.017,-0.02l-0.018,-0.021l-0.018,-0.021l-0.019,-0.021l-0.02,-0.021l-0.02,-0.021l-0.021,-0.022l-0.021,-0.021l-0.022,-0.022l-0.023,-0.022l-0.023,-0.022l-0.024,-0.022l-0.024,-0.022l-0.026,-0.023l-0.025,-0.022l-0.027,-0.023l-0.027,-0.022l-0.028,-0.023l-0.028,-0.023l-0.029,-0.022l-0.03,-0.023l-0.03,-0.023l-0.031,-0.023l-0.032,-0.023l-0.032,-0.024l-0.033,-0.023l-0.034,-0.023l-0.034,-0.023l-0.035,-0.024l-0.036,-0.023l-0.036,-0.023l-0.038,-0.023l-0.038,-0.024l-0.038,-0.023l-0.039,-0.024l-0.04,-0.023l-0.041,-0.023l-0.041,-0.023l-0.042,-0.024l-0.043,-0.023l-0.043,-0.023l-0.045,-0.023l-0.044,-0.024l-0.046,-0.023l-0.046,-0.023l-0.047,-0.023l-0.048,-0.023l-0.048,-0.023l-0.05,-0.023l-0.049,-0.022l-0.051,-0.023l-0.051,-0.023l-0.052,-0.022l-0.053,-0.023l-0.053,-0.022l-0.054,-0.022l-0.055,-0.023l-0.055,-0.022l-0.057,-0.022l-0.057,-0.022l-0.057,-0.022l-0.059,-0.021l-0.059,-0.022l-0.057,-0.021l-0.124,-0.043l-0.125,-0.042l-0.127,-0.042l-0.13,-0.041l-0.133,-0.04l-0.136,-0.04l-0.139,-0.04l-0.141,-0.038l-0.145,-0.038l-0.147,-0.038l-0.15,-0.037l-0.136,-0.032l-0.017,-0.004l-0.155,-0.037l-0.159,-0.036l-0.161,-0.035l-0.164,-0.035l-0.167,-0.034l-0.17,-0.034l-0.173,-0.032l-0.176,-0.032l-0.178,-0.031l-0.181,-0.03l-0.184,-0.029l-0.187,-0.029l-0.19,-0.028l-0.193,-0.027l-0.196,-0.026l-0.198,-0.025l-0.202,-0.024l-0.204,-0.023l-0.207,-0.023l-0.21,-0.021l-0.213,-0.021l-0.216,-0.02l-0.218,-0.019l-0.222,-0.017l-0.12,-0.009l-0.107,-0.008l-0.005,-0.001l-0.765,-0.342l-0.335,-0.702l-0.001,-0.01l0.298,-0.72l0.747,-0.38l0.005,-0.001l0.11,-0.013l0.122,-0.015l0.232,-0.028l0.23,-0.026l0.227,-0.024l0.226,-0.023l0.223,-0.021l0.221,-0.02l0.219,-0.018l0.217,-0.017l0.215,-0.015l0.213,-0.014l0.21,-0.013l0.208,-0.011l0.207,-0.009l0.204,-0.009l0.202,-0.006l0.201,-0.005l0.198,-0.004l0.196,-0.003l0.194,0l0.192,0Z" style="fill:#bfab8c;" />
            <path d="M225.8,27.946c-1.311,-0.66 -2.826,-1.077 -4.393,-1.209c-4.927,-0.416 -9.162,2.031 -9.452,5.462c-0.289,3.43 3.475,6.553 8.402,6.969c1.567,0.132 3.131,-0.025 4.534,-0.456l0.909,-10.766Z" style="fill:#b9a581;" />
            <path d="M90.261,30.077c5.019,0.434 31.447,-8.125 28.363,-10.816c-2.545,-2.222 -20.151,-1.923 -23.739,-2.493c-1.841,-0.293 -22.476,-6.572 -24.792,-3.767c-6.149,7.445 13.37,20.671 20.168,17.076Z" style="fill:#b9a581;" />
        </g>
    </g>
</svg>